<svg xmlns="http://www.w3.org/2000/svg" width="18" height="18" aria-label="TextColorLight icon" viewBox="0 0 18 18">
	<path fill-rule="evenodd" d="M16.41 14c.88 0 1.59.67 1.59 1.5s-.71 1.5-1.59 1.5H1.6C.7 17 0 16.33 0 15.5S.71 14 1.59 14zm0 1H1.6c-.34 0-.59.24-.59.5s.25.5.59.5h14.8c.34 0 .59-.24.59-.5s-.25-.5-.59-.5zM16 6.24V11a.44.44 0 0 1-.87 0v-.2c-.6.47-1.22.69-2.09.69-1.33 0-2.18-.59-2.5-1.57-.44-1.4.06-3.03 1.83-3.36 1.2-.23 2.1-.04 2.76.44v-.77c0-1.41-.59-2.04-1.8-1.92-.53.05-.96.17-1.32.32a1.8 1.8 0 0 0-.5.3.44.44 0 0 1-.62 0 .43.43 0 0 1 0-.62c.13-.14.39-.31.77-.48a5.3 5.3 0 0 1 1.6-.38C15 3.29 16 4.34 16 6.24zM5.93 1H6l.07.03a.43.43 0 0 1 .26.26l3.5 9.56a.44.44 0 0 1-.82.3L7.82 7.91a.44.44 0 0 1-.16.03H4.18a.44.44 0 0 1-.16-.03l-1.17 3.22a.44.44 0 0 1-.82-.3L5.5 1.3l.02-.04a.44.44 0 0 1 .17-.2l.07-.02A.44.44 0 0 1 5.9 1h.04zm6.6 6.42c-1.14.21-1.46 1.27-1.15 2.25.2.6.7.96 1.66.96.89 0 1.41-.29 2.09-1V8.36l-.02-.05a1.44 1.44 0 0 0-.3-.43c-.45-.46-1.17-.68-2.28-.47zm-6.6-4.71l-1.6 4.37h3.19l-1.6-4.37z"/>
</svg>
