<svg xmlns="http://www.w3.org/2000/svg" width="24" height="24" aria-label="SharedPost24 icon" viewBox="0 0 24 24">
	<path fill-rule="evenodd" d="M20.73 14.77a.5.5 0 0 1 .94.33 10.53 10.53 0 0 1-9.93 6.9C8.17 22 4.92 20.23 3 17.42v3.98a.5.5 0 0 1-.5.5.5.5 0 0 1-.5-.5v-5.97c0-.27.22-.5.5-.5l6-.02c.27 0 .5.23.5.5a.5.5 0 0 1-.5.5l-5.24.02A9.56 9.56 0 0 0 11.74 21a9.53 9.53 0 0 0 8.99-6.23zM11.96 2C15.84 2 19.2 4.05 21 7.34V2.5a.5.5 0 1 1 1 0v5.96a.5.5 0 0 1-.5.5h-5.98a.5.5 0 0 1-.5-.5c0-.28.22-.5.5-.5h4.69a9.2 9.2 0 0 0-8.25-4.98 9.53 9.53 0 0 0-8.99 6.24.5.5 0 0 1-.94-.33A10.53 10.53 0 0 1 11.96 2z"/>
</svg>
