<svg xmlns="http://www.w3.org/2000/svg" width="18" height="18" aria-label="SharedPost icon" viewBox="0 0 18 18">
	<path fill-rule="evenodd" d="M6 11a.5.5 0 1 1 0 1H3.6c.98 1.94 3 3 5.57 3a6.45 6.45 0 0 0 5.88-3.57.5.5 0 1 1 .9.44A7.45 7.45 0 0 1 9.17 16c-2.7 0-4.92-1.06-6.17-3.02V15a.5.5 0 1 1-1 0v-3.5c0-.28.22-.5.5-.5H6zm2.83-9c2.7 0 4.93 1.06 6.17 3.02V3a.5.5 0 1 1 1 0v3.5a.5.5 0 0 1-.5.5H12a.5.5 0 1 1 0-1h2.4c-.98-1.94-3-3-5.57-3a6.45 6.45 0 0 0-5.88 3.57.5.5 0 0 1-.9-.44A7.45 7.45 0 0 1 8.83 2z"/>
</svg>
