<svg xmlns="http://www.w3.org/2000/svg" width="48" height="48" aria-label="Curation20-Video icon" viewBox="0 0 48 48">
	<path d="M44 13a3 3 0 0 1 3 3v16a3 3 0 0 1-3 3h-4a3 3 0 0 1-3-3V16a3 3 0 0 1 3-3h4zm-24 0a3 3 0 0 1 3 3v16a3 3 0 0 1-3 3H4a3 3 0 0 1-3-3V16a3 3 0 0 1 3-3h16zm12 16a3 3 0 0 1 0 6h-4a3 3 0 0 1 0-6h4zM20 14H4c-1 0-2 .8-2 1.9V32c0 1 .8 2 1.9 2H20c1 0 2-.8 2-1.9V16c0-1-.8-2-1.9-2H20zm12 16h-4a2 2 0 0 0-.1 4H32a2 2 0 0 0 .1-4H32zm-22-9.5c0-.4.4-.6.8-.4l4.9 3.2c.4.2.4.7 0 1l-5 3.1c-.3.2-.7 0-.7-.4zm22 .5a3 3 0 0 1 0 6h-4a3 3 0 0 1 0-6h4zm0 1h-4a2 2 0 0 0-.1 4H32a2 2 0 0 0 .1-4H32zm0-9a3 3 0 0 1 0 6h-4a3 3 0 0 1 0-6h4zm0 1h-4a2 2 0 0 0-.1 4H32a2 2 0 0 0 .1-4H32z"/>
</svg>
