<svg xmlns="http://www.w3.org/2000/svg" width="48" height="48" aria-label="Curation20-EightCard icon" viewBox="0 0 48 48">
	<path d="M32 31a3 3 0 0 1 3 3v4a3 3 0 0 1-3 3h-4a3 3 0 0 1-3-3v-4a3 3 0 0 1 3-3h4zm-12 0a3 3 0 0 1 3 3v4a3 3 0 0 1-3 3H4a3 3 0 0 1-3-3v-4a3 3 0 0 1 3-3h16zm24 0a3 3 0 0 1 3 3v4a3 3 0 0 1-3 3h-4a3 3 0 0 1-3-3v-4a3 3 0 0 1 3-3h4zm-12 1h-4c-1 0-2 .8-2 1.9V38c0 1 .8 2 1.9 2H32c1 0 2-.8 2-1.9V34c0-1-.8-2-1.9-2H32zm-12 0H4c-1 0-2 .8-2 1.9V38c0 1 .8 2 1.9 2H20c1 0 2-.8 2-1.9V34c0-1-.8-2-1.9-2H20zm24 0h-4c-1 0-2 .8-2 1.9V38c0 1 .8 2 1.9 2H44c1 0 2-.8 2-1.9V34c0-1-.8-2-1.9-2H44zM20 7a3 3 0 0 1 3 3v16a3 3 0 0 1-3 3H4a3 3 0 0 1-3-3V10a3 3 0 0 1 3-3h16zm12 12a3 3 0 0 1 3 3v4a3 3 0 0 1-3 3h-4a3 3 0 0 1-3-3v-4a3 3 0 0 1 3-3h4zm12 0a3 3 0 0 1 3 3v4a3 3 0 0 1-3 3h-4a3 3 0 0 1-3-3v-4a3 3 0 0 1 3-3h4zM20 8H4c-1 0-2 .8-2 1.9V26c0 1 .8 2 1.9 2H20c1 0 2-.8 2-1.9V10c0-1-.8-2-1.9-2H20zm12 12h-4c-1 0-2 .8-2 1.9V26c0 1 .8 2 1.9 2H32c1 0 2-.8 2-1.9V22c0-1-.8-2-1.9-2H32zm12 0h-4c-1 0-2 .8-2 1.9V26c0 1 .8 2 1.9 2H44c1 0 2-.8 2-1.9V22c0-1-.8-2-1.9-2H44zM32 7a3 3 0 0 1 3 3v4a3 3 0 0 1-3 3h-4a3 3 0 0 1-3-3v-4a3 3 0 0 1 3-3h4zm12 0a3 3 0 0 1 3 3v4a3 3 0 0 1-3 3h-4a3 3 0 0 1-3-3v-4a3 3 0 0 1 3-3h4zM32 8h-4c-1 0-2 .8-2 1.9V14c0 1 .8 2 1.9 2H32c1 0 2-.8 2-1.9V10c0-1-.8-2-1.9-2H32zm12 0h-4c-1 0-2 .8-2 1.9V14c0 1 .8 2 1.9 2H44c1 0 2-.8 2-1.9V10c0-1-.8-2-1.9-2H44z"/>
</svg>
