<svg xmlns="http://www.w3.org/2000/svg" width="48" height="48" aria-label="Curation20-ThreeCardHorizontal icon" viewBox="0 0 48 48">
	<path d="M44 19a3 3 0 0 1 3 3v4a3 3 0 0 1-3 3h-8a3 3 0 0 1-3-3v-4a3 3 0 0 1 3-3h8zm-32 0a3 3 0 0 1 3 3v4a3 3 0 0 1-3 3H4a3 3 0 0 1-3-3v-4a3 3 0 0 1 3-3h8zm16 0a3 3 0 0 1 3 3v4a3 3 0 0 1-3 3h-8a3 3 0 0 1-3-3v-4a3 3 0 0 1 3-3h8zm16 1h-8c-1 0-2 .8-2 1.9V26c0 1 .8 2 1.9 2H44c1 0 2-.8 2-1.9V22c0-1-.8-2-1.9-2H44zm-32 0H4c-1 0-2 .8-2 1.9V26c0 1 .8 2 1.9 2H12c1 0 2-.8 2-1.9V22c0-1-.8-2-1.9-2H12zm16 0h-8c-1 0-2 .8-2 1.9V26c0 1 .8 2 1.9 2H28c1 0 2-.8 2-1.9V22c0-1-.8-2-1.9-2H28z"/>
</svg>
