<svg xmlns="http://www.w3.org/2000/svg" width="48" height="48" aria-label="Curation20-FourCardHorizontal icon" viewBox="0 0 48 48">
	<path d="M32 19a3 3 0 0 1 3 3v4a3 3 0 0 1-3 3h-4a3 3 0 0 1-3-3v-4a3 3 0 0 1 3-3h4zm12 0a3 3 0 0 1 3 3v4a3 3 0 0 1-3 3h-4a3 3 0 0 1-3-3v-4a3 3 0 0 1 3-3h4zM8 19a3 3 0 0 1 3 3v4a3 3 0 0 1-3 3H4a3 3 0 0 1-3-3v-4a3 3 0 0 1 3-3h4zm12 0a3 3 0 0 1 3 3v4a3 3 0 0 1-3 3h-4a3 3 0 0 1-3-3v-4a3 3 0 0 1 3-3h4zm12 1h-4c-1 0-2 .8-2 1.9V26c0 1 .8 2 1.9 2H32c1 0 2-.8 2-1.9V22c0-1-.8-2-1.9-2H32zm12 0h-4c-1 0-2 .8-2 1.9V26c0 1 .8 2 1.9 2H44c1 0 2-.8 2-1.9V22c0-1-.8-2-1.9-2H44zM8 20H4c-1 0-2 .8-2 1.9V26c0 1 .8 2 1.9 2H8c1 0 2-.8 2-1.9V22c0-1-.8-2-1.9-2H8zm12 0h-4c-1 0-2 .8-2 1.9V26c0 1 .8 2 1.9 2H20c1 0 2-.8 2-1.9V22c0-1-.8-2-1.9-2H20z"/>
</svg>
