<svg xmlns="http://www.w3.org/2000/svg" width="48" height="48" aria-label="Curation20-FiveCard icon" viewBox="0 0 48 48">
	<path d="M20 13a3 3 0 0 1 3 3v16a3 3 0 0 1-3 3H4a3 3 0 0 1-3-3V16a3 3 0 0 1 3-3h16zm12 12a3 3 0 0 1 3 3v4a3 3 0 0 1-3 3h-4a3 3 0 0 1-3-3v-4a3 3 0 0 1 3-3h4zm12 0a3 3 0 0 1 3 3v4a3 3 0 0 1-3 3h-4a3 3 0 0 1-3-3v-4a3 3 0 0 1 3-3h4zM20 14H4c-1 0-2 .8-2 1.9V32c0 1 .8 2 1.9 2H20c1 0 2-.8 2-1.9V16c0-1-.8-2-1.9-2H20zm12 12h-4c-1 0-2 .8-2 1.9V32c0 1 .8 2 1.9 2H32c1 0 2-.8 2-1.9V28c0-1-.8-2-1.9-2H32zm12 0h-4c-1 0-2 .8-2 1.9V32c0 1 .8 2 1.9 2H44c1 0 2-.8 2-1.9V28c0-1-.8-2-1.9-2H44zM32 13a3 3 0 0 1 3 3v4a3 3 0 0 1-3 3h-4a3 3 0 0 1-3-3v-4a3 3 0 0 1 3-3h4zm12 0a3 3 0 0 1 3 3v4a3 3 0 0 1-3 3h-4a3 3 0 0 1-3-3v-4a3 3 0 0 1 3-3h4zm-12 1h-4c-1 0-2 .8-2 1.9V20c0 1 .8 2 1.9 2H32c1 0 2-.8 2-1.9V16c0-1-.8-2-1.9-2H32zm12 0h-4c-1 0-2 .8-2 1.9V20c0 1 .8 2 1.9 2H44c1 0 2-.8 2-1.9V16c0-1-.8-2-1.9-2H44z"/>
</svg>
