<svg xmlns="http://www.w3.org/2000/svg" width="48" height="48" aria-label="Curation20-SixCardWithLatest icon" viewBox="0 0 48 48">
	<path d="M32 33a3 3 0 0 1 3 3v8a3 3 0 0 1-3 3h-4a3 3 0 0 1-3-3v-8a3 3 0 0 1 3-3h4zm-12 4a3 3 0 0 1 3 3v4a3 3 0 0 1-3 3H4a3 3 0 0 1-3-3v-4a3 3 0 0 1 3-3h16zm24 4a3 3 0 0 1 0 6h-4a3 3 0 0 1 0-6h4zm-12-7h-4c-1 0-2 .8-2 1.9V44c0 1 .8 2 1.9 2H32c1 0 2-.8 2-1.9V36c0-1-.8-2-1.9-2H32zm-12 4H4c-1 0-2 .8-2 1.9V44c0 1 .8 2 1.9 2H20c1 0 2-.8 2-1.9V40c0-1-.8-2-1.9-2H20zm24 4h-4a2 2 0 0 0-.1 4H44a2 2 0 0 0 .1-4H44zm0-9a3 3 0 0 1 0 6h-4a3 3 0 0 1 0-6h4zm0 1h-4a2 2 0 0 0-.1 4H44a2 2 0 0 0 .1-4H44zm-24-9a3 3 0 0 1 3 3v4a3 3 0 0 1-3 3H4a3 3 0 0 1-3-3v-4a3 3 0 0 1 3-3h16zm0 1H4c-1 0-2 .8-2 1.9V32c0 1 .8 2 1.9 2H20c1 0 2-.8 2-1.9V28c0-1-.8-2-1.9-2H20zm12-9a3 3 0 0 1 3 3v8a3 3 0 0 1-3 3h-4a3 3 0 0 1-3-3v-8a3 3 0 0 1 3-3h4zm12 8a3 3 0 0 1 0 6h-4a3 3 0 0 1 0-6h4zm-12-7h-4c-1 0-2 .8-2 1.9V28c0 1 .8 2 1.9 2H32c1 0 2-.8 2-1.9V20c0-1-.8-2-1.9-2H32zm12 8h-4a2 2 0 0 0-.1 4H44a2 2 0 0 0 .1-4H44zM20 1a3 3 0 0 1 3 3v16a3 3 0 0 1-3 3H4a3 3 0 0 1-3-3V4a3 3 0 0 1 3-3h16zm24 16a3 3 0 0 1 0 6h-4a3 3 0 0 1 0-6h4zM20 2H4c-1 0-2 .8-2 1.9V20c0 1 .8 2 1.9 2H20c1 0 2-.8 2-1.9V4c0-1-.8-2-1.9-2H20zm24 16h-4a2 2 0 0 0-.1 4H44a2 2 0 0 0 .1-4H44zM32 1a3 3 0 0 1 3 3v8a3 3 0 0 1-3 3h-4a3 3 0 0 1-3-3V4a3 3 0 0 1 3-3h4zm12 8a3 3 0 0 1 0 6h-4a3 3 0 0 1 0-6h4zM32 2h-4c-1 0-2 .8-2 1.9V12c0 1 .8 2 1.9 2H32c1 0 2-.8 2-1.9V4c0-1-.8-2-1.9-2H32zm12 8h-4a2 2 0 0 0-.1 4H44a2 2 0 0 0 .1-4H44zm0-9a3 3 0 0 1 0 6h-4a3 3 0 0 1 0-6h4zm0 1h-4a2 2 0 0 0-.1 4H44a2 2 0 0 0 .1-4H44z"/>
</svg>
