<svg xmlns="http://www.w3.org/2000/svg" width="48" height="48" aria-label="Curation-EqualSix icon" viewBox="0 0 48 48">
	<path fill-rule="evenodd" d="M29.5 25c.83 0 1.5.67 1.5 1.5v11c0 .83-.67 1.5-1.5 1.5h-11a1.5 1.5 0 0 1-1.5-1.5v-11c0-.83.67-1.5 1.5-1.5h11zm16 0c.83 0 1.5.67 1.5 1.5v11c0 .83-.67 1.5-1.5 1.5h-11a1.5 1.5 0 0 1-1.5-1.5v-11c0-.83.67-1.5 1.5-1.5h11zm-32 0c.83 0 1.5.67 1.5 1.5v11c0 .83-.67 1.5-1.5 1.5h-11A1.5 1.5 0 0 1 1 37.5v-11c0-.83.67-1.5 1.5-1.5h11zm16 1h-11a.5.5 0 0 0-.5.5v11c0 .28.22.5.5.5h11a.5.5 0 0 0 .5-.5v-11a.5.5 0 0 0-.5-.5zm16 0h-11a.5.5 0 0 0-.5.5v11c0 .28.22.5.5.5h11a.5.5 0 0 0 .5-.5v-11a.5.5 0 0 0-.5-.5zm-32 0h-11a.5.5 0 0 0-.5.5v11c0 .28.22.5.5.5h11a.5.5 0 0 0 .5-.5v-11a.5.5 0 0 0-.5-.5zm16-17c.83 0 1.5.67 1.5 1.5v11c0 .83-.67 1.5-1.5 1.5h-11a1.5 1.5 0 0 1-1.5-1.5v-11c0-.83.67-1.5 1.5-1.5h11zm16 0c.83 0 1.5.67 1.5 1.5v11c0 .83-.67 1.5-1.5 1.5h-11a1.5 1.5 0 0 1-1.5-1.5v-11c0-.83.67-1.5 1.5-1.5h11zm-32 0c.83 0 1.5.67 1.5 1.5v11c0 .83-.67 1.5-1.5 1.5h-11A1.5 1.5 0 0 1 1 21.5v-11C1 9.67 1.67 9 2.5 9h11zm16 1h-11a.5.5 0 0 0-.5.5v11c0 .28.22.5.5.5h11a.5.5 0 0 0 .5-.5v-11a.5.5 0 0 0-.5-.5zm16 0h-11a.5.5 0 0 0-.5.5v11c0 .28.22.5.5.5h11a.5.5 0 0 0 .5-.5v-11a.5.5 0 0 0-.5-.5zm-32 0h-11a.5.5 0 0 0-.5.5v11c0 .28.22.5.5.5h11a.5.5 0 0 0 .5-.5v-11a.5.5 0 0 0-.5-.5z"/>
</svg>
