<svg xmlns="http://www.w3.org/2000/svg" width="48" height="48" aria-label="Curation-ModularFour icon" viewBox="0 0 48 48">
	<path fill-rule="evenodd" d="M30.5 24c.83 0 1.5.67 1.5 1.5v10c0 .83-.67 1.5-1.5 1.5h-10a1.5 1.5 0 0 1-1.5-1.5v-10c0-.83.67-1.5 1.5-1.5zm15-15c.83 0 1.5.67 1.5 1.5v25c0 .83-.67 1.5-1.5 1.5h-10a1.5 1.5 0 0 1-1.5-1.5v-25c0-.83.67-1.5 1.5-1.5zm-30 0c.83 0 1.5.67 1.5 1.5v25c0 .83-.67 1.5-1.5 1.5h-13A1.5 1.5 0 0 1 1 35.5v-25C1 9.67 1.67 9 2.5 9zm15 16h-10a.5.5 0 0 0-.5.5v10c0 .28.22.5.5.5h10a.5.5 0 0 0 .5-.5v-10a.5.5 0 0 0-.5-.5zm15-15h-10a.5.5 0 0 0-.5.5v25c0 .28.22.5.5.5h10a.5.5 0 0 0 .5-.5v-25a.5.5 0 0 0-.5-.5zm-30 0h-13a.5.5 0 0 0-.5.5v25c0 .28.22.5.5.5h13a.5.5 0 0 0 .5-.5v-25a.5.5 0 0 0-.5-.5zm15-1c.83 0 1.5.67 1.5 1.5v10c0 .83-.67 1.5-1.5 1.5h-10a1.5 1.5 0 0 1-1.5-1.5v-10c0-.83.67-1.5 1.5-1.5zm0 1h-10a.5.5 0 0 0-.5.5v10c0 .28.22.5.5.5h10a.5.5 0 0 0 .5-.5v-10a.5.5 0 0 0-.5-.5z"/>
</svg>
