<svg xmlns="http://www.w3.org/2000/svg" width="48" height="48" aria-label="Curation-EqualFour icon" viewBox="0 0 48 48">
	<path fill-rule="evenodd" d="M21.5 19c.83 0 1.5.67 1.5 1.5v7c0 .83-.67 1.5-1.5 1.5h-7a1.5 1.5 0 0 1-1.5-1.5v-7c0-.83.67-1.5 1.5-1.5zm12 0c.83 0 1.5.67 1.5 1.5v7c0 .83-.67 1.5-1.5 1.5h-7a1.5 1.5 0 0 1-1.5-1.5v-7c0-.83.67-1.5 1.5-1.5zm12 0c.83 0 1.5.67 1.5 1.5v7c0 .83-.67 1.5-1.5 1.5h-7a1.5 1.5 0 0 1-1.5-1.5v-7c0-.83.67-1.5 1.5-1.5zm-36 0c.83 0 1.5.67 1.5 1.5v7c0 .83-.67 1.5-1.5 1.5h-7A1.5 1.5 0 0 1 1 27.5v-7c0-.83.67-1.5 1.5-1.5zm12 1h-7a.5.5 0 0 0-.5.5v7c0 .28.22.5.5.5h7a.5.5 0 0 0 .5-.5v-7a.5.5 0 0 0-.5-.5zm12 0h-7a.5.5 0 0 0-.5.5v7c0 .28.22.5.5.5h7a.5.5 0 0 0 .5-.5v-7a.5.5 0 0 0-.5-.5zm12 0h-7a.5.5 0 0 0-.5.5v7c0 .28.22.5.5.5h7a.5.5 0 0 0 .5-.5v-7a.5.5 0 0 0-.5-.5zm-36 0h-7a.5.5 0 0 0-.5.5v7c0 .28.22.5.5.5h7a.5.5 0 0 0 .5-.5v-7a.5.5 0 0 0-.5-.5z"/>
</svg>
