<svg xmlns="http://www.w3.org/2000/svg" width="18" height="18" aria-label="Lock icon" viewBox="0 0 18 18">
	<path fill-rule="evenodd" d="M13 2.5a.5.5 0 0 0-.5-.5h-7a.5.5 0 0 0-.5.5V5H4V2.5C4 1.66 4.67 1 5.5 1h7c.83 0 1.5.67 1.5 1.5V5h1.5c.82 0 1.5.67 1.5 1.5v9c0 .83-.67 1.5-1.5 1.5h-13A1.5 1.5 0 0 1 1 15.5v-9C1 5.67 1.67 5 2.5 5H13V2.5zM15.5 6h-13a.5.5 0 0 0-.5.5v9c0 .28.23.5.5.5h13a.5.5 0 0 0 .5-.5v-9a.5.5 0 0 0-.5-.5zM9 8a2 2 0 0 1 1 3.73v1.1c0 .62-.4 1.17-1 1.17-.59 0-1-.55-1-1.17v-1.1A2 2 0 0 1 9 8zm0 1a1 1 0 1 0 0 2 1 1 0 0 0 0-2z"/>
</svg>
