<svg xmlns="http://www.w3.org/2000/svg" width="18" height="18" aria-label="Bubble icon" viewBox="0 0 18 18">
	<path fill-rule="evenodd" d="M5.59 12.69c.84.49.73 1.4-.08 2.95l.13-.1c.8-.58 1.84-1.47 1.96-1.65l.16-.23.28.05c.7.12 2.63 0 4.15-.54 2.4-.84 3.85-2.5 3.95-5.28.04-3.28-2.98-6.05-6.64-6.05-3.67 0-6.64 2.72-6.64 6.06 0 2.01.93 3.61 2.72 4.78zm-.46.71A6.33 6.33 0 0 1 2 7.9C2 4.08 5.36 1 9.5 1c4.13 0 7.55 3.14 7.5 6.91-.12 3.15-1.8 5.1-4.52 6.05-1.52.54-3.4.7-4.35.6-.4.41-1.25 1.13-1.98 1.66a5.6 5.6 0 0 1-1.19.72c-.78.26-.96-.38-.6-1.01.88-1.5 1.09-2.27.83-2.5l-.06-.03z"/>
</svg>
