<svg xmlns="http://www.w3.org/2000/svg" width="18" height="18" aria-label="BubbleDelete icon" viewBox="0 0 18 18">
	<path fill-rule="evenodd" d="M7.56 13.79a.5.5 0 0 1 .5-.21c.68.12 2.59 0 4.09-.53 2.34-.82 3.75-2.45 3.85-5.15.04-3.2-2.9-5.9-6.5-5.9S3 4.66 3 7.9c0 1.98.92 3.55 2.68 4.69a.5.5 0 0 1 .23.42l.02.38c.05.75 0 1.32-.25 1.98.78-.57 1.77-1.42 1.88-1.58zM2 7.9C2 4.08 5.37 1 9.5 1s7.55 3.14 7.5 6.93c-.12 3.15-1.82 5.11-4.52 6.06-1.5.53-3.34.69-4.3.6-.42.41-1.24 1.1-1.95 1.62-.52.38-.92.63-1.2.72-.86.3-1.07-.44-.67-1.12a3.48 3.48 0 0 0 .56-2.53A6.3 6.3 0 0 1 2 7.91zm9.97-2.89c.2.2.2.51 0 .7L10.21 7.5l1.76 1.77a.5.5 0 1 1-.7.7L9.5 8.2 7.73 9.97a.5.5 0 0 1-.7-.7l1.76-1.78-1.76-1.76a.5.5 0 1 1 .7-.71L9.5 6.79l1.77-1.77c.2-.2.5-.2.7 0z"/>
</svg>
