<svg xmlns="http://www.w3.org/2000/svg" width="24" height="24" aria-label="Bubble24 icon" viewBox="0 0 24 24">
	<path fill-rule="evenodd" d="M6.95 22.86c-.76.56-1.35.94-1.74 1.07-.98.35-1.21-.46-.71-1.33 1.38-2.44 1.68-3.67 1.1-4.01l-.01-.01C2.59 16.6 1 13.8 1 10.34 1 4.62 5.93 0 12 0c6.06 0 11.07 4.7 11 10.35-.17 4.72-2.64 7.65-6.62 9.07-2.28.81-5.1 1.05-6.46.9-.55.58-1.87 1.71-2.97 2.54zm-1.28-.32l.68-.48c1.2-.9 2.76-2.26 2.95-2.55a.5.5 0 0 1 .5-.22 15.44 15.44 0 0 0 6.24-.82c3.62-1.29 5.8-3.87 5.96-8.14C22.06 5.26 17.52 1 12 1 6.47 1 2 5.19 2 10.34c0 3.11 1.42 5.6 4.13 7.4 1.23.74.96 2.2-.46 4.8z"/>
</svg>
