<svg xmlns="http://www.w3.org/2000/svg" width="48" height="48" aria-label="DealsGaming icon" viewBox="0 0 48 48">
	<path fill-rule="evenodd" d="M27.22 2.01c.4-.07.78.19.86.59.32 1.65.21 2.68-.43 3.29-.3.3-.7.44-1.16.5-.3.03-.52.03-1.1 0-.47 0-.7-.01-.95.01-.62.05-1.05.23-1.4.63-.37.42-.42.95-.17 1.66.24.64.7 1.37 1.34 2.11l.59.65c1.65-.1 3.7-.51 5.84-1.08l-.08.02a9.03 9.03 0 0 1 11.66 4.72l.1.24c.76 1.86 1.48 3.73 2.14 5.61a80.46 80.46 0 0 1 2.58 8.7c.78 3.42 1.11 6.37.9 8.74-.27 2.99-1.43 5.1-3.64 6-2.08.83-4.25.24-6.4-1.48-1.14-.92-2.67-2.83-4.57-5.74-1.16-.43-2.5-.85-3.93-1.2a23.64 23.64 0 0 0-5.47-.74c-1.65 0-3.48.27-5.4.74-1.3.32-2.59.71-3.85 1.19-1.9 2.9-3.43 4.82-4.58 5.75-2.15 1.72-4.32 2.31-6.4 1.47-2.21-.89-3.37-3-3.64-5.99-.21-2.37.12-5.32.9-8.74a82.22 82.22 0 0 1 2.58-8.7c.66-1.88 1.37-3.75 2.13-5.6a9.03 9.03 0 0 1 11.77-4.98l.01.01.38.1c1.8.46 3.51.8 4.98.92a8 8 0 0 1-1.32-2.23c-.42-1.16-.32-2.25.44-3.12a3.34 3.34 0 0 1 2.4-1.13c.33-.02.59-.02 1.12 0 .81.03 1.08 0 1.19-.1.06-.06.1-.18.13-.42.04-.35 0-.86-.14-1.53a.74.74 0 0 1 .59-.87zm12.83 14.26a6.58 6.58 0 0 0-8.63-3.59l-.07.03-.08.02a29.77 29.77 0 0 1-7.23 1.2c-2.07 0-4.63-.48-7.3-1.2l-.08-.01-.08-.04-.06-.02a6.58 6.58 0 0 0-8.58 3.61 118.9 118.9 0 0 0-2.09 5.5 78.38 78.38 0 0 0-2.5 8.43c-1.52 6.67-1.13 10.95 1.26 11.92 2.26.91 5.28-1.52 8.6-6.76l.23-.34.38-.15c1.35-.5 2.73-.93 4.13-1.27 2.1-.52 4.11-.81 5.98-.81s3.92.3 6.05.81c1.42.35 2.82.78 4.2 1.28l.38.14.22.35c3.33 5.23 6.35 7.66 8.6 6.75 2.4-.97 2.79-5.25 1.27-11.91a78.06 78.06 0 0 0-2.5-8.43c-.7-2-1.29-3.51-2.1-5.5zM15.5 18.3c.4 0 .74.33.74.74v3.63h3.55c.37 0 .68.28.73.64v.1c0 .4-.32.73-.73.73h-3.55v3.62c0 .37-.28.68-.64.73h-.1a.74.74 0 0 1-.73-.73v-3.62h-3.7a.74.74 0 0 1-.73-.63l-.01-.1c0-.41.33-.74.74-.74h3.7v-3.63c0-.38.27-.68.63-.73zm17.68 6.87c.7 0 1.28.6 1.28 1.32a1.3 1.3 0 0 1-1.28 1.33c-.7 0-1.27-.6-1.27-1.33 0-.73.57-1.32 1.27-1.32zm-2.04-2.54a1.3 1.3 0 1 1-2.5.67 1.3 1.3 0 0 1 2.5-.67zm6.48 0a1.3 1.3 0 1 1-2.5.67 1.3 1.3 0 0 1 2.5-.67zm-4.44-4.52c.7 0 1.28.6 1.28 1.33a1.3 1.3 0 0 1-1.28 1.32c-.7 0-1.27-.6-1.27-1.32 0-.73.57-1.33 1.27-1.33z"/>
</svg>
