<svg xmlns="http://www.w3.org/2000/svg" width="48" height="48" aria-label="DealsLifestyle icon" viewBox="0 0 48 48">
	<path fill-rule="evenodd" d="M23.65 6l-11.2 2.94a3.9 3.9 0 0 0-2.8 3.42v5.76c0 1.64 1.3 3 2.93 3.08h3.78v8.38H12.8v-4.31a2.72 2.72 0 0 0-2.56-2.7l-.17-.01h-1c-1.34 0-2.45.96-2.68 2.22a2.73 2.73 0 0 0-.74-.15l-.2-.01h-.22a2.72 2.72 0 0 0-2.73 2.54v2.61A2.53 2.53 0 0 0 0 32.29a2.53 2.53 0 0 0 2.37 2.51h.13v2.47a2.72 2.72 0 0 0 2.56 2.7h.4c.33 0 .64-.05.93-.16A2.72 2.72 0 0 0 8.9 42l.18.01h1a2.72 2.72 0 0 0 2.72-2.54V35h3.56v.65a3.1 3.1 0 0 0 2.78 3.08h.17l.16.01h4.02v.56a2.72 2.72 0 0 0 2.56 2.7l.17.01h1c1.33 0 2.43-.94 2.68-2.19.23.09.48.14.74.16h.41c.97 0 1.81-.49 2.3-1.24h4.83a3.1 3.1 0 0 0 3.11-2.91V21.2h3.6a3.1 3.1 0 0 0 3.1-2.76v-.18l.01-.15v-5.57a3.94 3.94 0 0 0-2.6-3.58l-.18-.05L34.7 6H23.65zm2.56 18.47h1c.41 0 .75.3.8.7v14.12a.8.8 0 0 1-.7.8h-1.1a.8.8 0 0 1-.8-.7V25.27c0-.44.35-.8.8-.8zm-17.14 0h1c.41 0 .75.3.8.7v4.4h-.03V35h.04v4.3a.8.8 0 0 1-.71.79h-1.1a.8.8 0 0 1-.8-.7V25.27c0-.44.35-.8.8-.8zm21.75 2.06h.23c.41 0 .75.3.8.7v10.04a.8.8 0 0 1-.06.33v-.03a.8.8 0 0 1-.03.1l.03-.07a.8.8 0 0 1-.06.1l.03-.04a.8.8 0 0 1-.06.1l.03-.06a.8.8 0 0 1-.05.07l.02-.02a.8.8 0 0 1-.06.07l.04-.05a.8.8 0 0 1-.07.08l.03-.03a.81.81 0 0 1-.08.07l.05-.04a.81.81 0 0 1-.08.06l.03-.02a.8.8 0 0 1-.08.06l.05-.04a.8.8 0 0 1-.1.06l.05-.02a.8.8 0 0 1-.07.04l.03-.02a.8.8 0 0 1-.1.05l.07-.03a.8.8 0 0 1-.09.03h.03a.8.8 0 0 1-.1.03l-.1.01-.1.01h-.23a.8.8 0 0 1-.8-.7V27.33c0-.44.36-.8.8-.8zm-25.6 0h.24c.4 0 .75.3.8.7v10.04c0 .4-.3.75-.7.8h-.33a.8.8 0 0 1-.8-.7l-.01-.1v-9.94c0-.44.36-.8.8-.8zM18.28 35h5.21v1.83h-4.02a1.2 1.2 0 0 1-1.18-1.07V35zM35.22 8.12l9.49 2.64c.64.18 1.22.85 1.34 1.52l.02.14v5.7c0 .6-.46 1.11-1.06 1.17h-5.64v16.35c0 .62-.47 1.12-1.07 1.18h-4.52v-2.01a2.53 2.53 0 0 0 2.5-2.52c0-1.4-1.14-2.52-2.54-2.52h.04v-2.44a2.72 2.72 0 0 0-2.56-2.7l-.17-.01h-.23c-.32 0-.64.06-.93.16a2.72 2.72 0 0 0-2.5-2.22H26.2a2.72 2.72 0 0 0-2.72 2.54v4.47h-5.22V19.3h-5.51a1.2 1.2 0 0 1-1.19-1.06v-5.69a2 2 0 0 1 1.23-1.72l.13-.04 9.6-2.52a6.45 6.45 0 0 0 6.33 5.1c3.17 0 5.8-2.26 6.36-5.25zM12.8 31.5h10.68v1.6H12.8v-1.6zM23.9 7.9h10.18a5.3 5.3 0 0 1-5.22 4.31 5.3 5.3 0 0 1-5.21-4.25l.25-.06z"/>
</svg>
