<svg xmlns="http://www.w3.org/2000/svg" width="48" height="48" aria-label="DealsMultimedia icon" viewBox="0 0 48 48">
	<path fill-rule="evenodd" d="M44.31 1A3.68 3.68 0 0 1 48 4.66v29.4a3.68 3.68 0 0 1-3.69 3.67H24.6l.01-.1A12.35 12.35 0 0 1 12.38 48C5.54 48 0 42.5 0 35.7a12.3 12.3 0 0 1 8.75-11.75l-.06.02V4.67A3.68 3.68 0 0 1 12.38 1H44.3zM12.38 25.83a9.92 9.92 0 0 0-9.95 9.88 9.92 9.92 0 0 0 9.95 9.88c5.5 0 9.95-4.42 9.95-9.88a9.92 9.92 0 0 0-9.95-9.88zm7.47 9.2c.38 0 .7.3.7.68a8.14 8.14 0 0 1-8.17 8.1c-.39 0-.7-.3-.7-.68a.7.7 0 0 1 .7-.69 6.76 6.76 0 0 0 6.78-6.73c0-.38.3-.69.69-.69zm-7.47-1.44a2.12 2.12 0 1 1 0 4.24 2.13 2.13 0 0 1-2.14-2.12c0-1.17.96-2.12 2.14-2.12zm0-6a.7.7 0 0 1-.01 1.38 6.76 6.76 0 0 0-6.78 6.74c0 .38-.3.68-.69.68a.68.68 0 0 1-.69-.68 8.14 8.14 0 0 1 8.17-8.11zm0 7.44a.68.68 0 1 0 0 1.35.67.67 0 1 0 0-1.35zm33.2-25.26H11.1v13.7l-.04.01a12.34 12.34 0 0 1 13.68 12.04v-.2H44.3c.7 0 1.26-.56 1.26-1.25V9.77zM24.6 16.33l10.38 5.16-10.38 5.16V16.33zM12.74 3.4h-.36c-.7 0-1.27.56-1.27 1.25v2.7H15L12.75 3.4zm11.17 0h-4.66l2.25 3.95h4.66L23.9 3.41zm11.06 0h-4.56l2.25 3.95h4.56L34.97 3.4zm9.34 0h-2.83l2.25 3.95h1.84v-2.7c0-.69-.56-1.25-1.26-1.25z"/>
</svg>
