<svg xmlns="http://www.w3.org/2000/svg" width="48" height="48" aria-label="DealsHome icon" viewBox="0 0 48 48">
	<path fill-rule="evenodd" d="M23.94 18.93a2.52 2.52 0 0 1 2.51 2.38V29a4.86 4.86 0 0 1 6.1 4.68 4.84 4.84 0 0 1-3.67 4.69V48h-2.47v-2.27H6.03V48H3.56v-9.65l-.11-.03a4.84 4.84 0 0 1-3.43-4.25l-.02-.2v-.18A4.84 4.84 0 0 1 6.08 29v-7.56a2.52 2.52 0 0 1 2.38-2.51h15.48zM41.39 0l.84.7.1.09a5.12 5.12 0 0 1 .83.93c.6.86.94 1.79.94 2.77s-.33 1.91-.94 2.78a6.22 6.22 0 0 1-.8.95l-.11.1-.11.08v1.21a5 5 0 0 1 1.96-1.07c.3-.1.6-.16.92-.2l.15-.02.19-.02h.1l1.09-.05.26 1.21a5.1 5.1 0 0 1 .07 1.23c-.04 1.06-.36 2-.96 2.77s-1.44 1.3-2.46 1.62c-.3.1-.61.16-.93.2l-.14.03-.25.02v5.14a5 5 0 0 1 1.96-1.07c.3-.1.6-.16.92-.2l.15-.02.23-.02 1.15-.05.25 1.16a15.37 15.37 0 0 1 .05.34c.04.31.05.63.03.94-.04 1.06-.36 2-.96 2.77s-1.44 1.3-2.46 1.62c-.3.09-.61.16-.93.2l-.14.03-.25.02v5.24a5 5 0 0 1 1.96-1.08c.3-.09.6-.16.92-.2l.15-.02.19-.02h.1l1.09-.04.26 1.2a5.1 5.1 0 0 1 .07 1.24c-.04 1.05-.36 2-.96 2.77s-1.44 1.3-2.46 1.61c-.3.1-.61.17-.93.21l-.14.02-.25.02v1.14H48l-2.57 9.58-8.04-.06-2.61-9.52h5.87v-3.7h-.3a5.31 5.31 0 0 1-1.22-.25 4.84 4.84 0 0 1-2.46-1.62 4.74 4.74 0 0 1-.96-2.77 6.02 6.02 0 0 1 .07-1.24l.03-.13.23-1.07 1.2.05h.04a5.08 5.08 0 0 1 1.21.24c.87.25 1.6.67 2.16 1.26v-4.83h-.16l-.14-.01a5.31 5.31 0 0 1-1.22-.25 4.84 4.84 0 0 1-2.46-1.61 4.74 4.74 0 0 1-.96-2.77 6.02 6.02 0 0 1 .07-1.25l.03-.13.23-1.06 1.2.04h.04a5.08 5.08 0 0 1 1.21.24c.87.26 1.6.68 2.16 1.27v-4.83l-.23-.01h-.07a5.31 5.31 0 0 1-1.22-.25 4.84 4.84 0 0 1-2.46-1.62 4.74 4.74 0 0 1-.96-2.77 6.02 6.02 0 0 1 .07-1.24l.03-.13.23-1.07 1.2.05h.04a5.08 5.08 0 0 1 1.21.24c.58.17 1.1.42 1.55.74a5.56 5.56 0 0 1-.42-.54c-.6-.87-.93-1.8-.93-2.77s.33-1.9.94-2.76c.18-.26.39-.5.6-.73l.1-.1.18-.16.88-.74zm3.39 40.74h-6.76l1.26 4.6 4.26.04 1.24-4.64zm-18.46-2.41H6.22l-.19.05v4.88h20.38v-4.9l-.09-.03zM23.94 21.4H8.6a.05.05 0 0 0-.05.02v9.15a4.81 4.81 0 0 1-.04 6.28h15.5a4.81 4.81 0 0 1-1.16-2.78v-.2l-.01-.18c0-1.19.43-2.27 1.14-3.12v-9.12a.05.05 0 0 0-.03-.04l-.02-.01zm-19.1 9.92h-.13a2.37 2.37 0 0 0 0 4.73h.28a2.37 2.37 0 0 0 2.21-2.08l.02-.14v-.14c0-1.26-.99-2.3-2.23-2.37h-.14zm22.86 0h-.14a2.37 2.37 0 0 0 0 4.73h.27a2.37 2.37 0 0 0 2.22-2.08l.02-.14v-.14c0-1.26-.99-2.3-2.24-2.37h-.13zm17.57.39h-.03l-.69.15a3.2 3.2 0 0 0-1.65 1.06c-.39.5-.6 1.12-.64 1.88v.47l.01.27.27-.04.23-.05.23-.07a3.28 3.28 0 0 0 1.67-1.08c.4-.5.6-1.12.63-1.86v-.47l-.02-.23v-.03zm-7.95-2.57v.03c-.03.24-.04.47-.03.7.03.74.24 1.37.63 1.87.4.5.95.85 1.68 1.08l.46.11.26.05.02-.27v-.48a3.27 3.27 0 0 0-.65-1.88 3.2 3.2 0 0 0-1.65-1.05c-.15-.05-.3-.08-.46-.11l-.23-.04h-.03zm-17.65-1.26A.99.99 0 0 1 20 29.8l-.1.03a1 1 0 0 1-.23.03h-.12a.99.99 0 0 1 .12-1.98zm-6.8 0H13a.99.99 0 0 1-.11 1.98.99.99 0 1 1 0-1.98zm32.4-7.13h-.03c-.23.04-.46.1-.69.16a3.2 3.2 0 0 0-1.65 1.05c-.39.5-.6 1.12-.64 1.88v.48l.01.27.27-.05.23-.05.23-.06a3.28 3.28 0 0 0 1.67-1.08c.4-.5.6-1.13.63-1.87v-.46l-.02-.24v-.03zm-7.95-1.97v.03c-.03.23-.04.46-.03.7.03.74.24 1.36.63 1.86.4.5.95.86 1.68 1.08.15.05.3.09.46.12l.26.04.02-.26v-.48a3.27 3.27 0 0 0-.65-1.88 3.2 3.2 0 0 0-1.65-1.06c-.15-.04-.3-.08-.46-.1l-.23-.05h-.03zm7.95-8.88h-.03c-.23.03-.46.08-.69.15a3.2 3.2 0 0 0-1.65 1.06 3.2 3.2 0 0 0-.64 1.87v.48l.01.27.27-.04.23-.06.23-.06a3.28 3.28 0 0 0 1.67-1.08c.4-.5.6-1.12.63-1.87v-.46l-.02-.23V9.9zm-7.95-1.48v.03c-.03.23-.04.46-.03.7.03.74.24 1.36.63 1.86.4.5.95.86 1.68 1.08.15.05.3.08.46.12l.26.04.02-.27v-.48a3.27 3.27 0 0 0-.65-1.87 3.2 3.2 0 0 0-1.65-1.06l-.46-.11-.23-.04h-.03zm4.08-6.35l-.03.03a4.6 4.6 0 0 0-.45.54 3.18 3.18 0 0 0-.65 1.85c0 .62.22 1.25.65 1.87l.3.38.18.2.18-.2.15-.18.14-.19c.43-.62.65-1.25.65-1.88a3.2 3.2 0 0 0-.65-1.86 4.44 4.44 0 0 0-.3-.36l-.17-.2z"/>
</svg>
