<svg xmlns="http://www.w3.org/2000/svg" width="48" height="48" aria-label="DealsTech icon" viewBox="0 0 48 48">
	<path fill-rule="evenodd" d="M45.04 7A2.95 2.95 0 0 1 48 9.94V31.2a2.95 2.95 0 0 1-2.96 2.95H32.1v3.75h3.46a.97.97 0 0 1 0 1.94h-8.95a.97.97 0 0 1-.97-.97c0-.53.43-.97.97-.97h3.54v-3.75h-8.38v2.9A2.95 2.95 0 0 1 18.82 40H8.34c-.21 0-.42-.02-.62-.06h.01a3 3 0 0 1-.5.04H2.96A2.95 2.95 0 0 1 0 37.03v-9.58a2.95 2.95 0 0 1 2.96-2.95h2.42v-3.25a2.95 2.95 0 0 1 2.96-2.94h5.84V9.94A2.95 2.95 0 0 1 17.14 7h27.9zM10.19 35.58v1.45c0 .39-.08.75-.2 1.09l.01-.06h8.82a1 1 0 0 0 1-1v-1.48H10.2zm-1.95 0h-6.3v1.45a1 1 0 0 0 1.02 1h4.27a1 1 0 0 0 1.01-1v-1.45zm5.36.7c.37 0 .66.26.66.58 0 .32-.3.58-.66.58-.37 0-.66-.26-.66-.58 0-.32.3-.58.66-.58zm-8.5-.05c.32 0 .58.26.58.59a.58.58 0 0 1-1.17 0c0-.33.26-.59.59-.59zm2.13-9.79H2.96a1 1 0 0 0-1.01 1v6.98h6.29v-6.97a1 1 0 0 0-1.01-1zm11.59-6.2H8.34c-.56 0-1.01.46-1.01 1.01v3.26h-.1a2.95 2.95 0 0 1 2.96 2.94v6.97h9.64V21.25c-.3-.67-.64-1-1.01-1zm27.23 8.36H21.78v3.61h23.26a1 1 0 0 0 1.01-1v-2.6zm-14.95.86a.94.94 0 1 1 0 1.87.94.94 0 0 1 0-1.87zM45.04 8.94h-27.9a1 1 0 0 0-1 1v8.37h2.68a2.95 2.95 0 0 1 2.96 2.94v6.2h24.27V9.96a1 1 0 0 0-1.01-1.01z"/>
</svg>
