<svg xmlns="http://www.w3.org/2000/svg" width="48" height="48" aria-label="DealsBeauty icon" viewBox="0 0 48 48">
	<path fill-rule="evenodd" d="M45.48 0C46.9 0 48 1.1 48 2.51v.19l-2.73 36.78a2.64 2.64 0 0 1-1.98 2.2v5.12a1.2 1.2 0 0 1-1.22 1.2l-7.98-.1a1.2 1.2 0 0 1-1.19-1.2v-5.05a2.69 2.69 0 0 1-1.89-2.25L28.3 2.76c-.18-1.43.86-2.58 2.26-2.75l.15-.01zM9.61 7.95v6.9h.98c.6 0 1.08.46 1.15 1.04v12.66h.98c.6 0 1.1.45 1.15 1.03l.01.13V46.8c0 .64-.52 1.16-1.17 1.15l-11.56-.1C.5 47.85 0 47.33 0 46.7v-17c0-.63.52-1.15 1.16-1.15h.98V16.01c0-.6.45-1.08 1.03-1.15h1.19v-4.29l5.25-2.62zm12.45-3.17c.33 0 .6.24.64.56v1.48h.23a.65.65 0 0 1 .09 1.3h-.31v.44H24a.65.65 0 0 1 .09 1.3H22.7v.36h1.88a.65.65 0 0 1 .1 1.29H22.7v.45H24a.65.65 0 0 1 .09 1.3H22.7v.45h.23a.65.65 0 0 1 .09 1.3h-.31v13.61h2.94c.56 0 1.02.42 1.08.97V46.8c0 .6-.49 1.09-1.1 1.08l-7.19-.1c-.59 0-1.06-.49-1.06-1.08v-17c0-.6.48-1.08 1.08-1.08h2.95v-13.6h-.33a.65.65 0 0 1-.08-1.3h.4v-.46h-1.29a.65.65 0 0 1-.09-1.29h1.38v-.45h-1.77a.65.65 0 0 1-.1-1.3h1.87v-.35h-1.29a.65.65 0 0 1-.09-1.3h1.38v-.45h-.32a.65.65 0 0 1-.08-1.3h.4v-1.4c0-.35.3-.64.66-.64zm2.5 26h-5.02v14.85l5.03.07V30.79zm-13 .08H2.32v14.7l9.26.07V30.86zm29.32 10.92H35.3v3.73l5.57.07v-3.8zM30.79 2.31h-.01c-.15.04-.2.1-.18.22l2.71 36.63c.02.14.15.27.22.27h.24a.97.97 0 0 1 .34-.05h7.97c.12 0 .23.01.34.05h.34c.07 0 .2-.13.2-.2L45.7 2.61v-.1c0-.13-.07-.2-.2-.2H30.8zM9.43 17.17H4.45v11.38h4.98V17.17z"/>
</svg>
