<svg xmlns="http://www.w3.org/2000/svg" width="48" height="48" aria-label="DealsTop icon" viewBox="0 0 48 48">
	<path fill-rule="evenodd" d="M37.9 0L44 9.65 33.87 25.73a13.01 13.01 0 0 1 3.82 9.24A13 13 0 0 1 24.7 48a13.01 13.01 0 0 1-12.99-13.03c0-3.5 1.37-6.67 3.6-9L5 9.64l6.1-9.6v.02h26.77L37.9 0zM24.7 24.35a10.6 10.6 0 0 0-10.58 10.62A10.6 10.6 0 0 0 24.7 45.59a10.6 10.6 0 0 0 10.6-10.62 10.6 10.6 0 0 0-10.6-10.62zm.05 2.75l2.32 4.71 5.19.76-3.76 3.67.89 5.18-4.64-2.45-4.64 2.45.89-5.18-3.75-3.67 5.18-.76 2.32-4.71zM11.1 4.62L7.9 9.69l9.3 14.64c1.4-1 3-1.72 4.73-2.1L11.1 4.62zm26.93 0L27.2 22.17A12.9 12.9 0 0 1 32 24.2l9.14-14.5-3.13-5.07zm-5.7 4.72H16.78l7.73 12.6h.28l7.53-12.6zm4.1-6.86H12.58l2.72 4.44h18.47l2.65-4.44z"/>
</svg>
