<svg xmlns="http://www.w3.org/2000/svg" width="216" height="34" aria-label="Clickhole logo" viewBox="0 0 216 34">
	<path fill="#FF6F0F" fill-rule="evenodd" d="M161.4.02c4.53.23 8.66 2.2 11.67 5.57a17 17 0 0 1 4.32 12.25 16.9 16.9 0 0 1-17.56 16.14h-.04a16.94 16.94 0 0 1-15.94-17.82A16.9 16.9 0 0 1 161.4.02zM16.43.39c2.6 0 5 .58 7.39 1.59v9.82a8.74 8.74 0 0 0-7.1-3.47c-4.95 0-8.3 3.85-8.3 8.74 0 4.97 3.39 8.56 8.42 8.56 2.65 0 5.29-1.3 6.98-3.34v9.82c-2.68.84-4.62 1.46-7.14 1.46a17.3 17.3 0 0 1-11.7-4.63C1.58 25.8 0 21.7 0 17.02c0-4.3 1.61-8.44 4.58-11.53A16.76 16.76 0 0 1 16.43.39zm57.34 0c2.6 0 5 .58 7.4 1.59v9.82a8.75 8.75 0 0 0-7.1-3.47c-4.96 0-8.3 3.85-8.3 8.74 0 4.97 3.38 8.56 8.42 8.56 2.64 0 5.28-1.3 6.97-3.34v9.82c-2.68.84-4.63 1.46-7.14 1.46-4.34 0-8.46-1.67-11.69-4.63-3.42-3.14-5-7.24-5-11.92 0-4.3 1.6-8.44 4.58-11.53A16.8 16.8 0 0 1 73.77.39zM216 .97v7.2h-9.62v5.26h9.12v6.94h-9.12v5.43H216v7.23h-17.7V.97H216zm-29.64 0V25.8h9.7v7.23h-17.79V.97h8.1zm-63.3.26v12.16h11.69V1.23h8.1v31.8h-8.1v-13.2h-11.68v13.2h-8.1V1.23h8.1zM34.85.97V25.8h9.7v7.23h-17.8V.97h8.1zm20.02 0v32.06h-8.1V.97h8.1zm37.32.26v13h.09l9.78-13h10.03L99.7 16.15l13.5 16.88h-10.49L92.28 19.07h-.09v13.96h-8.1V1.23h8.1zm54.67 15.1c-.4 8.4 5.83 14.75 13.04 15.27h.04c8.27.4 15.3-5.4 15.74-13.75-.16.46-.33.92-.51 1.37a14.56 14.56 0 0 1-7.38 8.29c-1.73.93-4.46 1.82-6.75 1.7a11.6 11.6 0 0 1-3.28-.53c-2.95-.93-5.9-2.85-7.42-6.14a12.52 12.52 0 0 1 5.7-16.56 11.5 11.5 0 0 1 9.39-.62 11.13 11.13 0 0 1 5.79 4.81c.13-1.14.12-2.4-.07-3.77-2.55-2.53-6.21-3.8-9.81-3.97-7.03-.44-14.06 5.5-14.48 13.9zm9.88-8.99c-5.15 2.55-7.19 9.52-4.5 14.65a9.84 9.84 0 0 0 6 4.88c3.79 1.23 6.56.44 8.8-.76 4.23-2.25 5.5-4.55 6.73-7.15.67-1.4 1.37-3.72 1.34-6.06v-.04a14.67 14.67 0 0 1-5.12 9.18c-1 .83-1.83 1.6-4.11 2.38-1.41.49-2.9.84-4.34.78l-.01-.02c-3.45-.16-6.11-1.38-7.48-4.06-1.01-1.97-.96-4.75-.36-6.9a7.85 7.85 0 0 1 4.44-5.1 8.34 8.34 0 0 1 8.16.61 7.68 7.68 0 0 1 3.4 4.9c.42-.67.78-1.43 1.06-2.28a11.48 11.48 0 0 0-5.9-5.52 9.8 9.8 0 0 0-8.1.51zm1.67 3.14a7.05 7.05 0 0 0-3.52 4.22 8.05 8.05 0 0 0 .37 5.9c1.46 2.77 5.52 4.21 10.02 2.81 1.88-.58 2.95-1.49 3.94-2.3 3.83-3.16 4.74-8.16 4.52-11.28v-.01c-.1 3-1.36 6.79-4.41 9.4a13.25 13.25 0 0 1-3.91 2.35 8.59 8.59 0 0 1-3.46.62c-1.8-.08-3.77-1-4.87-2.98a5.5 5.5 0 0 1-.23-4.28 5.39 5.39 0 0 1 2.69-3.24 5.72 5.72 0 0 1 6.06.73 5.82 5.82 0 0 1 1.8 4.7 8.5 8.5 0 0 0 1.53-1.43 7.53 7.53 0 0 0-3.27-5.18c-1.8-1.22-4.9-1.3-7.26-.03zm13.63-3.09v.03c.57 3.62-.97 9.62-6.58 11.63a9.7 9.7 0 0 1-2.8.52c-1.09-.06-2.07-.43-2.59-1.47a3.76 3.76 0 0 1-.11-2.31c.22-.68.96-1.74 2.46-1.8 1.2-.06 2.15.5 2.57 1.24.76 1.35.17 2.96.17 2.96l-.02.01c.48-.1.98-.3 1.48-.57l.03-.17a4.86 4.86 0 0 0-1.5-4.5c-1.41-1.21-3.33-1.27-5.1-.5a4.09 4.09 0 0 0-2.2 2.6 4.5 4.5 0 0 0 .3 3.64c1.91 3.28 5.83 2.48 7.01 2.01a11.97 11.97 0 0 0 7.67-12.27c-.24-.35-.5-.7-.79-1.05zm-10.24 7.52c-.48.19-.9.68-1.02 1.28-.17.86.02 1.4.44 1.85.46.51 1.73.8 3.22.4.27-1.1.47-1.8-.03-2.74a1.74 1.74 0 0 0-1.3-.93 2.7 2.7 0 0 0-1.31.14z"/>
</svg>
