<svg xmlns="http://www.w3.org/2000/svg" width="206" height="48" aria-label="Jezebel logo" viewBox="0 0 206 48">
	<path fill="#EC1238" fill-rule="evenodd" d="M1.66 0H13v30.8c0 3.93-3.33 10.38-7.46 13.3A17.73 17.73 0 0 1 0 47l.01-2.4c1.13-1.12 1.65-4.36 1.65-6.92V0zm18.35 0h23.47v9.07H31.3v3.45h11.88v6.65H31.3v3.71H44V32H20V0zm31.77 0h27.6c.03 1.4.07 6.84.07 6.84L67.1 23H80v9H51l.08-6.75L63.55 9.17H51.78V0zM181 0h11.08l.05 22.76 13.87-.04V32h-25V0zm-64 0h11.02c2.27 0 3.88-.01 5.75.22 2.37.3 5.24 2 6.55 3.34.9.92 2.59 3.48 2.32 5.72-.19 1.67-.83 3.75-3.26 6.01 4.56 2.65 4.62 6.89 4.62 6.82 0 7.59-7.12 9.83-10.86 9.83-3.9 0-16.12.06-16.12.06L117 0zm13.56 8a2.35 2.35 0 0 1 2.44 2.35c-.06 1.2-.3 2.13-1.25 2.43-.48.32-2 .2-2.75.18V8l1.56-.01zm-.17 10.03c2.01 0 3.61.94 3.61 2 0 2.9-1.6 2.97-5 2.97v-5c.51 0 .97.03 1.4.03zM86 0h23.48v9.07H97.3v3.45h11.88v6.65H97.3v3.71H110V32H86V0zm64 0h23.48v9.07H161.3v3.45h11.88v6.65H161.3v3.71H174V32h-24V0z"/>
</svg>
