<svg xmlns="http://www.w3.org/2000/svg" width="243" height="36" aria-label="Combined Shape" viewBox="0 0 243 36">
	<path d="M12.2.8h22.1l-5 9.3c-.7 1.1-2.4 2.6-5.7 2.7-3.3 0-11.3-.2-16.2 0-5 .1-7.2 2.8-7.2 2.8H14c2.2 0 4.2.3 5.8 2.7 2.2 3.6 9.6 17 9.6 17h-10a6 6 0 0 1-5.7-3.4L6.5 20a9 9 0 0 0-4.3-3.7c-1.3-.4-2.2-.5-2.2-.5v-.2L7 4.2C7.9 2.3 9.3.8 12.2.7zM80.4 10v11.6c0 3.2-2 4.7-4.8 4.7-1.3 0-2.4-.4-3.4-1.3l1-2.1a3 3 0 0 0 2.2 1c1.4 0 2.3-.9 2.3-2.4V10h2.7zm70.4-.3c4 0 6.4 3.6 6.4 8.3 0 4.7-2.4 8.3-6.4 8.3-4.1 0-6.5-3.6-6.5-8.3 0-4.7 2.4-8.3 6.5-8.3zm-48.4.3l3.5 12.8 3.5-12.8h2.9l-4.8 16h-3.2l-4.8-16h2.9zm-59 0v7.7l5-7.7h3.1l-5.2 7.6 5.6 8.4h-3.1l-4.2-6.6-1.2 1.8V26h-2.6V10h2.6zm12.9 0v16h-2.7V10h2.7zm130.5 0c2.7 0 4.1 1.8 4.1 4 0 2-1 3.4-2.5 3.7 1.6.3 2.8 2 2.8 4 0 2.5-1.4 4.3-4.2 4.3h-6.3V10zM62 10l5.8 10.5V10h2.7v16H68l-6-10.8V26h-2.7V10H62zm163 0c2.7 0 4.7 2 4.7 5 0 2.7-1.6 4.1-3 4.5l3 6.5h-2.9l-2.7-6h-2v6h-2.7V10zm-12 0l4.8 16H215l-.9-3.2h-5.3L208 26h-2.8l4.8-16h3.1zM89.5 10l4.8 16h-2.9l-.8-3.2h-5.3l-1 3.2h-2.8l4.8-16h3.2zm109.7 0c2.8 0 4.7 2 4.7 5 0 2.7-1.5 4.1-3 4.5L204 26h-3l-2.7-6h-2v6h-2.6V10zm-21.5 0v16H175V10h2.7zm-61.2 0v16h-2.6V10h2.6zm50.8 0v13.7h5.6V26h-8.3V10h2.7zm-43 0c4.4 0 6.8 3.4 6.8 8 0 4.7-2.4 8-6.7 8h-4.8V10zm18 0v2.3h-6v4.4h5.9V19h-6v4.7h6.2V26h-8.8V10h8.8zm91 0l3.4 6.8 3.4-6.8h2.9l-5 9.3V26h-2.6v-6.7l-5-9.3h3zm-82.5 2c-2.4 0-3.8 2.6-3.8 6 0 3.3 1.4 6 3.8 6s3.7-2.7 3.7-6c0-3.4-1.3-6-3.7-6zm35.5 7h-3v4.7h3c1.4 0 2.2-.9 2.2-2.4 0-1.3-.7-2.3-2.2-2.3zm-62-6.7h-2v11.4h2c2.7 0 4.1-2.4 4.1-5.7 0-3.4-1.4-5.7-4-5.7zm-36.4.5l-2.1 7.7H90l-2-7.7zm123.6 0l-2.2 7.7h4.3l-2.1-7.7zm-12.7-.5h-2.5v5.3h2.5c1.5 0 2.4-1 2.4-2.6s-1-2.7-2.4-2.7zm25.8 0H222v5.3h2.5c1.4 0 2.3-1 2.3-2.6s-.9-2.7-2.3-2.7zm-38.4 0h-2.8v4.4h2.8c1.4 0 2-1 2-2.2 0-1.2-.6-2.2-2-2.2z"/>
</svg>
