<svg xmlns="http://www.w3.org/2000/svg" width="140" height="44" aria-label="TheTakeout logo" viewBox="0 0 140 44">
	<g fill="none" fill-rule="evenodd">
		<path fill="#E5371A" d="M29.85 35.57l.22 1.17h-5.54l-1.08 6.04c-.07.33-.24.53-.53.57l-.12.01h-4.28c-.4 0-.61-.21-.55-.6l.02-.1.1-.47h2.9c.32 0 .52-.16.61-.46l.03-.12 1.08-6.04h7.14zM78 37.85h1.18c.45 0 .62.18.65.56v4.28c0 .39-.13.63-.53.67H64.17c-.34 0-.57-.2-.6-.56l-.01-.1v-.52h13.79c.44 0 .62-.21.64-.57v-3.76h1.2zm18.45-27.07l.2.08c1.95.8 3 2.54 3.07 5.16V37.4c0 3.79-1.94 5.85-5.62 5.94h-4.84c-1.95 0-3.44-.54-4.43-1.58.65.23 1.4.37 2.23.4H92c3.76 0 5.8-1.95 5.89-5.66V15.13c0-1.8-.44-3.2-1.29-4.18l-.15-.17zm-66.33-.45h1.02c.33 0 .56.13.66.45l.03.12v.01l6.77 31.31c.08.42-.06.65-.46.69H33.7c-.33 0-.53-.16-.62-.45l-.04-.12-.1-.6h3.24c.46 0 .63-.2.59-.58l-.02-.1-6.64-30.73h1.02zm27.32 0h1.36c.58 0 .83.35.62.87l-.04.1-7 14.21-.01.01 7.45 16.45c.27.5.07.88-.5.93h-4.48c-.44 0-.72-.16-.9-.5l-.04-.11-.24-.55h3.7c.6 0 .86-.35.66-.84l-.05-.1-7.45-16.44 6.92-14.03h1.36zm61.76 0c.41 0 .75.31.8.72l.01.1v25.9c0 3.73-1.94 5.76-5.6 5.85h-4.8c-1.95 0-3.43-.53-4.41-1.55.64.23 1.38.36 2.22.4h4.91c3.73 0 5.76-1.95 5.85-5.6V10.32h1.02zm-102.69 0h1.17c.4 0 .61.2.65.54v4.18c0 .37-.17.6-.53.65H13v26.55c0 .4-.17.61-.53.65H8.16c-.37 0-.6-.17-.64-.53v-.62h3.02c.4 0 .6-.17.64-.55V14.55h4.69c.4 0 .6-.2.64-.55v-3.67h1.17zm30.6 18.82l1.08 2.56-.77 1.45v8.93c0 .48-.24.76-.7.8l-.11.01h-3.88c-.48 0-.77-.24-.8-.69l-.01-.12v-.33h2.87c.5 0 .77-.24.8-.7l.01-.11v-8.93l1.5-2.87zm91.72-18.82c.44 0 .64.24.64.65v4.07c0 .4-.2.65-.63.65h-4.65v26.55c0 .45-.2.65-.64.65h-4.17c-.4 0-.64-.2-.64-.65v-.5h3.01c.44 0 .64-.2.64-.65V14.55h4.66c.44 0 .64-.25.64-.65v-3.57zm-50.18 4.11h2.3c.8 0 1.32.35 1.5 1l.04.15h-2.05c-.97 0-1.52.51-1.58 1.46V36l.01.33.03.15h-.25c-.97 0-1.52-.48-1.58-1.46V16.07c0-1 .5-1.56 1.42-1.62h2.46zm-13.3 9.64h1.16c.36 0 .58.2.62.57v4.12c0 .4-.19.64-.52.68h-7.65v7.03h-1.78V28.3h7.54c.36 0 .58-.2.62-.57v-3.66h1.17zm33.06-13.77a.8.8 0 0 1 .78.82V36c0 .17 0 .33.03.48H109c-1.03 0-1.57-.54-1.57-1.64V10.3zm-82.04 6.43l1.02 5.58-1.58 8.65h-2.04l2.6-14.23zm19.1-6.43h1.02c.48 0 .75.24.79.7v7.91h.01l-1.81 3.78V10.31h1zm33.71 0c.45-.01.62.19.65.54v4.17c0 .37-.13.64-.53.69H69v6.98h-1.83v-8.13h10.18c.45 0 .62-.24.65-.6v-3.65h1.18v-.01zm-73.5 4.6v1.37H2.73c-.38 0-.62-.25-.66-.66v-.72h3.61zm117.57-.01h3.62v1.38h-2.95c-.42 0-.67-.3-.67-.78v-.6zm-26.8-4.12h-.01v-.01l.01.01z"/>
		<path fill="#F9DB5D" fill-rule="nonzero" d="M15.62 10.3H.65c-.4 0-.65.24-.65.64v4c0 .4.24.64.65.64h4.72v26.09c0 .44.24.64.65.64h4.23c.45 0 .65-.2.65-.64V15.58h4.72c.44 0 .65-.24.65-.64v-4c0-.4-.2-.64-.65-.64zm10.35 7l1 5.48 1.57 8.49H23.4l2.57-13.97zm10.16 24.33l-6.54-30.2-.13-.57c-.08-.4-.32-.56-.68-.56H23.2c-.36 0-.6.16-.68.56l-6.67 30.77c-.12.43.08.67.52.67h4.3c.36 0 .56-.2.64-.56l1.09-5.84h7.15l.21 1.14.91 4.7c.08.37.28.57.64.57h4.25c.48 0 .65-.25.57-.68zm21.6-.24l-7.34-16.17 6.8-13.79.09-.17c.28-.56.04-.96-.57-.96h-4.25c-.44 0-.73.2-.93.6l-4.42 8.92-1.82 3.68V11.1c0-.52-.29-.8-.81-.8h-3.9c-.53 0-.81.28-.81.8v30.4c0 .53.28.8.81.8h3.89c.53 0 .81-.27.81-.8v-8.84l1.5-2.83 1.09 2.52 4.01 9.36c.16.4.45.6.93.6h4.3c.65 0 .89-.4.6-.92h.02zM77.06 10.3H62.07c-.37 0-.61.24-.61.64v30.73c0 .4.24.64.61.64h15c.5 0 .65-.24.65-.64v-4c0-.44-.16-.64-.65-.64H66.9v-8.08h7.78c.41 0 .65-.25.65-.69V24.3c0-.44-.24-.68-.65-.68H66.9v-8h10.18c.5 0 .65-.27.65-.67v-4c0-.4-.16-.65-.65-.65zm11.32 26.85c-1.06 0-1.63-.52-1.63-1.6V17.06c0-1.04.58-1.6 1.64-1.6h2.36c.88 0 1.43.4 1.58 1.13.03.15.05.3.05.47v18.49c0 1.08-.57 1.6-1.63 1.6h-2.37zm7.79-25.32c-.98-1-2.47-1.53-4.4-1.53H87.2c-3.82 0-5.86 2-5.86 5.77v20.48c0 2.8 1.13 4.62 3.28 5.37.75.26 1.6.4 2.58.4h4.56c3.83 0 5.86-2 5.86-5.76v-20.5c0-1.84-.49-3.26-1.44-4.23h-.02zm20.52-1.53h-3.74a.8.8 0 0 0-.8.8v24.33c0 1.08-.58 1.6-1.63 1.6h-2.1c-1.07 0-1.63-.52-1.63-1.6V11.1a.8.8 0 0 0-.81-.8h-3.9a.81.81 0 0 0-.82.8v25.44c0 2.8 1.12 4.63 3.27 5.38.74.26 1.6.4 2.58.4h4.56c3.82 0 5.86-2 5.86-5.76V11.12a.8.8 0 0 0-.82-.8l-.02-.02zm20.07.02h-14.97c-.4 0-.65.24-.65.64v4c0 .4.24.64.65.64h4.72v26.07c0 .44.24.64.65.64h4.23c.45 0 .65-.2.65-.64V15.58h4.72c.45 0 .65-.24.65-.64v-4c0-.4-.2-.64-.65-.64v.02z"/>
		<path fill="#FFF" fill-rule="nonzero" d="M41.03 40.84c-.12 0-.22-.09-.22-.2v-29.1c0-.1.1-.19.22-.19.13 0 .23.09.23.2v29.1c0 .1-.1.19-.23.19m21.68 0a.2.2 0 0 1-.2-.2V13.27s-.06-.67.45-1.21c.43-.46 1.13-.7 2.07-.7.1 0 .2.1.2.2s-.09.19-.2.19c-.82 0-1.42.19-1.77.56-.39.43-.34.94-.33.94v27.41c0 .1-.1.2-.2.2m65.15 0c-.12 0-.22-.1-.22-.2V17c0-.1.1-.19.22-.19.13 0 .23.09.23.2v23.65c0 .1-.1.19-.23.19m-110.37 0h-.04a.19.19 0 0 1-.15-.23c.06-.26 5.58-26.11 5.81-27.3.01-.02.4-1.94 2.59-1.95.1.01.2.09.2.2 0 .1-.1.18-.2.18h-.03a2.09 2.09 0 0 0-2.18 1.64c-.23 1.2-5.75 27.05-5.8 27.31a.2.2 0 0 1-.2.15M6.7 41.3c-.13 0-.23-.08-.23-.19V17c0-.11.1-.2.23-.2.12 0 .22.09.22.2v24.1c0 .1-.1.2-.22.2M1.26 14.07c-.12 0-.23-.09-.23-.2v-2.33c0-.11.1-.2.23-.2s.22.09.22.2v2.32c0 .1-.1.19-.22.19m121.65 0c-.12 0-.22-.09-.22-.2v-2.33c0-.11.1-.2.22-.2.13 0 .23.09.23.2v2.34c0 .1-.1.19-.23.19M86.81 40.8c-1.14 0-2.39-.1-3.28-1-.73-.76-1.1-1.92-1.1-3.56V15.9c.02-4.52 2.86-4.54 4.73-4.55h.51c.1 0 .2.07.2.18a.2.2 0 0 1-.18.2h-.52c-1.83.01-4.35.03-4.36 4.17v20.35c0 1.53.33 2.61.99 3.3.83.85 2.08.9 3.2.9.09 0 .17.08.17.18 0 .1-.08.2-.18.2h-.17m20.58 0c-1.2 0-2.52-.12-3.45-1.03-.77-.75-1.15-1.91-1.16-3.55v-24.7a.2.2 0 0 1 .39 0v24.71c0 1.54.34 2.61 1.04 3.29.88.85 2.2.9 3.36.9.1 0 .2.09.2.19s-.1.18-.2.18h-.18"/>
		<path fill="#174066" d="M61.07 1.05h-1.18c-.09 0-.15-.07-.15-.16V.17c0-.1.06-.17.15-.17h3.37c.1 0 .15.08.15.17v.72c0 .09-.06.16-.14.16H62.1V6c0 .09-.07.17-.15.17h-.72c-.07 0-.15-.07-.15-.16V1.05h-.01zm4.62-.88c0-.1.07-.17.15-.17h.72c.09 0 .15.08.15.17V2.5h2.54V.17c0-.1.07-.17.15-.17h.72c.08 0 .15.08.15.17v5.82c0 .08-.07.16-.15.16h-.71c-.08 0-.15-.07-.15-.16V3.56h-2.54V6c0 .09-.06.16-.14.16h-.72c-.08 0-.15-.07-.15-.16V.17h-.02zm6.87 0c0-.1.06-.17.15-.17h3.35c.1 0 .16.08.16.17v.72c0 .09-.07.16-.16.16h-2.43V2.5h2.03c.08 0 .16.08.16.17v.74c0 .1-.08.17-.16.17h-2.03v1.54h2.43c.1 0 .16.08.16.17V6c0 .09-.06.17-.15.17h-3.35a.16.16 0 0 1-.16-.16V.17z"/>
		<path fill="#E5371A" d="M54.59 3.63H13.58c-.1 0-.19-.12-.19-.27 0-.15.08-.27.19-.27h41.01c.1 0 .2.12.2.27 0 .15-.08.27-.19.27m68.83 0H82.4c-.1 0-.18-.12-.18-.27 0-.15.09-.27.2-.27h41c.1 0 .18.12.18.27 0 .15-.08.27-.18.27"/>
	</g>
</svg>
