<svg xmlns="http://www.w3.org/2000/svg" width="24" height="24" aria-label="Label24 icon" viewBox="0 0 24 24">
	<path fill-rule="evenodd" d="M12.97 1h6.59a3.44 3.44 0 0 1 3.43 3.43l.01 6.59a3.6 3.6 0 0 1-1.04 2.54l-8.4 8.4a3.54 3.54 0 0 1-5.03 0l-6.5-6.5a3.56 3.56 0 0 1 0-5.02l8.41-8.4A3.55 3.55 0 0 1 12.97 1zm0 1.02a2.5 2.5 0 0 0-1.8.74l-8.41 8.4c-.99 1-.99 2.6 0 3.59l6.5 6.49a2.53 2.53 0 0 0 3.58 0l8.4-8.4c.48-.48.75-1.14.74-1.82V4.44a2.42 2.42 0 0 0-2.42-2.42zm3.15 3.3a2.56 2.56 0 1 1 0 5.12 2.56 2.56 0 0 1 0-5.13zm0 1a1.56 1.56 0 1 0 0 3.12 1.56 1.56 0 0 0 0-3.13z"/>
</svg>
