<svg xmlns="http://www.w3.org/2000/svg" width="18" height="18" aria-label="Label icon" viewBox="0 0 18 18">
	<path fill-rule="evenodd" d="M9.7 1h4.7A2.6 2.6 0 0 1 17 3.6v4.7c0 .71-.28 1.4-.78 1.91l-6.01 6a2.67 2.67 0 0 1-3.78 0l-4.65-4.64a2.68 2.68 0 0 1 0-3.78l6-6A2.7 2.7 0 0 1 9.7 1zm0 1c-.46 0-.89.17-1.2.5l-6.01 6a1.68 1.68 0 0 0 0 2.37l4.64 4.64a1.67 1.67 0 0 0 2.37 0l6.01-6c.31-.32.5-.76.49-1.2V3.58A1.6 1.6 0 0 0 14.4 2H9.7zM12 4a2 2 0 1 1 0 4 2 2 0 0 1 0-4zm0 1a1 1 0 1 0 0 2 1 1 0 0 0 0-2z"/>
</svg>
