<svg xmlns="http://www.w3.org/2000/svg" width="64" height="64" aria-label="Clickhole avatar" viewBox="0 0 64 64">
	<path d="M32.64 10.02c5.84.3 11.15 2.84 15.03 7.18a21.9 21.9 0 0 1 5.57 15.78C52.64 45 42.5 54.32 30.62 53.76h-.06c-11.91-.6-21.12-10.9-20.53-22.95.59-12.03 10.73-21.35 22.61-20.79zM13.91 31c-.53 10.83 7.5 19 16.8 19.69h.05c10.66.5 19.72-6.99 20.28-17.76-.21.62-.44 1.22-.67 1.81-1.57 3.9-3.68 7.55-9.52 10.67-2.23 1.2-5.75 2.34-8.69 2.2a14.8 14.8 0 0 1-4.24-.69c-3.8-1.19-7.6-3.66-9.56-7.9A16.1 16.1 0 0 1 25.7 17.7a14.84 14.84 0 0 1 12.1-.8 14.32 14.32 0 0 1 7.48 6.23c.18-1.48.17-3.11-.08-4.9-3.29-3.26-8-4.88-12.64-5.12-9.06-.56-18.12 7.1-18.65 17.9zm12.73-11.56C20 22.71 17.38 31.7 20.83 38.3c1.67 3.2 4.33 5.18 7.74 6.28 4.87 1.58 8.44.56 11.33-.97 5.45-2.9 7.07-5.86 8.67-9.22a18.93 18.93 0 0 0 1.72-7.85v-.04a18.94 18.94 0 0 1-6.6 11.83c-1.3 1.07-2.36 2.07-5.3 3.07a15.35 15.35 0 0 1-5.59 1c-4.44-.21-7.87-1.78-9.63-5.22-1.3-2.55-1.24-6.12-.47-8.89a10.12 10.12 0 0 1 5.72-6.58 10.74 10.74 0 0 1 10.52.8 9.9 9.9 0 0 1 4.39 6.31c.54-.86 1-1.84 1.35-2.94a14.78 14.78 0 0 0-7.6-7.11c-3.02-1.22-6.71-1.18-10.44.66zm2.14 4.02a9.06 9.06 0 0 0-4.53 5.45c-.74 2.43-.7 5.33.48 7.58 1.88 3.57 7.1 5.42 12.9 3.63 2.43-.75 3.8-1.93 5.07-2.97 4.92-4.06 6.1-10.46 5.83-14.49a16.93 16.93 0 0 1-5.68 12.08 16.97 16.97 0 0 1-5.03 3.04c-1.39.54-2.94.86-4.46.8a7.54 7.54 0 0 1-6.27-3.85c-.9-1.62-.9-3.7-.3-5.52a6.95 6.95 0 0 1 3.46-4.18 7.37 7.37 0 0 1 7.81.95c1.77 1.51 2.49 4.08 2.32 6.06.69-.5 1.36-1.12 1.97-1.85-.31-3.04-2.41-5.45-4.2-6.67-2.32-1.59-6.33-1.69-9.37-.06zm17.57-3.96l.02.16c.67 4.68-1.33 12.3-8.5 14.86-.8.3-2.6.73-3.6.68-1.42-.07-2.68-.55-3.35-1.89a4.87 4.87 0 0 1-.15-2.98A3.4 3.4 0 0 1 33.92 28c1.55-.06 2.78.64 3.32 1.6.98 1.74.22 3.82.22 3.82a7.59 7.59 0 0 0 1.9-.74 6.28 6.28 0 0 0-1.89-6.01c-1.82-1.57-4.29-1.64-6.57-.64a5.26 5.26 0 0 0-2.83 3.35 5.8 5.8 0 0 0 .38 4.68c2.46 4.22 7.51 3.19 9.04 2.6a15.4 15.4 0 0 0 9.88-15.8c-.32-.46-.66-.91-1.02-1.37zm-13.2 9.7c-.62.23-1.16.86-1.3 1.64-.22 1.1.03 1.79.56 2.38.59.65 2.22 1.01 4.15.5.36-1.41.62-2.3-.04-3.53a2.21 2.21 0 0 0-1.67-1.2 3.48 3.48 0 0 0-1.7.2z"/>
</svg>
