<svg xmlns="http://www.w3.org/2000/svg" width="64" height="64" aria-label="TheOnion avatar" viewBox="0 0 64 64">
	<path d="M29.45 41.81c2.78.49 11.66-1.57 14.68-12.18 3.08-10.91 1.5-8.73-7.43.55-4.83 5.03-8.63 11.4-7.25 11.63zm7.8 6.92c9.65-3.46 9.53-16.07 7.97-12.55-1.58 3.45-2.6 6.24-5.98 8.18-2.66 1.52-4.53 1.7-7.8 1.64-2.71-.06-5.2-2.3-5.98 1.09-.84 3.75 8.22 2.9 11.78 1.63zm-8.16-16.37c7.43-10.31 18.48-14 17.21-15.28-1.5-1.52-8.15.54-8.15.54-10.32 3.64-21.56 10.43-22.28 18.92-.24 2.48.48 7.15 3.62 9.1 2.17 1.33 5.92-8.2 9.6-13.28zm-7.24-9.1c4.1-3.03 12.02-5.51 10.32-5.45-5.73.18-17.39 4.9-17.93 12.18-.19 2.3 3.5-3.7 7.6-6.73zM11.7 50.66c-.66-.96 2-1.5 2.48-2.6 2.41-4.6-1.88-2.73-3.69-13.28C7 14.83 41 14.83 45.52 14.05c4.17-.73-.06-6.25 3.2-6.25 1.09 0 0 2.85 1.09 3.28 1.15.48 1.8-2.61 2.96-1.64 1.57 1.33-1.51 2.55-.67 3.4.6.6 2.06-.55 2.54.24.84 1.27-1.45 2.12-3.5 2.48-7.5 1.28 8.57 34.14-17.51 38.68-6.9 1.28-10.1-4.79-15.23-1.82-1.27.73-2.17 3.52-2.96 2.37-.48-.73.79-1.88 0-2.37-.54-.3-1.32 1.04-1.87.55-.42-.42.19-1.1-.24-1.64-.36-.54-1.2-.05-1.63-.66z"/>
</svg>
