<svg xmlns="http://www.w3.org/2000/svg" width="64" height="64" aria-label="TheRoot avatar" viewBox="0 0 64 64">
	<path d="M32.4 21.26c0-5.22-4.43-7.26-8.86-7.26H17v31.96h4V48H6v-1.1c0-.24.15-.32.18-.35a.64.64 0 0 1 .39-.15c3.8-.2 5.43-1.35 5.43-4.84v-23.9c0-5.6-6-5.22-6-5.22V11h18.46c.1 0 7.4-.12 11.39 3.7a8.38 8.38 0 0 1 2.53 6.26c0 3.55-1.85 5.92-5.83 7.5l-.39.15-.47.18.23.44.21.35a224.6 224.6 0 0 0 9.46 14.97c3.33 5.13 8.74 7.8 15.76 7.8h.8v1.32h-1.49c-9.96 0-15.31-1.18-20.34-8.33-2.85-4.07-8.02-11.69-9.57-14.65l-.09-.2-.12-.49H21v-2h1.5c3.33-.15 4.73-.27 4.73-.27 2.97-.88 5.17-2.4 5.17-6.47z"/>
</svg>
