<svg xmlns="http://www.w3.org/2000/svg" width="64" height="64" aria-label="TheTakeout avatar" viewBox="0 0 64 64">
	<path fill-rule="evenodd" d="M44.07 7c.62 0 .93.37.93.94v6.6c0 .34-.31.7-.93.95h-7.4v40.57c.08.63-.23.94-.93.94h-6.48c-.64 0-1.01-.31-.93-.94V15.49h-7.4c-.56-.24-.93-.61-.93-.94v-6.6c0-.58.37-.95.93-.95zM30.2 55.11c.35 0 .46-.13.92 0V17.38c-.46.13-.57 0-.92 0 .1 0 0 .13 0 0zM22.78 9.83h.03c.05.03-.03.1-.03 0zm7.4 45.28v-.03.03zm-7.4-41.5v-.04.03zm0-3.78v3.77c.36 0 .46-.12.92 0V9.83c-.46.12-.56 0-.92 0z"/>
</svg>
