<svg xmlns="http://www.w3.org/2000/svg" width="24" height="24" aria-label="Blog24 icon" viewBox="0 0 24 24">
	<path fill-rule="evenodd" d="M20.46 1C21.86 1 23 2.13 23 3.54v16.92c0 1.4-1.13 2.54-2.54 2.54H3.54A2.53 2.53 0 0 1 1 20.46V3.54C1 2.14 2.13 1 3.54 1zm1.52 5H2.02v14.46c0 .8.6 1.45 1.38 1.52h17.06c.85 0 1.52-.68 1.52-1.52V6zM6.93 16c.55 0 1 .41 1.06.95l.01.12v1.86c0 .55-.41 1-.95 1.06l-.12.01H5.07c-.55 0-1-.41-1.06-.95L4 18.93v-1.86c0-.55.41-1 .95-1.06l.12-.01h1.86zm-.47 1h-.92c-.3 0-.54.24-.54.54v.92c0 .3.24.54.54.54h.92c.3 0 .54-.24.54-.54v-.92c0-.3-.24-.54-.54-.54zm8.04 1a.5.5 0 0 1 .09 1H9.5a.5.5 0 0 1-.09-1h5.09zm5-2a.5.5 0 0 1 .09 1H9.5a.5.5 0 0 1-.09-1H19.5zM6.93 9c.55 0 1 .41 1.06.95l.01.12v1.86c0 .55-.41 1-.95 1.06l-.12.01H5.07c-.55 0-1-.41-1.06-.95L4 11.93v-1.86c0-.55.41-1 .95-1.06L5.07 9h1.86zm-.47 1h-.92c-.3 0-.54.24-.54.54v.92c0 .3.24.54.54.54h.92c.3 0 .54-.24.54-.54v-.92c0-.3-.24-.54-.54-.54zm8.04 1a.5.5 0 0 1 .09 1H9.5a.5.5 0 0 1-.09-1h5.09zm5-2a.5.5 0 0 1 .09 1H9.5a.5.5 0 0 1-.09-1H19.5zm.96-6.98H3.54c-.85 0-1.52.68-1.52 1.52V5h19.96V3.54c0-.8-.6-1.45-1.38-1.52h-.14z"/>
</svg>
