<svg xmlns="http://www.w3.org/2000/svg" width="18" height="18" aria-label="Blog icon" viewBox="0 0 18 18">
	<path fill-rule="evenodd" d="M17 14.5a2.5 2.5 0 0 1-2.5 2.5h-11A2.5 2.5 0 0 1 1 14.5v-11A2.5 2.5 0 0 1 3.5 1h11A2.5 2.5 0 0 1 17 3.5v11zM16 5H2v9.5c0 .83.67 1.5 1.5 1.5h11c.83 0 1.5-.67 1.5-1.5V5zm-1.5-3h-11C2.66 2 2 2.67 2 3.5V4h14v-.5c0-.83-.67-1.5-1.5-1.5zM5 12v1h1v-1H5zm-1 0a1 1 0 0 1 1-1h1a1 1 0 0 1 1 1v1a1 1 0 0 1-1 1H5a1 1 0 0 1-1-1v-1zm4.5 0a.5.5 0 1 1 0-1h5a.5.5 0 1 1 0 1h-5zm0 2a.5.5 0 1 1 0-1h3a.5.5 0 1 1 0 1h-3zM5 8v1h1V8H5zM4 8a1 1 0 0 1 1-1h1a1 1 0 0 1 1 1v1a1 1 0 0 1-1 1H5a1 1 0 0 1-1-1V8zm4.5 0a.5.5 0 0 1 0-1h5a.5.5 0 1 1 0 1h-5zm0 2a.5.5 0 0 1 0-1h3a.5.5 0 1 1 0 1h-3z"/>
</svg>
