<svg xmlns="http://www.w3.org/2000/svg" width="18" height="18" aria-label="UserAdd icon" viewBox="0 0 18 18">
	<path fill-rule="evenodd" d="M9.26 10.11c.1.06.6.27 1.58.67h.02c1.64.67 1.68.68 1.8.77a2.67 2.67 0 0 1 1.1 1.8 15.63 15.63 0 0 1 .2 1.72l.04.38a.5.5 0 0 1-.5.54L.5 16a.5.5 0 0 1-.5-.54 43.63 43.63 0 0 1 .24-2.16l.07-.3a2.7 2.7 0 0 1 1.02-1.45c.13-.09.6-.29 1.77-.76l.04-.02 1.68-.69a.53.53 0 0 1 .09-.03 26.25 26.25 0 0 1-.43-.64 8.94 8.94 0 0 1-.65-1.36 5.3 5.3 0 0 1 .5-4.66C5 2.4 5.7 2 7 2c1.23 0 2.01.44 2.68 1.4a5.3 5.3 0 0 1 .5 4.65 7.7 7.7 0 0 1-.85 1.64l-.04.07c-.09.13-.14.23-.18.27l.15.08zm3.7 4.88a42.52 42.52 0 0 0-.18-1.48 1.68 1.68 0 0 0-.7-1.14l-1.59-.66h-.02a20.14 20.14 0 0 1-1.94-.85c-.45-.23-.57-.61-.33-1.24l.24-.4.05-.07c.35-.55.5-.82.75-1.46a4.31 4.31 0 0 0-.39-3.73C8.37 3.27 7.9 3 7 3c-.95 0-1.35.23-1.86.96a4.31 4.31 0 0 0-.38 3.73c.33.85.47 1.09 1.03 1.88l.07.13c.21.61-.07 1.05-.64 1.3l-1.7.7-.04.01c-.86.35-1.55.64-1.57.66a1.68 1.68 0 0 0-.69 1.11A13.96 13.96 0 0 0 1.05 15l11.9-.01zM14.5 0c.28 0 .5.22.5.5V3h2.5a.5.5 0 1 1 0 1H15v2.5a.5.5 0 1 1-1 0V4h-2.5a.5.5 0 1 1 0-1H14V.5c0-.28.22-.5.5-.5z"/>
</svg>
