<svg xmlns="http://www.w3.org/2000/svg" width="18" height="18" aria-label="Users icon" viewBox="0 0 18 18">
	<path fill-rule="evenodd" d="M6.03 4c2.31 0 3.27 2.22 2.8 4.08-.05.23-.18.5-.37.84l-.1.18-.26.43-.08.15.92.43c.82.39 1.01.48 1.1.54a2 2 0 0 1 .76 1.07c.1.3.17.77.2 1.4l.06.87L1 14l.03-.53.02-.34a6 6 0 0 1 .2-1.4 2 2 0 0 1 .77-1.08c.08-.06.31-.17 1.07-.54h.01l.93-.46a6.4 6.4 0 0 0-.07-.15l-.24-.47-.07-.14c-.17-.34-.28-.6-.33-.8-.48-1.9.4-4.09 2.7-4.09zm7.2 2c1.8 0 2.54 1.8 2.19 3.3-.05.2-.14.4-.3.69l-.06.13-.2.34v.03a119.28 119.28 0 0 0 1.4.71c.3.23.47.5.6.9.08.24.12.6.15 1.1l.05.8h-5.34l.03-.53c.04-.8-.05-1.33-.23-1.74-.04-.08-.28-.5-.31-.64l-.1-.38.36-.18.13-.07-.02-.03-.17-.36-.05-.11a3.6 3.6 0 0 1-.25-.65C10.74 7.77 11.4 6 13.23 6zm0 1c-.98 0-1.39 1.08-1.15 2.08.02.08.08.24.18.46l.05.1.18.37a2 2 0 0 1 .13.32l.02.09a.82.82 0 0 1-.17.6l-.12.14.08.16c.2.45.31.99.32 1.68H16c-.03-.28-.06-.5-.1-.6-.06-.21-.12-.3-.24-.4l-.67-.33-.25-.12c-.43-.22-.5-.25-.55-.29-.32-.2-.53-.53-.34-1l.14-.28.19-.34.07-.12.2-.44C14.66 8.1 14.21 7 13.22 7zm-7.2-2C4.54 5 3.95 6.48 4.29 7.84c.03.12.12.33.26.61l.06.13.24.47c.1.2.15.3.17.4a.93.93 0 0 1-.43 1.03c-.07.04-.03.03-1.05.52l-.94.46a1 1 0 0 0-.4.58c-.06.17-.1.5-.14.96H10a4.66 4.66 0 0 0-.14-.96 1 1 0 0 0-.4-.58l-.03-.01-.91-.43c-.86-.4-.99-.46-1.07-.52-.38-.22-.63-.59-.4-1.11.03-.1.1-.2.19-.36l.25-.44.1-.15c.15-.28.25-.49.28-.6C8.2 6.52 7.54 5 6.03 5z"/>
</svg>
