<svg xmlns="http://www.w3.org/2000/svg" width="18" height="18" aria-label="UserAvatar icon" viewBox="0 0 18 18">
	<path fill-rule="evenodd" d="M14.5 1A2.5 2.5 0 0 1 17 3.5v11a2.5 2.5 0 0 1-2.5 2.5h-11A2.5 2.5 0 0 1 1 14.5v-11A2.5 2.5 0 0 1 3.5 1h11zm0 1h-11C2.66 2 2 2.67 2 3.5v11c0 .83.67 1.5 1.5 1.5h11c.83 0 1.5-.67 1.5-1.5v-11c0-.83-.67-1.5-1.5-1.5zM9 4c2.17 0 3.4 2.4 2.45 4.2-.36.68-.6 1.17-.73 1.5a89.65 89.65 0 0 1 1.24.44c.51.2.9.36 1.12.47.47.23.68.77.81 1.56A8.58 8.58 0 0 1 14 13.5a.5.5 0 0 1-.5.5l-9 .01a.5.5 0 0 1-.5-.5 8.33 8.33 0 0 1 .1-1.32c.13-.82.35-1.36.83-1.58.23-.1.64-.27 1.18-.47l.1-.04.96-.36-.65-1.58C5.75 6.25 6.86 4 9 4zm0 1C7.65 5 6.92 6.48 7.45 7.77a178.51 178.51 0 0 0 .85 2.05.5.5 0 0 1-.3.67 105.48 105.48 0 0 0-1.43.53l-.1.04c-.53.2-.92.36-1.13.45-.04.02-.17.35-.25.83l-.07.66h7.96a7.28 7.28 0 0 0-.07-.66c-.08-.48-.21-.8-.27-.84a13.9 13.9 0 0 0-1.04-.42l-.18-.07a66.38 66.38 0 0 0-1.43-.51c-.07-.02-.12-.06-.26-.19-.26-.34-.05-.92.84-2.58C11.18 6.57 10.38 5 9 5z"/>
</svg>
