<svg xmlns="http://www.w3.org/2000/svg" width="18" height="18" aria-label="User icon" viewBox="0 0 18 18">
	<path fill-rule="evenodd" d="M9 1c1.4 0 2.27.5 3.02 1.57a6.04 6.04 0 0 1 .57 5.3 8.82 8.82 0 0 1-.96 1.88l-.06.09-.21.33-.02.05.03.02.16.08.04.03c.11.06.7.31 1.84.77l.02.01c1.85.75 1.93.78 2.06.88a3 3 0 0 1 1.24 2.01 17.97 17.97 0 0 1 .23 1.99l.04.44a.5.5 0 0 1-.5.54L1.5 17a.5.5 0 0 1-.5-.54 50.27 50.27 0 0 1 .28-2.48 3 3 0 0 1 1.23-1.97c.13-.1.7-.34 2.01-.88l.06-.02 1.94-.8c.13-.05.16-.06.16-.1a37.57 37.57 0 0 1-.52-.78 9.75 9.75 0 0 1-.76-1.55c-.66-1.7-.4-3.9.56-5.3C6.75 1.44 7.53 1 9 1zm0 1c-1.12 0-1.6.28-2.2 1.14a5.05 5.05 0 0 0-.46 4.37c.39.99.56 1.28 1.2 2.2l.07.12c.23.66-.08 1.14-.7 1.4l-1.95.8-.06.03c-1 .4-1.78.74-1.81.76a2.01 2.01 0 0 0-.83 1.34A16.17 16.17 0 0 0 2.05 16l13.9-.01a50.3 50.3 0 0 0-.2-1.8 2.09 2.09 0 0 0-.84-1.37c-.02-.02-.57-.24-1.85-.76l-.03-.01a23.58 23.58 0 0 1-2.23-.98c-.48-.24-.6-.64-.35-1.31l.28-.46.06-.09a8 8 0 0 0 .87-1.7 5.05 5.05 0 0 0-.46-4.37A2.35 2.35 0 0 0 9 2z"/>
</svg>
