<svg xmlns="http://www.w3.org/2000/svg" width="18" height="18" aria-label="UserFilled icon" viewBox="0 0 18 18">
	<path fill-rule="evenodd" d="M11.28 10.23c.02.02.05.03.08-.06l.21-.33.06-.09c.44-.69.64-1.06.96-1.87.66-1.7.4-3.9-.57-5.3A3.32 3.32 0 0 0 9 1c-1.47 0-2.25.45-3.03 1.57a6.04 6.04 0 0 0-.56 5.3 10.24 10.24 0 0 0 1.27 2.35c0 .03-.03.04-.16.1l-1.94.79-.06.02c-1.3.54-1.88.78-2.01.88a3 3 0 0 0-1.23 1.97A52.5 52.5 0 0 0 1 16.46c-.03.3.2.54.49.54l15-.01a.5.5 0 0 0 .5-.54 50.52 50.52 0 0 0-.27-2.43l-.09-.39a3 3 0 0 0-1.15-1.62c-.13-.1-.21-.13-2.06-.88h-.02a30.86 30.86 0 0 1-2.16-.95l.03.05z"/>
</svg>
