<svg xmlns="http://www.w3.org/2000/svg" width="24" height="24" aria-label="Flame24 icon" viewBox="0 0 24 24">
	<path fill-rule="evenodd" d="M9.1 10.91a.5.5 0 0 1 .16-.17c-.12.08-.12.07-.13.1.03-.07.05-.18.1-.36l.13-.59.19-.75a19.2 19.2 0 0 1 1.51-4.05c1.18-2.25 2.78-4 4.92-5.04.41-.2.85.2.69.63-.9 2.34-.7 3.8 1.05 6.5.18.27 1.74 2.55 2.08 3.14a8.12 8.12 0 0 1 1.07 4.4c0 4.86-4.24 9.28-8.94 9.28C7.23 24 3 19.58 3 14.71 3 11.18 4.63 7.3 7.71 4.47a.5.5 0 0 1 .83.47c-.65 2.97-.59 4.86-.07 5.71.26.41.54.42.63.26zm-1.48.27c-.56-.92-.71-2.51-.37-4.8A13.07 13.07 0 0 0 4 14.7c0 4.34 3.8 8.3 7.93 8.3 4.14 0 7.94-3.96 7.94-8.29 0-1.67-.28-2.74-.94-3.9-.31-.54-1.85-2.79-2.05-3.1-1.6-2.45-2.04-4.1-1.55-6.13-1.4.96-2.51 2.3-3.38 3.97a18.15 18.15 0 0 0-1.61 4.57l-.14.59c-.14.58-.16.69-.29.79-.51.75-1.67.67-2.29-.32z"/>
</svg>
