<svg xmlns="http://www.w3.org/2000/svg" width="18" height="18" aria-label="VolumeMax icon" viewBox="0 0 18 18">
	<path fill-rule="evenodd" d="M9.46 1.61c.34.28.54.7.54 1.15v12.48a1.5 1.5 0 0 1-2.65.96L4.68 13H2.5A1.5 1.5 0 0 1 1 11.5v-5C1 5.67 1.67 5 2.5 5h2.18l2.67-3.2a1.5 1.5 0 0 1 2.11-.19zm-1.34.83L5.15 6H2.5a.5.5 0 0 0-.5.5v5c0 .28.22.5.5.5h2.65l2.97 3.56a.5.5 0 0 0 .88-.32V2.76a.5.5 0 0 0-.12-.32l-.06-.06-.07-.05a.5.5 0 0 0-.63.11zM11 3a6 6 0 1 1 0 12v-1a5 5 0 0 0 0-10V3zm0 2a4 4 0 1 1 0 8v-1a3 3 0 0 0 0-6V5zm0 2a2 2 0 1 1 0 4v-1a1 1 0 0 0 0-2V7z"/>
</svg>
