<svg xmlns="http://www.w3.org/2000/svg" width="18" height="18" aria-label="Dollar-circle icon" viewBox="0 0 18 18">
	<path fill-rule="evenodd" d="M9 18A9 9 0 1 1 9 0a9 9 0 0 1 0 18zm0-1A8 8 0 1 0 9 1a8 8 0 0 0 0 16zM9 1.93c.28 0 .5.22.5.5v.8c.96.12 1.82.63 2.39 1.36a.5.5 0 1 1-.8.61 2.55 2.55 0 0 0-1.59-.95v4.07l.88.48c1.11.69 1.7 1.5 1.7 2.74a2.9 2.9 0 0 1-2.58 2.91v.98a.5.5 0 1 1-1 0v-.95a3.5 3.5 0 0 1-2.45-1.2.5.5 0 0 1 .76-.65c.41.48.97.77 1.69.85V8.92C6.88 8.05 6.23 7.33 6.23 5.9c0-1.37.83-2.42 2.27-2.64v-.83c0-.28.22-.5.5-.5zm.5 7.52v3.99a1.9 1.9 0 0 0 1.57-1.9c0-.84-.37-1.37-1.2-1.88l-.37-.2zM7.23 5.9c0 .82.33 1.3 1.27 1.87v-3.5c-.84.19-1.27.8-1.27 1.63z"/>
</svg>
