<svg xmlns="http://www.w3.org/2000/svg" width="18" height="18" aria-label="Dollar icon" viewBox="0 0 18 18">
	<path fill-rule="evenodd" d="M9.5 1c.28 0 .5.22.5.5v1.02c1.13.11 2.14.7 2.8 1.56a.5.5 0 0 1-.79.6A3.08 3.08 0 0 0 10 3.54v4.89l1.06.58c1.28.79 1.94 1.72 1.94 3.13 0 1.8-1.28 3.09-3 3.33v1.04a.5.5 0 1 1-1 0V15.5a4.02 4.02 0 0 1-2.88-1.38.5.5 0 1 1 .76-.65A3 3 0 0 0 9 14.48V9.02c-1.9-1-2.65-1.83-2.65-3.47A2.9 2.9 0 0 1 9 2.54V1.5c0-.28.22-.5.5-.5zm.5 8.56v4.89c1.18-.23 2-1.1 2-2.32 0-1.01-.46-1.66-1.44-2.27l-.56-.3zM7.35 5.55c0 1.03.43 1.61 1.65 2.33V3.55c-1.09.2-1.65.95-1.65 2z"/>
</svg>
