<svg xmlns="http://www.w3.org/2000/svg" width="217" height="45" aria-label="Earther logo" viewBox="0 0 217 45">
	<path fill-rule="evenodd" d="M217 .43V45h-41.05v-7.51h33.54V.43H217zM41.4 0l14.4 32.25H47L35.85 6.57 38.77 0h2.63zM21.97.57V8H8.27v16.8h14.28v7.44H0V.57h21.97zm149.27 0V8H157.5v16.8h14.3v7.44h-22.54V.57h21.97zM70.6.57c6.96 0 12.23 4.17 12.23 10.9 0 6.57-5.27 10.93-12.23 10.93h-2.35v-7.2h2.4c2.3 0 3.8-1.5 3.8-3.73 0-2.21-1.5-3.7-3.79-3.7h-4.22v24.48H58.2V.57h-.02H70.6zm118.46 0c6.96 0 12.23 4.17 12.23 10.9 0 6.57-5.27 10.93-12.23 10.93h-2.35v-7.2h2.4c2.3 0 3.8-1.5 3.8-3.73 0-2.21-1.5-3.7-3.8-3.7h-4.22v24.48h-8.24V.57h-.01 12.42zM34.78 8.87l4.33 9.88-1.82 4.22h3.69l2.88 6.63h-9.45l-1.16 2.63h-8.88l10.4-23.36h.01zm68.35.96v22.4H94.9V9.83h8.24zM123.46.57v31.66h-8.24V.57h8.24zm19.8 0v31.66h-8.23V19.57h-9.75v-7.44H135V.57h8.25zM78.94 21.99l7.27 10.24H77l-5.8-7.96c2.95-.09 5.6-.9 7.74-2.28zm118.46 0l7.26 10.24h-9.2l-5.8-7.96c2.95-.09 5.6-.9 7.74-2.28zM18.03 12.37v6.91h-7.95v-6.9h7.95zm149.27 0v6.91h-7.95v-6.9h7.95zM112.64.57V8H85.39V.57h27.25z"/>
</svg>
