<svg xmlns="http://www.w3.org/2000/svg" width="241" height="44" aria-label="GOMedia logo" viewBox="0 0 241 44">
	<path fill-rule="evenodd" d="M43.82 0l-.46.94-2.6 5.29a17.4 17.4 0 0 1 5.49-.87C55.8 5.36 63 12.76 63 22.03a16.4 16.4 0 0 1-16.7 16.58c-7.71 0-13.79-4.66-15.93-11.25l-7.71 15.67-.48.97h-3.23l2.97-6.05c-1.58.4-3.25.62-5 .62-9.95 0-16.92-7-16.92-16.54 0-9.8 7.45-16.67 17.18-16.67 5.29 0 9.83 2.09 12.6 4.7l-5.15 6.05c-2-1.78-4.63-2.96-7.53-2.96a8.55 8.55 0 0 0-8.83 8.8c0 4.7 3.33 8.87 8.83 8.87 3.03 0 5.75-1.26 7.18-2.57v-2.78h-7.27V18.5H31.5L40.6 0h3.23zm185.65 6L241 38h-8.42l-1.88-5.85h-10.3L218.45 38H210l11.84-32h7.63zM203 6v32h-8V6h8zm-32.95 0C180.15 6 186 12.2 186 22.02c0 9.71-5.84 15.83-15.72 15.98H157V6h13.05zM148 6v7.5h-14.9v4.71h13.78v7.45H133.1v4.85h14.86V38H125V6h23zM86.98 6L98.5 22.45 109.98 6H116v32h-8.01V22.63l-8.02 11.21h-3.03l-8.01-11.21V38H81V6h5.98zm-40.74 7.21c-4.7 0-8.56 3.7-8.56 8.79 0 5.13 3.81 8.78 8.56 8.78 4.88 0 8.6-3.74 8.6-8.78-.04-5.22-3.95-8.79-8.6-8.79zm124.07.54h-5.2v16.5h5.2c4.9 0 7.28-3.98 7.28-8.27 0-4.29-2.34-8.23-7.28-8.23zm55.34 1.9l-3.2 9.49h6.27l-3.07-9.48z"/>
</svg>
