<svg xmlns="http://www.w3.org/2000/svg" width="203" height="40" aria-label="KinjaDeals logo" viewBox="0 0 203 40">
	<path fill-rule="evenodd" d="M4.36.8L7.55.48l-4.45 31H0L4.36.78zM6 19.7l5.87 11.8h3.44L9.45 19.7l8.7-9.42h-3.72L6 19.7zm14.73 11.8l3.13-22.13h3.06L23.8 31.5h-3.06zM27.93.51c.33.35.5.8.5 1.35.02.58-.2 1.15-.62 1.57-.41.42-.95.65-1.63.68a2.14 2.14 0 0 1-1.42-.56c-.35-.35-.54-.8-.54-1.35 0-.65.2-1.18.63-1.59.42-.4.96-.61 1.62-.61.6 0 1.09.17 1.43.51h.02zm21.22 9.8c.86.88 1.47 2.06 1.44 4.06-.01.47-.04 1.29-.12 1.83l-2.12 15.21h-3.07l2.13-15c.07-.5.11-.98.12-1.48 0-1.2-.1-1.94-.66-2.46a2.66 2.66 0 0 0-2.14-.84c-1.4 0-2.84.7-4.17 1.99-1.32 1.28-2.29 2.85-3.4 4.97l-1.8 12.8h-3.01L35.4 9.35h2.66l-.35 4.28a10.08 10.08 0 0 1 3-3.26 7.21 7.21 0 0 1 4.37-1.44c1.62 0 3.2.49 4.05 1.37h.01zm9.3 24.89a8.79 8.79 0 0 1-2.44 2.77c-.86.65-2.19 1.35-3.7 2.03l-1.02-2.54a15.63 15.63 0 0 0 2.8-1.63 5.87 5.87 0 0 0 1.6-2.13c.42-.9.74-2.11.96-3.64l2.93-20.74h3.06l-2.82 20.82a18.52 18.52 0 0 1-1.38 5.04l.01.02zM63.65.55c.35.34.52.79.52 1.35.02.58-.2 1.14-.6 1.55-.41.42-.95.65-1.64.69a2.15 2.15 0 0 1-1.42-.58c-.36-.34-.54-.8-.53-1.34A2.13 2.13 0 0 1 62.23 0c.62 0 1.1.17 1.45.51l-.02.03zm19.23 8.9c1.17.33 2.3.78 3.37 1.33L83.92 26.2c-.05.65-.08 1.07-.08 1.26 0 .63.11 1.1.33 1.41.22.32.64.6 1.1.8l-.97 2.3a3.75 3.75 0 0 1-2.56-1.22 3.53 3.53 0 0 1-.77-1.95c-.67.88-1.18 1.12-2.24 1.93a7.05 7.05 0 0 1-4.13 1.2c-2.49 0-4-.83-5.18-2.3-1.19-1.48-1.86-3.94-1.86-6.53 0-2.13.46-4.44 1.22-6.59.76-2.15 2.2-4.06 3.85-5.5 1.64-1.44 3.89-2.07 6.4-2.07 1.32 0 2.78.27 3.83.55l.02-.04zm-8.24 3.8a10.66 10.66 0 0 0-2.9 4.45c-.6 1.86-.9 3.47-.9 5.3 0 2.07.4 3.65 1.2 4.72.8 1.09 1.56 1.52 3.06 1.52 1.25 0 2.4-.48 3.42-1.25a10.82 10.82 0 0 0 2.63-3.05l1.82-12.44a8.24 8.24 0 0 0-3.88-.87c-1.96 0-3.17.4-4.45 1.65v-.03zm36.94-6.8c2.56 1.97 3.84 5.62 3.84 10.94 0 5.18-1.28 8.84-3.84 10.97a14.08 14.08 0 0 1-9.32 3.2h-6.7V3.5h5.85c4.22 0 7.61.99 10.17 2.95zM99.42 28.5h3.12c2.6 0 4.72-.8 6.34-2.4 1.62-1.6 2.43-4.5 2.43-8.71 0-2.96-.43-5.24-1.27-6.83a6.48 6.48 0 0 0-3.2-3.18 12.2 12.2 0 0 0-4.6-.8H99.4V28.5h.02zm35.26-21.9l.45-3.1h-15.15v28.06h15.48v-3.1h-11.62v-9.6h9.42v-3.1h-9.42V6.6h10.84zm20.28 17.91l2.11 7.05h4.06L152.2 3.5h-4.87l-8.97 28.06h3.9l2.12-7.05h10.6-.02zm-5.28-17.8l4.34 14.67h-8.73l4.39-14.66zm16.2-3.2v28.05h14.92l.44-3.38h-11.5V3.5h-3.85zm33.24 13.47a24.83 24.83 0 0 0-4.38-1.75c-1.68-.52-2.96-1-3.84-1.47a4.33 4.33 0 0 1-1.81-1.52 4.02 4.02 0 0 1-.49-2.06c0-1.3.47-2.3 1.42-2.97a6.07 6.07 0 0 1 3.62-1.02c1.12 0 2.23.2 3.27.59a10.3 10.3 0 0 1 3.03 1.94l2.19-2.45a13.15 13.15 0 0 0-3.86-2.46c-1.33-.53-2.93-.8-4.8-.8-1.7 0-3.22.31-4.56.94a7.44 7.44 0 0 0-3.13 2.6 6.65 6.65 0 0 0-1.12 3.8c0 2.08.67 3.74 2 4.96 1.32 1.21 3.42 2.27 6.29 3.13 1.62.48 2.86.98 3.72 1.47a4.7 4.7 0 0 1 1.8 1.65c.35.6.53 1.37.53 2.3a4.4 4.4 0 0 1-1.7 3.72 7.05 7.05 0 0 1-4.32 1.28c-2.8 0-5.2-.98-7.24-2.94l-2.24 2.49c2.47 2.4 5.63 3.62 9.51 3.62 2.06 0 3.83-.35 5.34-1.06a8.13 8.13 0 0 0 3.45-2.93 7.9 7.9 0 0 0 1.2-4.32 7.5 7.5 0 0 0-1.08-4.18 7.66 7.66 0 0 0-2.83-2.58l.03.02z"/>
</svg>
