<svg xmlns="http://www.w3.org/2000/svg" width="152" height="44" aria-label="Kinja logo" viewBox="0 0 152 44">
	<path fill-rule="evenodd" d="M42.24.02L35.7 11.26c-.85 1.46-2.5 4.03-6.99 3.94-4.07-.08-18.06-.2-19.93-.2-1.86-.01-4.89.58-6.66 2.14A8.3 8.3 0 0 0 .34 19.1h16.6c2.76 0 5.25.37 7.12 3.48A2589.5 2589.5 0 0 1 36.51 44h-13c-1.7 0-4.74-.13-6.92-4.05-1.98-3.56-7.78-13.76-8.72-15.38-.93-1.62-2.96-3.93-5.2-4.68-1.9-.63-2.67-.54-2.67-.54s.1-.12.19-.2c-.18 0-.21.08-.18.03l8.6-14.77c1.4-2.39 2.97-4.4 6.6-4.4 5.4-.02 27.03.01 27.03.01zM123.82 7v22.76c0 6.37-3.87 9.24-9.29 9.24a9.09 9.09 0 0 1-6.7-2.6l2.03-4.1a5.43 5.43 0 0 0 4.2 2.08c2.78 0 4.52-1.74 4.52-4.8V7h5.24zM51.18 7v15.13L61.04 7h6.08L56.84 21.85l11.08 16.58h-6.18l-8.1-12.96-2.46 3.63v9.33H46V7h5.18zm25.27 0v31.43h-5.19V7h5.19zm11.3 0l11.46 20.6V7h5.23v31.43h-5l-11.78-21.2v21.2h-5.18V7h5.28zm54.82 0L152 38.43h-5.6l-1.75-6.22h-10.37l-1.75 6.22h-5.6L136.35 7h6.22zm-3.1 5.56l-4.15 15.03h8.29l-4.15-15.03z"/>
</svg>
