<svg xmlns="http://www.w3.org/2000/svg" width="258" height="40" aria-label="TheInventory logo" viewBox="0 0 258 40">
	<path fill-rule="evenodd" d="M72.95 0v32.13h6.23V0H258v40h-17.52c.17-.08.22-.25.3-.44l3.74-9.75 6.26-16.3a44.4 44.4 0 0 0 1.83-5.44c-1.9 0-3.78-.01-5.67.01-.16 0-.4.22-.47.39-1.48 3.97-2.94 7.95-4.4 11.93l-.9 2.35a.83.83 0 0 1-.33-.42c-1.73-4.54-3.46-9.08-5.17-13.62-.18-.46-.39-.67-.94-.66-1.8.04-3.6.01-5.39.01l-.63.03c.08.24.13.41.2.57 2.95 7.36 5.9 14.7 8.83 22.07.12.29.11.68 0 .98-.49 1.43-1.04 2.85-1.57 4.28-.4 1.06-.78 2.12-1.13 3.2l-.26.81H65V0h7.95zm63.44 7.9c-4.22.83-7.04 3.38-8.56 7.34a14.36 14.36 0 0 0-.68 7.24c.33 2.36 1.2 4.48 2.82 6.25 2.62 2.87 6.04 3.86 9.8 3.83 2.92-.02 5.55-.96 7.75-2.9.97-.86 1.78-1.88 2.38-3.02l.17-.35-4.47-2.7c-.16.2-.27.37-.4.52-1.06 1.33-2.21 2.57-3.99 2.89-2.45.44-4.76.22-6.56-1.76a4.87 4.87 0 0 1-1.2-2.92l-.02-.26h16.72c.34 0 .67.06.69-.45.05-2.22.08-4.43-.68-6.57a10.3 10.3 0 0 0-4.44-5.62 12.87 12.87 0 0 0-9.33-1.52zm59.6.67a11.56 11.56 0 0 0-6.9 7.03 13.14 13.14 0 0 0-.62 6.85 11.4 11.4 0 0 0 4.36 7.5 12.58 12.58 0 0 0 8.04 2.6c.77-.05 1.54-.07 2.3-.18 2.77-.4 5.2-1.53 7.12-3.56 2.96-3.12 3.87-6.88 3.22-11.03a11.11 11.11 0 0 0-5.34-8.18A13.44 13.44 0 0 0 196 8.57zM177.5 4.22c-.5 0-.62.17-.6.63.03 1.03 0 2.06 0 3.15h-1.8c-.29 0-.5.05-.49.41v4.3c0 .3.13.43.43.42.42-.01.85.03 1.27 0 .49-.05.61.12.6.6-.01 3.92-.02 7.85.01 11.77.01 1 .1 2.04.35 3.01a4.45 4.45 0 0 0 2.94 3.34c2.03.7 4.1.62 6.18.29.32-.05.34-.26.34-.52v-4.68h-1.47c-1.5-.03-2.18-.64-2.2-2.11-.03-3.76-.02-7.52-.04-11.28 0-.35.13-.43.45-.43l2.13.01h1.09V7.99h-3.66c0-1.1-.02-2.13 0-3.16.02-.48-.15-.62-.63-.6-1.63.02-3.27.02-4.9 0zm-55.75 3.81c-.43 0-.63.11-.77.54-1.68 5.12-3.38 10.22-5.08 15.33-.05.16-.14.3-.24.54-.1-.19-.14-.28-.17-.38-1.72-5.16-3.45-10.31-5.15-15.48-.14-.43-.34-.55-.77-.55-1.9.02-3.81.01-5.72.01-.1 0-.18.02-.3.04l-.11.02 8.76 24.06c2.06 0 4.08-.02 6.1.02.48 0 .66-.18.8-.6l7.43-20.85.96-2.69c-2 0-3.87.02-5.74 0zm38.28 1.5l-.23.2V8.1h-6.07v24.06h5.4c.67 0 .67-.04.67-.76V19.1c0-.85.01-1.7.04-2.56.05-1.99 1.3-3.58 3.73-3.34 1.18.11 2.12.58 2.46 1.74.26.85.4 1.73.4 2.61.04 3.49.03 6.98.03 10.46v4.16h5.47c.6 0 .61-.04.61-.7 0-4.63.02-9.26-.01-13.89 0-1.3-.1-2.6-.25-3.9a6.45 6.45 0 0 0-4.67-5.57c-2.72-.68-5.3-.51-7.58 1.42zm-69.95.02a.57.57 0 0 1-.17.1l-.08.05V8.08H83.8v24.08h5.4c.67 0 .67-.04.67-.79 0-4.92-.06-9.84.02-14.76.06-3.5 3.2-4.05 5.22-2.95.27.14.5.4.7.67.65.92.7 2 .7 3.07v14.11l.02.43.02.22h5.41c.67 0 .67-.04.67-.75 0-4.85.02-9.7-.02-14.55 0-1.15-.14-2.31-.32-3.45a6.6 6.6 0 0 0-2-3.85c-2.48-2.38-7.82-2.45-10.19-.01zm132.05.3c0-.51-.03-.89 0-1.26.05-.45-.1-.6-.57-.6-1.65.03-3.3.03-4.95 0-.45 0-.59.12-.59.58.02 7.68.01 15.36.01 23.04l.02.34.01.17h6.07v-5.4c0-3.17 0-6.34.02-9.51 0-1.95.93-2.85 2.89-2.94.4-.02.8-.01 1.2 0h.61V8.04a5.32 5.32 0 0 0-4.72 1.81zm-20.49 3.29a6.56 6.56 0 0 1 5.89 6.1c.14 1.75-.1 3.4-1.03 4.9-1.27 2.04-3.04 2.95-5.52 2.94a6.33 6.33 0 0 1-6.49-5.48 7.8 7.8 0 0 1 1.1-5.74c1.42-2.2 3.54-2.91 6.05-2.72zm-62.94-.4h.26c3.06.09 5.57 2.19 5.47 4.71H133.6a5.03 5.03 0 0 1 5.38-4.7zm-86.04 4.81a5.25 5.25 0 0 0-5.54-4.85 5.1 5.1 0 0 0-5.21 4.85h10.75zm-10.92 4.72a5.4 5.4 0 0 0 1.18 3.22c1.3 1.56 3.02 2 4.93 2.03 2.46.04 4.17-1.26 5.56-3.16l.39-.54 4.5 2.82c-.57.84-1.04 1.7-1.67 2.41-2.6 2.97-5.9 4.16-9.76 3.92a13.1 13.1 0 0 1-5.77-1.61 10.75 10.75 0 0 1-5.26-7.05c-.86-3.48-.72-6.9.83-10.16a10.87 10.87 0 0 1 8.98-6.53c3.23-.38 6.28.18 8.94 2.18 2.4 1.8 3.77 4.3 4.17 7.3.2 1.5.16 3.03.23 4.54.02.48-.17.64-.64.64-5.3-.02-10.61-.01-15.92-.01h-.7zM27.44 32.6v-.55l-.01-14.56c0-.68-.08-1.37-.23-2.04-.38-1.6-1.55-2.41-3.2-2.3-1.78.11-2.87 1.17-3.08 3.03-.07.53-.1 1.07-.1 1.61-.01 4.74-.02 9.48 0 14.22 0 .45-.1.61-.57.6a200.1 200.1 0 0 0-4.9 0c-.44.01-.56-.12-.56-.56l.01-22.26-.01-5.09c0-.47.1-.64.6-.63 1.63.03 3.27.01 4.9.01l.52.03v5.46c.15-.07.27-.08.33-.15a5.6 5.6 0 0 1 3.74-1.74c1.97-.26 3.9-.02 5.6 1.25a6.62 6.62 0 0 1 2.65 4.5c.2 1.42.3 2.88.3 4.32.04 4.74 0 9.48.03 14.22 0 .54-.15.65-.64.65-1.77-.03-3.53-.02-5.38-.02zM2.28 13.12c-.6 0-1.17-.02-1.72 0-.44.03-.57-.15-.56-.58.02-1.37.02-2.75 0-4.12 0-.41.12-.58.53-.56.56.02 1.12 0 1.75 0 0-1.1.02-2.15-.02-3.2-.02-.53.15-.67.65-.66 1.61.03 3.23.03 4.85 0 .45 0 .6.15.6.61-.03 1.06-.02 2.12-.02 3.24h3.62v5.24H8.41c-.03.18-.07.28-.07.39.01 3.87 0 7.73.03 11.6.02 1.5.7 2.15 2.17 2.17H12v2.95c0 .63.02 1.26-.01 1.9-.01.16-.18.43-.3.45-2.12.39-4.23.46-6.28-.32a4.5 4.5 0 0 1-2.77-3.34c-.25-.98-.34-2.02-.35-3.03-.04-4.02-.01-8.03-.01-12.05v-.69z"/>
</svg>
