<svg xmlns="http://www.w3.org/2000/svg" width="205" height="46" aria-label="TheRoot logo" viewBox="0 0 205 46">
	<path fill-rule="evenodd" d="M86.07 3.98a9.05 9.05 0 0 1 2.71 6.76c0 3.83-1.99 6.39-6.27 8.09l-.42.16-.51.19.26.47.21.37c1.75 3.22 6.48 10.8 10.16 16.15 3.58 5.52 9.4 8.4 16.93 8.4h.86V46h-1.59c-10.7 0-16.44-1.26-21.84-8.98-3.07-4.39-8.63-12.6-10.29-15.8l-.1-.21-.13-.26h-5.61v-2.08h1.27c3.58-.16 5.09-.63 5.09-.63 3.2-.95 5.56-2.59 5.56-6.98 0-5.63-4.76-8.12-9.51-8.12h-7.26v34.75h4.35v2.15H54.06V38.7c0-.25.1-.35.13-.38a.67.67 0 0 1 .42-.16c4.09-.23 6.07-1.45 6.07-5.21V7.17c0-6.03-6.68-5.62-6.68-5.62V0h20.09c1.38.02 8.13.29 11.98 3.98zM205 8.84v7.09h-1.38c-.04 0-.26 0-.36-.1-.1-.06-.13-.19-.13-.38 0-1.44-.68-3.8-5.13-3.8h-7.61v22.57c0 3.58 2.58 3.96 5.03 4.02.26 0 .26.16.26.26V40h-15.62v-1.43c0-.07 0-.2.06-.26.03-.07.16-.07.23-.07h.02c2.38-.06 4.96-.44 4.96-4.02v-22.6h-7.55c-4.25 0-5.16 2.1-5.16 3.9 0 .37-.16.4-.2.4l-1.58.01V8.84H205zM113.43 8c9.35 0 16.42 6.88 16.39 16 0 9.27-6.91 16-16.39 16-9.47 0-16.92-7.04-16.92-16 0-8.99 7.42-16 16.92-16zm38.45 0c9.34 0 16.37 6.88 16.37 16 0 9.27-6.88 16-16.38 16-9.47 0-16.93-7.04-16.93-16 0-8.99 7.42-16 16.93-16zm-38.93 3.4c-6.46 0-11.16 5.06-11.16 12.03 0 7.36 5.34 13.14 12.16 13.14 6.46 0 11.16-5.06 11.16-12.1 0-7.32-5.34-13.07-12.16-13.07zm38.47 0c-6.46 0-11.17 5.06-11.17 12.03 0 7.36 5.33 13.14 12.15 13.14h.01c6.47 0 11.14-5.06 11.17-12.1 0-7.32-5.35-13.07-12.16-13.07zm-136.9-.03v3.64h-.76s-.13 0-.2-.05c-.03-.03-.06-.09-.06-.19 0-.74-.36-1.97-2.77-1.97H8.5v11.62c0 1.82 1.25 2.05 2.56 2.08.14 0 .14.1.14.12v.78H3.06v-.74c0-.03 0-.09.03-.12.04-.03.07-.03.14-.03v-.04c1.28-.04 2.53-.22 2.53-2.07V12.79H3.8c-2.3 0-2.8 1.08-2.8 2 0 .22-.1.22-.13.22H0v-3.64h14.52zm36.57 0v3.64h-.76s-.13 0-.2-.06a.36.36 0 0 1-.05-.19c0-.74-.36-1.97-2.76-1.97h-5.1v5.87h1.84c1.74 0 2.44-.72 2.44-1.64 0-.09.03-.15.06-.18.06-.06.2-.06.2-.06h.75v5.25h-.76s-.13 0-.2-.06c-.03-.03-.06-.09-.06-.19 0-.92-.7-1.63-2.44-1.63h-1.8v4.25c0 1.26.35 1.6 1.95 1.6h3.29c2.4 0 2.75-1.23 2.75-1.97a.3.3 0 0 1 .06-.19c.06-.06.19-.06.19-.06h.77l-.03 3.62H36.75v-.8c0-.04.02-.1.13-.1 1.32-.03 2.57-.26 2.57-2.08V14.35c0-1.87-1.26-2.05-2.57-2.08-.13 0-.13-.1-.13-.13v-.77H51.1zm-16.88 0v.73c0 .04 0 .1-.03.13-.04.03-.1.03-.13.03-1.26.02-2.4.21-2.4 2.06v10.06c0 1.85 1.18 2.03 2.43 2.06.12 0 .12.08.12.11v.77h-7.54v-.83c.03-.03.09-.03.12-.03 1.25-.03 2.19-.22 2.19-2.06v-4.31h-7.54v4.3c0 1.85.98 2.04 2.22 2.07.12 0 .12.09.12.12v.78h-7.54v-.74c0-.04 0-.1.03-.13s.1-.03.12-.03c1.25-.02 2.4-.2 2.4-2.06V14.34c0-1.84-1.18-2.03-2.43-2.06-.12 0-.12-.08-.12-.11v-.77h7.53v.74c0 .03 0 .1-.03.12-.03.03-.1.03-.13.03-1.25.04-2.19.22-2.19 2.07v4.32h7.57v-4.3c0-1.85-.97-2.03-2.22-2.06-.13 0-.13-.1-.13-.13v-.77h7.38l.04-.01v-.04h.16z"/>
</svg>
