<svg xmlns="http://www.w3.org/2000/svg" width="141" height="44" aria-label="TheTakeout Logo" viewBox="0 0 141 44">
	<path fill-rule="evenodd" d="M15.92 10.5H.66c-.41 0-.66.25-.66.65v4.08c0 .41.25.65.66.65h4.81v26.6c0 .45.25.65.67.65h4.3c.46 0 .67-.2.67-.65v-26.6h4.81c.46 0 .66-.24.66-.65v-4.08c0-.4-.2-.65-.66-.65zm10.55 7.14l1.03 5.58 1.6 8.65h-5.24l2.62-14.23zm10.36 24.8l-6.67-30.78-.12-.59c-.08-.4-.33-.57-.7-.57h-5.69c-.37 0-.61.16-.7.57l-6.8 31.36c-.11.45.09.7.54.7h4.38c.37 0 .57-.2.66-.57l1.1-5.96h7.29l.22 1.16.93 4.8c.07.36.28.57.65.57h4.33c.49 0 .66-.25.58-.7zm22.02-.25l-7.49-16.48 6.94-14.05.09-.18c.29-.57.04-.98-.58-.98h-4.33c-.45 0-.75.2-.95.61l-4.5 9.1-1.86 3.75V11.32c0-.53-.3-.82-.83-.82h-3.97c-.54 0-.83.29-.83.82v31c0 .52.3.8.83.8h3.96c.54 0 .83-.28.83-.8V33.3l1.53-2.9 1.1 2.58 4.1 9.54c.16.4.45.6.95.6h4.38c.66 0 .9-.4.61-.93h.02zm19.7-31.69H63.29c-.38 0-.63.25-.63.65v31.33c0 .4.25.65.63.65h15.29c.5 0 .66-.25.66-.65V38.4c0-.45-.16-.66-.66-.66h-10.4v-8.23h7.94c.42 0 .67-.25.67-.7v-4.03c0-.45-.25-.7-.67-.7h-7.94v-8.15h10.39c.5 0 .66-.28.66-.69v-4.08c0-.41-.16-.66-.66-.66h-.01zM90.1 37.87c-1.08 0-1.65-.53-1.65-1.63V17.39c0-1.06.58-1.63 1.66-1.63h2.4c.91 0 1.47.4 1.63 1.16.02.14.04.3.04.47v18.85c0 1.1-.57 1.63-1.65 1.63h-2.44zm7.95-25.81c-1-1.03-2.52-1.56-4.5-1.56H88.9c-3.9 0-5.97 2.04-5.97 5.88v20.88c0 2.85 1.15 4.7 3.34 5.47.76.27 1.64.41 2.64.41h4.64c3.9 0 5.97-2.04 5.97-5.87v-20.9c0-1.87-.5-3.32-1.47-4.31h-.01zm20.91-1.56h-3.8a.83.83 0 0 0-.83.82v24.8c0 1.1-.58 1.63-1.65 1.63h-2.15c-1.08 0-1.66-.53-1.66-1.63v-24.8a.82.82 0 0 0-.83-.8h-3.98a.83.83 0 0 0-.83.81v25.93c0 2.86 1.15 4.72 3.34 5.48.76.27 1.63.4 2.63.4h4.65c3.9 0 5.97-2.03 5.97-5.86V11.33a.83.83 0 0 0-.83-.81l-.03-.02zm20.46.02h-15.26c-.41 0-.66.24-.66.65v4.08c0 .4.25.65.66.65h4.81v26.58c0 .45.25.65.66.65h4.32c.46 0 .66-.2.66-.65v-26.6h4.81c.46 0 .66-.24.66-.65v-4.08c0-.4-.2-.65-.66-.65v.02zM55.65 3.7H13.84c-.1 0-.19-.13-.19-.28 0-.15.09-.27.2-.27h41.8c.1 0 .2.12.2.27 0 .15-.08.28-.19.28m70.16 0H84c-.1 0-.18-.13-.18-.28 0-.15.09-.27.2-.27h41.8c.1 0 .18.12.18.27 0 .15-.08.28-.18.28M62.25 1.07h-1.2c-.09 0-.15-.08-.15-.16V.17c0-.09.06-.17.15-.17h3.44c.1 0 .16.08.16.17v.74c0 .08-.07.17-.15.17h-1.2V6.1c0 .09-.07.17-.15.17h-.73c-.08 0-.15-.07-.15-.17V1.07h-.02zm4.72-.9c0-.09.07-.17.15-.17h.74c.08 0 .15.08.15.17v2.37h2.59V.17c0-.09.06-.17.15-.17h.73c.08 0 .15.08.15.17V6.1c0 .1-.07.17-.15.17h-.72a.16.16 0 0 1-.16-.16V3.63h-2.59V6.1c0 .1-.06.17-.14.17h-.73c-.08 0-.16-.08-.16-.17V.17h-.01zm7 0c0-.09.06-.17.16-.17h3.4c.1 0 .17.08.17.17v.74c0 .08-.07.17-.16.17h-2.48v1.47h2.07c.08 0 .16.08.16.17v.75c0 .1-.08.18-.16.18h-2.07v1.57h2.48c.1 0 .16.08.16.17v.73c0 .1-.06.18-.15.18h-3.42a.16.16 0 0 1-.16-.17V.17z"/>
</svg>
