<svg xmlns="http://www.w3.org/2000/svg" width="24" height="24" aria-label="Video24 icon" viewBox="0 0 24 24">
	<path fill-rule="evenodd" d="M21.47 1C22.87 1 24 2.12 24 3.5v16a2.5 2.5 0 0 1-2.53 2.5H2.53A2.51 2.51 0 0 1 0 19.5v-16A2.5 2.5 0 0 1 2.53 1h18.94zm0 1H2.53A1.5 1.5 0 0 0 1 3.5v16c0 .83.68 1.5 1.52 1.5h18.94A1.5 1.5 0 0 0 23 19.5v-16c0-.83-.68-1.5-1.52-1.5zM8.17 7.34c0-.95.8-1.4 1.6-.91l7.3 4.5c.61.36.61 1.11 0 1.48l-7.3 4.5c-.8.49-1.6.03-1.6-.91zm1.08-.06c-.13-.08-.08-.11-.08.06V16c0 .16-.05.13.08.05l7.13-4.38z"/>
</svg>
