<svg xmlns="http://www.w3.org/2000/svg" width="18" height="18" aria-label="Video icon" viewBox="0 0 18 18">
	<path fill-rule="evenodd" d="M15.5 1A2.5 2.5 0 0 1 18 3.5v11a2.5 2.5 0 0 1-2.5 2.5h-13A2.5 2.5 0 0 1 0 14.5v-11A2.5 2.5 0 0 1 2.5 1h13zm0 1h-13C1.67 2 1 2.67 1 3.5v11c0 .83.67 1.5 1.5 1.5h13c.83 0 1.5-.67 1.5-1.5v-11c0-.83-.67-1.5-1.5-1.5zM7.61 5.1l5.14 3.16c.6.37.6 1.11 0 1.48L7.61 12.9c-.8.5-1.61.04-1.61-.9V6c0-.94.81-1.4 1.61-.9zM7 6v6c0 .16-.05.13.09.05L12.05 9 7.09 5.95C6.95 5.87 7 5.85 7 6z"/>
</svg>
