<svg xmlns="http://www.w3.org/2000/svg" width="18" height="18" aria-label="GoogleColor icon" viewBox="0 0 18 18">
	<g fill="none" fill-rule="evenodd">
		<path fill="#4285F4" d="M16.58 7.67H9v3h4.34a3.7 3.7 0 0 1-1.6 2.42v2.01h2.6a7.82 7.82 0 0 0 2.38-5.9c0-.56-.05-1-.14-1.53z"/>
		<path fill="#34A853" d="M9.02 17.05c2.17 0 3.98-.72 5.31-1.95l-2.6-2.01a4.82 4.82 0 0 1-7.2-2.54H1.85v2.08a8.02 8.02 0 0 0 7.17 4.42z"/>
		<path fill="#FBBC05" d="M4.53 10.55a4.82 4.82 0 0 1 0-3.05V5.42H1.85a8.02 8.02 0 0 0 0 7.2l2.68-2.07z"/>
		<path fill="#DB4437" d="M9.02 4.2c1.18 0 2.24.4 3.07 1.2l2.3-2.31A8.02 8.02 0 0 0 1.85 5.42L4.53 7.5c.63-1.9 2.4-3.3 4.5-3.3z"/>
	</g>
</svg>
