<svg xmlns="http://www.w3.org/2000/svg" width="18" height="18" aria-label="StarCircle icon" viewBox="0 0 18 18">
	<path fill-rule="evenodd" d="M9 1a8 8 0 1 1 0 16A8 8 0 0 1 9 1zm0 2.7h-.06a.24.24 0 0 0-.16.16L7.65 7.25l-3.42.08c-.09 0-.18.08-.22.17-.03.1 0 .21.08.27l2.72 2.18-.97 3.43c-.02.1.01.21.08.27.05.04.1.05.14.05.05 0 .1-.01.13-.05L9 11.61l2.81 2.04c.04.03.08.05.13.05s.1-.01.14-.05a.24.24 0 0 0 .08-.27l-.97-3.43 2.72-2.18a.25.25 0 0 0 .08-.27c-.04-.1-.12-.17-.22-.17l-3.42-.08-1.14-3.4A.21.21 0 0 0 9 3.7z"/>
</svg>
