<svg xmlns="http://www.w3.org/2000/svg" width="18" height="18" aria-label="Star icon" viewBox="0 0 18 18">
	<path fill-rule="evenodd" d="M5.27 14.92l3.44-2.41a.5.5 0 0 1 .58 0l3.44 2.4-1.27-3.95c-.07-.2 0-.41.17-.54l3.4-2.47-4.23-.03a.5.5 0 0 1-.46-.33L9 3.65 7.66 7.6a.5.5 0 0 1-.46.33l-4.23.03 3.4 2.47c.17.13.24.34.17.54l-1.27 3.96zm-.62 1.63c-.39.27-.9-.1-.76-.54L5.5 11 1.2 7.87C.82 7.6 1.02 7 1.5 7l5.34-.05 1.7-4.98c.15-.44.79-.44.94 0l1.7 4.98L16.5 7c.47 0 .67.6.29.87L12.5 11l1.6 5c.15.45-.36.82-.75.55L9 13.5l-4.35 3.05z"/>
</svg>
