<svg xmlns="http://www.w3.org/2000/svg" width="48" height="48" aria-label="Lunchbox-ImageParallax icon" viewBox="0 0 48 48">
	<path fill-rule="evenodd" d="M43.5 11a3.5 3.5 0 0 1 3.5 3.5v19a3.5 3.5 0 0 1-3.5 3.5h-39c-.25 0-.5-.03-.73-.08a.5.5 0 0 1-.44.05l-.08-.04a.5.5 0 0 1-.22-.25A3.5 3.5 0 0 1 1 33.5v-19A3.5 3.5 0 0 1 4.5 11zm-28.15 6.48L4.38 36h37.47l-9.4-10.09-6.6 7.24a.5.5 0 0 1-.74 0l-.06-.07-9.7-15.6zM43.5 12h-3.16a7.02 7.02 0 0 1-6.84 8.5 7 7 0 0 1-7-7 6.34 6.34 0 0 1 .28-1.44l.02-.06H4.5A2.5 2.5 0 0 0 2 14.34V33.5c0 .98.56 1.82 1.37 2.23l11.54-19.47a.5.5 0 0 1 .8-.08l.06.07L25.55 32l6.52-7.15a.5.5 0 0 1 .66-.07l.07.06L43.22 36h.28a2.5 2.5 0 0 0 2.5-2.34V14.5a2.5 2.5 0 0 0-2.5-2.5zm-15.95 1.05c-.03.17-.05.31-.05.45A6 6 0 1 0 39.31 12H27.86l-.12.36c-.1.29-.15.49-.2.7z"/>
</svg>
