<svg xmlns="http://www.w3.org/2000/svg" width="48" height="48" aria-label="Lunchbox-ImageHeadlineText icon" viewBox="0 0 48 48">
	<path fill-rule="evenodd" d="M13 17a2 2 0 0 1 2 2v11a2 2 0 0 1-2 2H2a2 2 0 0 1-2-2V19c0-1.1.9-2 2-2h11zm-7.37 9.45L2.88 31h9.08l-2.11-2.64-1.34 1.43a.5.5 0 0 1-.66.06l-.07-.06-.06-.07-2.09-3.27zM13 18H2a1 1 0 0 0-1 .88V30a1 1 0 0 0 .74.97l3.45-5.73a.5.5 0 0 1 .8-.08l.05.07 2.18 3.4 1.3-1.38a.5.5 0 0 1 .6-.1l.08.06.07.07 2.95 3.7a1 1 0 0 0 .77-.86L14 30V19a1 1 0 0 0-.88-1H13zm34.5 10a.5.5 0 0 1 .09 1H19.5a.5.5 0 0 1-.09-1H47.5zm0-3a.5.5 0 0 1 .09 1H19.5a.5.5 0 0 1-.09-1H47.5zM9.6 19.5a2.5 2.5 0 1 1 0 5 2.5 2.5 0 0 1 0-5zm0 1a1.5 1.5 0 1 0 0 3 1.5 1.5 0 0 0 0-3zm27.9-.5a.5.5 0 0 1 .09 1H19.5a.5.5 0 0 1-.09-1H37.5z"/>
</svg>
