<svg xmlns="http://www.w3.org/2000/svg" width="48" height="48" aria-label="Lunchbox-ImageFullbleed icon" viewBox="0 0 48 48">
	<path fill-rule="evenodd" d="M43.5 11a3.5 3.5 0 0 1 3.5 3.5v19a3.5 3.5 0 0 1-3.5 3.5h-39A3.5 3.5 0 0 1 1 33.5v-19A3.5 3.5 0 0 1 4.5 11zm0 1h-39A2.5 2.5 0 0 0 2 14.5v19A2.5 2.5 0 0 0 4.5 36h4.71l8.91-15.25a.5.5 0 0 1 .8-.09l.06.08 6.8 10.93 4.46-4.9a.5.5 0 0 1 .66-.07l.07.06L39.72 36h3.78a2.5 2.5 0 0 0 2.5-2.34V14.5a2.5 2.5 0 0 0-2.5-2.5zm-24.93 9.97L10.37 36h27.97l-7.72-8.16-4.55 4.99a.5.5 0 0 1-.74 0l-.06-.08-6.7-10.78zM31.5 13.5a5 5 0 1 1 0 10 5 5 0 0 1 0-10zm0 1a4 4 0 1 0 0 8 4 4 0 0 0 0-8z"/>
</svg>
