<svg xmlns="http://www.w3.org/2000/svg" width="48" height="48" aria-label="Lunchbox-HeroHeadlineText icon" viewBox="0 0 48 48">
	<path fill-rule="evenodd" d="M47.5 41a.5.5 0 0 1 .09 1H.5a.5.5 0 0 1-.09-1H47.5zm0-3a.5.5 0 0 1 .09 1H.5a.5.5 0 0 1-.09-1H47.5zm-12-5a.5.5 0 0 1 .09 1H12.5a.5.5 0 0 1-.09-1H35.5zm1-27A2.5 2.5 0 0 1 39 8.5v17a2.5 2.5 0 0 1-2.5 2.5h-25A2.5 2.5 0 0 1 9 25.5v-17A2.5 2.5 0 0 1 11.5 6zm0 1h-25c-.83 0-1.5.67-1.5 1.5v17c0 .83.67 1.5 1.5 1.5h.06l7.41-11.37a.5.5 0 0 1 .79-.07l.06.08 4.92 7.91 3.17-3.48a.5.5 0 0 1 .67-.07l.07.07L35.02 27h1.49c.77 0 1.41-.6 1.48-1.35l.01-.14V8.49A1.5 1.5 0 0 0 36.5 7zm-17.12 9.83L12.75 27h20.91l-5.37-5.86-3.26 3.57a.5.5 0 0 1-.74 0l-.05-.07-4.86-7.8zM29 9a4 4 0 1 1 0 8 4 4 0 0 1 0-8zm0 1a3 3 0 1 0 0 6 3 3 0 0 0 0-6z"/>
</svg>
