<svg xmlns="http://www.w3.org/2000/svg" width="48" height="48" aria-label="Lunchbox-HeroHeadline icon" viewBox="0 0 48 48">
	<path fill-rule="evenodd" d="M35.5 37a.5.5 0 0 1 .09 1H12.5a.5.5 0 0 1-.09-1H35.5zm1-27a2.5 2.5 0 0 1 2.5 2.5v17a2.5 2.5 0 0 1-2.5 2.5h-25A2.5 2.5 0 0 1 9 29.5v-17a2.5 2.5 0 0 1 2.5-2.5zm0 1h-25c-.83 0-1.5.67-1.5 1.5v17c0 .83.67 1.5 1.5 1.5h.06l7.41-11.37a.5.5 0 0 1 .79-.07l.06.08 4.92 7.91 3.17-3.48a.5.5 0 0 1 .67-.07l.07.07L35.02 31h1.49c.77 0 1.41-.6 1.48-1.35l.01-.14V12.49A1.5 1.5 0 0 0 36.5 11zm-17.12 9.83L12.75 31h20.91l-5.37-5.86-3.26 3.57a.5.5 0 0 1-.74 0l-.05-.07-4.86-7.8zM29 13a4 4 0 1 1 0 8 4 4 0 0 1 0-8zm0 1a3 3 0 1 0 0 6 3 3 0 0 0 0-6z"/>
</svg>
