<svg xmlns="http://www.w3.org/2000/svg" width="48" height="48" aria-label="Lunchbox-HeadlineTextImage icon" viewBox="0 0 48 48">
	<path fill-rule="evenodd" d="M46 17a2 2 0 0 1 2 2v11a2 2 0 0 1-2 2H35a2 2 0 0 1-2-2V19c0-1.1.9-2 2-2h11zm-7.37 9.45L35.88 31h9.08l-2.11-2.64-1.34 1.43a.5.5 0 0 1-.73 0l-.06-.07-2.09-3.27zM46 18H35a1 1 0 0 0-1 .88V30a1 1 0 0 0 .74.97l3.45-5.73a.5.5 0 0 1 .85 0l2.18 3.4 1.3-1.39a.5.5 0 0 1 .68-.04l.07.07 2.95 3.7a1 1 0 0 0 .77-.86L47 30V19a1 1 0 0 0-.88-1H46zM28.5 28a.5.5 0 0 1 .09 1H.5a.5.5 0 0 1-.09-1H28.5zm0-3a.5.5 0 0 1 .09 1H.5a.5.5 0 0 1-.09-1H28.5zm14.1-5.5a2.5 2.5 0 1 1 0 5 2.5 2.5 0 0 1 0-5zm0 1a1.5 1.5 0 1 0 0 3 1.5 1.5 0 0 0 0-3zM18.5 20a.5.5 0 0 1 .09 1H.5a.5.5 0 0 1-.09-1H18.5z"/>
</svg>
