<svg xmlns="http://www.w3.org/2000/svg" width="64" height="64" aria-label="Gizmodo avatar" viewBox="0 0 64 64">
	<g fill="none" fill-rule="evenodd">
		<path fill="#18AFED" d="M0 0h64v64H0z"/>
		<path fill="#FFF" d="M16.67 46.94A22.04 22.04 0 0 1 11 32.43C11 16.09 24.58 10 33.15 10c8.41 0 14.6 4.13 14.85 4.3a4.22 4.22 0 0 1-1.48 7.58 4.1 4.1 0 0 1-3.1-.61c-.11-.07-4.5-2.9-10.27-2.9-5.37 0-12.77 3.54-12.77 14.06 0 5.98 4.45 13.04 12.6 13.04 4.6 0 7.83-1.23 9.7-2.42v-6.22h-6.36a4.16 4.16 0 0 1-4.13-4.18 4.16 4.16 0 0 1 4.13-4.19h10.5A4.2 4.2 0 0 1 51 32.64V45.1c0 1.13-.5 2.21-1.3 3-2.79 2.73-8.87 5.9-16.88 5.9a21.4 21.4 0 0 1-16.16-7.06z"/>
	</g>
</svg>
