<svg xmlns="http://www.w3.org/2000/svg" width="64" height="64" aria-label="GO avatar" viewBox="0 0 64 64">
	<path fill-rule="evenodd" fill="#000" d="M46.23 40.5a7.46 7.46 0 0 1-7.62-7.64 7.51 7.51 0 0 1 7.62-7.63c4.14 0 7.6 3.1 7.65 7.63a7.47 7.47 0 0 1-7.65 7.63zm-.65-23.66c-1.79 0-3.48.27-5.05.78l2.4-4.77h-.01l.43-.85h-2.98L32 28.69H18.66v6.28h6.7v2.51a10.43 10.43 0 0 1-6.62 2.32 7.83 7.83 0 0 1-8.13-8c0-4.44 3.3-7.94 8.13-7.94 2.67 0 5.1 1.06 6.93 2.67l4.75-5.45c-2.55-2.36-6.74-4.24-11.6-4.24C9.85 16.84 3 23.04 3 31.87c0 8.6 6.42 14.92 15.58 14.92 1.6 0 3.14-.2 4.6-.56l-2.73 5.45h2.97l.44-.87 7.1-14.14c1.97 5.95 7.56 10.15 14.66 10.15 8.8 0 15.38-6.63 15.38-14.95 0-8.36-6.62-15.03-15.42-15.03z"/>
</svg>
