<svg xmlns="http://www.w3.org/2000/svg" width="64" height="64" aria-label="Kinja avatar" viewBox="0 0 64 64">
	<g fill="none" fill-rule="evenodd">
		<path fill="#000" d="M0 0h64v64H0z"/>
		<path fill="#FFF" d="M17.6 34.47c1.02 1.7 7.35 12.36 9.5 16.08 2.38 4.1 5.7 4.45 7.55 4.45h13.49s-9.88-17.8-12.9-22.6c-2.03-3.26-4.74-3.64-7.76-3.64H9.33c-.03 0 2.94-3.54 9.48-3.76 6.54-.2 17.28.02 21.71 0s6.7-2.02 7.62-3.55C49.07 19.92 54.78 9 54.78 9H25.32c-3.95.02-5.67 2.12-7.18 4.61L9 28.65c-.03.05.02.23.06.32 0 0 1.14.06 2.87.6 2.44.8 4.65 3.21 5.67 4.9z"/>
	</g>
</svg>
