<svg xmlns="http://www.w3.org/2000/svg" width="64" height="64" aria-label="Kotaku avatar" viewBox="0 0 64 64">
	<g fill="none" fill-rule="evenodd">
		<path fill="#FBC000" d="M0 0h64v64H0z"/>
		<path fill="#FFF" d="M16.8 49.62l3.67-.14c4.05-.15 7.76-3.2 8.35-6.78l4.13-24.65-10.3-.3-5.84 31.87zM43.19 29.1c3.57.02 4.95 1.29 5.93 3.27l6.84 16.84c-1.73 1.54-9.79 1-12.08-5.04l-2.5-6.72h-1.15c-3.8.06-9.2-2.78-8.03-8.4l11 .05zm-22.2-11.38l-5.59-.16c-7.78-.22-9.93 5.3-9.28 8.88l13.26.13 1.6-8.85zm31.55 7.69c2.62-1.66 3.74-7.65 1.9-9.4l-13.51 3.4c-2.3 1.28-4.94 5.01-2.33 9.15l13.94-3.15z"/>
	</g>
</svg>
