<svg xmlns="http://www.w3.org/2000/svg" width="64" height="64" aria-label="Splinter avatar" viewBox="0 0 64 64">
	<g fill="none" fill-rule="evenodd">
		<path fill="#F85637" d="M0 0h64v64H0z"/>
		<path fill="#FFF" d="M18.6 49.4c-.48-.48-.66-1.02-.24-1.8l2.75-4.83c.47-.78 1.43-.78 2.03-.36 1.67 1.14 4.71 3.29 8.48 3.29 2.38 0 4.12-1.5 4.12-3.59 0-2.5-2.21-4.12-6.16-6.03C23.8 33.28 18 30.05 18 22.88 18 16.97 22.6 11 31.8 11c6.2 0 10.98 3.17 12.78 4.48.71.42.6 1.5.35 1.91l-3.05 4.6c-.41.66-1.43 1.13-2.62.41-1.38-.95-4.9-3.22-8.06-3.22-2.5 0-3.64 1.55-3.64 3.29 0 1.97 2.33 3.52 6.51 5.55 5.25 2.57 12.06 5.5 12.06 13.62 0 6.15-5.32 12.36-14.1 12.36-7.76 0-12.06-3.23-13.43-4.6"/>
	</g>
</svg>
