<svg xmlns="http://www.w3.org/2000/svg" width="64" height="64" aria-label="TheTakeout avatar" viewBox="0 0 64 64">
	<g fill="none" fill-rule="evenodd">
		<path fill="#E5371A" d="M0 64h64V0H0"/>
		<g fill-rule="nonzero" transform="translate(18 8)">
			<path fill="#174066" d="M27.27 9.1V2.72c0-.55-.3-.91-.9-.91h-1.82v5.45c-.03.43-.33.8-.91.91h-7.28v39.1c.1.71-.2 1.01-.9.9H10.9v.91c0 .6.36.91.9.91h6.37c.72 0 1.03-.3.91-.9V10h7.27c.6-.23.9-.6.91-.9zM2.73 8.17v.91c0 .53.37.91.9.91h4.55V8.18H2.73z"/>
			<path fill="#F9DB5D" d="M23.64 0H.9C.37 0 0 .36 0 .9v6.37c0 .32.37.68.9.91h7.28v39.1c-.08.6.29.9.91.9h6.36c.69 0 1-.3.91-.9V8.17h7.28c.6-.23.9-.59.9-.9V.9c0-.55-.3-.91-.9-.91"/>
			<path fill="#FFF" d="M10 46.36c.1 0 0-.12 0 0V10c0 .13.1 0 0 0 .35 0 .45.13.9 0v36.36c-.45-.12-.55 0-.9 0m-7.27-40c.1 0 0-.12 0 0V2.73c0 .12.1 0 0 0 .35 0 .45.12.9 0v3.63c-.45-.11-.55 0-.9 0"/>
		</g>
	</g>
</svg>
