<svg xmlns="http://www.w3.org/2000/svg" width="18" height="18" aria-label="Eye icon" viewBox="0 0 18 18">
	<path fill-rule="evenodd" d="M9 13.95a9.02 9.02 0 0 1-5.75-2.35 12.89 12.89 0 0 1-2.13-2.35L.96 9l.16-.25a5.55 5.55 0 0 1 .56-.74c.45-.55.97-1.1 1.57-1.6a8.96 8.96 0 0 1 5.74-2.36 8.6 8.6 0 0 1 5.82 2.36 12.74 12.74 0 0 1 2.07 2.35l.16.24-.15.24a12.68 12.68 0 0 1-2.07 2.35 8.54 8.54 0 0 1-5.83 2.36zM2.37 9.41c.42.51.9 1.02 1.46 1.5A8.13 8.13 0 0 0 9 13.04a7.66 7.66 0 0 0 5.2-2.13A11.78 11.78 0 0 0 15.96 9c-.08-.13-.2-.27-.32-.43-.4-.5-.88-1.01-1.42-1.49A7.71 7.71 0 0 0 9 4.96 8.07 8.07 0 0 0 3.84 7.1 12 12 0 0 0 2.06 9l.32.41zM9 11.95a2.96 2.96 0 1 1 0-5.9 2.96 2.96 0 0 1 0 5.9zm0-.9a2.05 2.05 0 1 0 0-4.1 2.05 2.05 0 0 0 0 4.1z"/>
</svg>
