<svg xmlns="http://www.w3.org/2000/svg" width="18" height="18" aria-label="EyeFilled icon" viewBox="0 0 18 18">
	<path fill-rule="evenodd" d="M9 4.05a8.6 8.6 0 0 1 5.8 2.36 12.74 12.74 0 0 1 2.08 2.35l.16.24-.15.24a12.68 12.68 0 0 1-2.07 2.35 8.54 8.54 0 0 1-5.83 2.36 9.02 9.02 0 0 1-5.74-2.35 12.89 12.89 0 0 1-2.13-2.35L.96 9l.16-.25a5.55 5.55 0 0 1 .56-.74c.45-.55.97-1.1 1.57-1.6a8.96 8.96 0 0 1 5.74-2.36zm0 2a2.96 2.96 0 1 0 0 5.9 2.96 2.96 0 0 0 0-5.9zm0 .9a2.05 2.05 0 1 1 0 4.1 2.05 2.05 0 0 1 0-4.1z"/>
</svg>
