<svg xmlns="http://www.w3.org/2000/svg" width="18" height="18" aria-label="Pause icon" viewBox="0 0 18 18">
	<path fill-rule="evenodd" d="M3 2.91C3 1.87 3.74 1 4.7 1h1.6C7.25 1 8 1.87 8 2.91V15.1c0 1.03-.74 1.9-1.7 1.9H4.7c-.96 0-1.7-.87-1.7-1.91V2.9zm1 0V15.1c0 .52.33.91.7.91h1.6c.37 0 .7-.39.7-.91V2.9c0-.5-.33-.9-.7-.9H4.7c-.37 0-.7.39-.7.91zm6 0C10 1.87 10.74 1 11.7 1h1.6c.96 0 1.7.87 1.7 1.91V15.1c0 1.04-.74 1.91-1.7 1.91h-1.6c-.96 0-1.7-.87-1.7-1.91V2.9zm1 0V15.1c0 .52.33.91.7.91h1.6c.37 0 .7-.39.7-.91V2.9c0-.52-.33-.91-.7-.91h-1.6c-.37 0-.7.39-.7.91z"/>
</svg>
