<svg xmlns="http://www.w3.org/2000/svg" width="18" height="18" aria-label="Promotion icon" viewBox="0 0 18 18">
	<path fill-rule="evenodd" d="M17.6 1.32a.5.5 0 0 1-.29.65 3 3 0 0 0-.91.56c.29-.1.58-.14.87-.14a.5.5 0 1 1-.02 1c-.3 0-.63.1-.98.28l.73.7V8.9c0 .4-.15.78-.44 1.06l-7.51 7.52a1.5 1.5 0 0 1-2.13 0l-5.48-5.49a1.5 1.5 0 0 1 0-2.12L8.96 2.4c.28-.28.66-.4 1.06-.4h4.51l.54.51.22-.26a4.11 4.11 0 0 1 1.66-1.22.5.5 0 0 1 .64.29zm-3.48 1.6h-4.1a.5.5 0 0 0-.35.14l-7.52 7.52a.5.5 0 0 0 0 .7l5.48 5.5c.2.19.51.19.7 0l7.53-7.53A.5.5 0 0 0 16 8.9V4.79l-.53-.54-.3.24a1.5 1.5 0 1 1-.92-.82l.25-.38-.38-.38zm-3.4 2.36l1.22 1.22-.23.24c.26.06.6.14.93.36.52.33.6.8.56 1.15-.04.35-.25.72-.53 1l-.1.11-2.7 2.69c-.4.4-.82.89-1.4.93-.58.03-1.02-.55-1.15-.78l-.4-.68-1.7 1.7-1.2-1.2 6.7-6.74zm-.29 2.73L8.2 10.25c-.2.21-.2.49-.06.62.14.14.4.15.62-.06L11 8.57c.2-.19.22-.46.06-.62-.16-.16-.4-.15-.62.06zm3.31-3.4h-.07a.5.5 0 1 0 .63.5.51.51 0 0 1-.56-.5z"/>
</svg>
