<svg xmlns="http://www.w3.org/2000/svg" width="24" height="24" aria-label="Promotion24 icon" viewBox="0 0 24 24">
	<path fill-rule="evenodd" d="M20.56 2l1.42 1.47-.23.33a6.38 6.38 0 0 0-1.05 1.9c-.05.72-.15 4.56-.15 5.77 0 .83-.4 1.38-1.36 2.32-1.4 1.37-2.52 2.48-5 4.95l-.04.04L12 20.9l-.03.03-.02.02a4.4 4.4 0 0 1-.56.5c-.9.63-1.49.6-2.3-.14-.16-.15-.29-.26-.55-.53l-.15-.15a11688.26 11688.26 0 0 1-5.32-5.27l-.01-.01a6.3 6.3 0 0 1-.53-.56c-.73-.88-.7-1.6.07-2.4l.12-.15.06-.06a96.18 96.18 0 0 1 4.53-4.54c1.43-1.38 2.06-2 2.84-2.78.9-.9 1.67-1.37 2.62-1.36.94.01 2.35 0 4.25-.01.71 0 1.2-.04 1.44-.13.21-.08.82-.46 1.75-1.12l.35-.24zm-.12 1.3c-.82.57-1.35.9-1.63 1-.39.14-.98.2-1.8.19-1.88.02-3.3.02-4.25.01-.6 0-1.17.33-1.9 1.07-.78.79-1.42 1.4-2.86 2.79l-2.05 2c-.7.68-1.25 1.26-2.44 2.51l-.06.06-.13.14c-.42.45-.43.6-.02 1.09.11.13.21.24.46.47v.01l.17.16 5.16 5.12.05.04.3.3.31.3c.48.43.55.43 1.06.07.12-.09.23-.19.44-.4l.05-.04 2.14-2.13.04-.04a771.1 771.1 0 0 1 5.02-4.95c.76-.75 1.05-1.15 1.05-1.6 0-1.24.1-5.1.15-5.85.03-.44.36-1.1 1-2.04l-.26-.27zm-6.51 4c.51.43 1.16.71 1.01 1.56.2.04.44.04.62.13.9.44 1.53 1.1.52 2.1l-3.37 3.36c-1.12 1.1-1.9.95-2.57-.5l-.24-.36c-.67.6-1.3 1.19-2.02 1.85l-1.2-1.06 7.25-7.08zm-.25 2.72l-2.99 2.92c.3.48.58.75.99.35 1-.96 2-1.95 2.99-2.92-.26-.54-.54-.79-1-.35zm4.37-4.58c.44 0 .8.35.8.78a.8.8 0 0 1-.8.8.8.8 0 0 1-.8-.8.8.8 0 0 1 .8-.78z"/>
</svg>
