<svg xmlns="http://www.w3.org/2000/svg" width="18" height="18" aria-label="Bell icon" viewBox="0 0 18 18">
	<path fill-rule="evenodd" d="M9 1c1.15 0 2.1.89 2.23 2.03 1.82.85 2.76 2.75 2.76 5.16V11l.15.01c1.14.1 1.85.7 1.85 1.99v.5c.02.85.01.93-.17 1.18-.2.28-.36.32-.93.32h-3.45A2.35 2.35 0 0 1 9 17c-1.3 0-2.2-.77-2.44-1.99h-3.3c-.7 0-.87-.03-1.1-.36C2 14.4 2 14.28 2 13.39V13c0-1.3.71-1.89 1.86-1.99H4V8.18c0-2.41.94-4.3 2.76-5.16A2.27 2.27 0 0 1 9 1zM7.59 14.98c.19.64.68.98 1.41.98.74 0 1.23-.34 1.42-.98H7.59zM8.99 2c-.68 0-1.24.58-1.24 1.3v.41l-.32.12c-1.59.61-2.42 2.2-2.42 4.36V12h-.5l-.56.02c-.68.06-.94.28-.94.99v.09L3 14h12l-.01-1c0-.7-.26-.92-.94-.98a4.93 4.93 0 0 0-.43-.01h-.63V8.19c0-2.17-.83-3.75-2.42-4.36l-.32-.12V3.3C10.25 2.58 9.69 2 9 2z"/>
</svg>
