<svg xmlns="http://www.w3.org/2000/svg" width="18" height="18" aria-label="Breaking icon" viewBox="0 0 18 18">
	<path fill-rule="evenodd" d="M4 13a2 2 0 1 1 0 4 2 2 0 0 1 0-4zm5 0a2 2 0 1 1 0 4 2 2 0 0 1 0-4zm5 0a2 2 0 1 1 0 4 2 2 0 0 1 0-4zM4 14a1 1 0 1 0 0 2 1 1 0 0 0 0-2zm5 0a1 1 0 1 0 0 2 1 1 0 0 0 0-2zm5 0a1 1 0 1 0 0 2 1 1 0 0 0 0-2zM4 1a2 2 0 0 1 2 2v7a2 2 0 1 1-4 0V3c0-1.1.9-2 2-2zm5 0a2 2 0 0 1 2 2v7a2 2 0 1 1-4 0V3c0-1.1.9-2 2-2zm5 0a2 2 0 0 1 2 2v7a2 2 0 1 1-4 0V3c0-1.1.9-2 2-2zM4 2a1 1 0 0 0-1 1v7a1 1 0 0 0 2 0V3a1 1 0 0 0-1-1zm5 0a1 1 0 0 0-1 1v7a1 1 0 0 0 2 0V3a1 1 0 0 0-1-1zm5 0a1 1 0 0 0-1 1v7a1 1 0 0 0 2 0V3a1 1 0 0 0-1-1z"/>
</svg>
