<svg xmlns="http://www.w3.org/2000/svg" width="18" height="18" aria-label="Burner icon" viewBox="0 0 18 18">
	<path fill-rule="evenodd" d="M14.08 5.5c1.66 0 3.28 1.61 3.41 3.36.15 1.9-2.46 4.64-4.64 4.64a7.9 7.9 0 0 1-2.84-.58 10.55 10.55 0 0 1-1-.45c-.01.02-.04.03-.07.05a8.03 8.03 0 0 1-3.79.98C2.7 13.5.34 11.06.51 8.86.66 6.88 2.15 5.5 3.92 5.5c1.78 0 3.3.38 5.07 1.32 1.8-.94 3.31-1.32 5.1-1.32zm0 1c-1.69 0-3.1.37-4.85 1.33a.5.5 0 0 1-.48 0A9.3 9.3 0 0 0 3.92 6.5c-1.24 0-2.3.97-2.41 2.44-.13 1.61 1.76 3.56 3.64 3.56a6.8 6.8 0 0 0 2.57-.51c.37-.15 1.16-.58 1.29-.58.11 0 .98.43 1.37.58.83.32 1.67.51 2.47.51 1.6 0 3.75-2.26 3.65-3.56-.1-1.25-1.3-2.44-2.42-2.44zm-1.56 1.56a2.7 2.7 0 0 1 1.58.15c.18.07.35.15.47.22l.19.12c.17.1.26.29.24.48l-.03.23a1.9 1.9 0 0 1-1.32 1.64 2.8 2.8 0 0 1-1.24.06 6.43 6.43 0 0 1-1.5-.4l-.6-.23a.5.5 0 0 1-.11-.86l.5-.39.34-.24c.27-.18.59-.38.94-.58l.04-.02c.16-.08.33-.14.5-.18zm-7.04 0c.17.04.34.1.5.18l.03.01.01.01a16.58 16.58 0 0 1 1.28.82l.5.4a.5.5 0 0 1-.12.85l-.6.23a5.61 5.61 0 0 1-.65.22c-.3.08-.57.14-.84.18a2.8 2.8 0 0 1-1.24-.06 1.9 1.9 0 0 1-1.32-1.64L3 9.03a.5.5 0 0 1 .24-.48l.2-.12c.11-.07.28-.15.46-.22a2.7 2.7 0 0 1 1.58-.15zm8.26 1.08c-.36-.14-.7-.18-1-.1-.1.01-.18.05-.26.08a15.56 15.56 0 0 0-.95.6 7.32 7.32 0 0 0 1.02.25c.34.05.6.04.8-.02.33-.1.55-.37.61-.7a2.4 2.4 0 0 0-.22-.1zm-9.48 0a2.4 2.4 0 0 0-.22.1c.06.34.28.6.61.7.2.07.46.08.8.03a5.44 5.44 0 0 0 1.02-.25 11.33 11.33 0 0 0-.94-.6h-.01a1.14 1.14 0 0 0-.26-.09 1.7 1.7 0 0 0-1 .11z"/>
</svg>
