<svg xmlns="http://www.w3.org/2000/svg" width="18" height="18" aria-label="CartButton icon" viewBox="0 0 18 18">
	<path fill-rule="evenodd" d="M15.5 0A2.5 2.5 0 0 1 18 2.5v12a2.5 2.5 0 0 1-2.5 2.5h-13A2.5 2.5 0 0 1 0 14.5v-12A2.5 2.5 0 0 1 2.5 0zm0 1h-13C1.67 1 1 1.67 1 2.5v12c0 .83.67 1.5 1.5 1.5h13c.83 0 1.5-.67 1.5-1.5v-12c0-.83-.67-1.5-1.5-1.5zm-11 2c.1 0 .2.03.3.1l.05.05 1 1c.06.05.1.12.13.2l.01.08.09.57h8.42a.5.5 0 0 1 .48.63l-.02.07-2 4.5a.5.5 0 0 1-.38.3H6.86l.07.5h4.57a1.5 1.5 0 1 1-1.41 1H8.9a1.5 1.5 0 1 1-2.76-.15.48.48 0 0 1-.12-.19L6 11.57l-.98-6.83L4.29 4H3.5a.5.5 0 0 1-.5-.41V3.5a.5.5 0 0 1 .41-.5H4.5zm7 9a.5.5 0 1 0 0 1 .5.5 0 0 0 0-1zm-4 0a.5.5 0 1 0 0 1 .5.5 0 0 0 0-1zm-.78-2.5h5.46L13.73 6H6.22l.5 3.5z"/>
</svg>
