<svg xmlns="http://www.w3.org/2000/svg" width="18" height="18" aria-label="Cart icon" viewBox="0 0 18 18">
	<path fill-rule="evenodd" d="M2.5 2c.16 0 .3.07.4.2l.05.08L3.8 4h13.7a.5.5 0 0 1 .5.58l-.03.08-2 6a.5.5 0 0 1-.38.33l-.09.01H4.82l.12 1h8.56a.5.5 0 0 1 .17.03 2 2 0 1 1-1.4.97H8.73a2 2 0 1 1-3.46 0H4.5a.5.5 0 0 1-.48-.36L4 12.56l-.99-7.91L2.2 3H.5a.5.5 0 0 1-.5-.41V2.5A.5.5 0 0 1 .41 2H2.5zM14 13a1 1 0 1 0 0 2 1 1 0 0 0 0-2zm-7 0a1 1 0 1 0 0 2 1 1 0 0 0 0-2zm-2.3-3h10.44l1.66-5H4.07l.62 5z"/>
</svg>
