<svg xmlns="http://www.w3.org/2000/svg" width="18" height="18" aria-label="Code icon" viewBox="0 0 18 18">
	<path fill-rule="evenodd" d="M1 3.5v11c0 .83.67 1.5 1.5 1.5h13c.83 0 1.5-.67 1.5-1.5v-11c0-.83-.67-1.5-1.5-1.5h-13C1.67 2 1 2.67 1 3.5zm-1 0A2.5 2.5 0 0 1 2.5 1h13A2.5 2.5 0 0 1 18 3.5v11a2.5 2.5 0 0 1-2.5 2.5h-13A2.5 2.5 0 0 1 0 14.5v-11zM4.26 9l3.57 3.12a.5.5 0 1 1-.66.76l-4-3.5a.5.5 0 0 1 0-.76l4-3.5a.5.5 0 0 1 .66.76L4.26 9zm5.91 3.12a.5.5 0 1 0 .66.76l4-3.5a.5.5 0 0 0 0-.76l-4-3.5a.5.5 0 0 0-.66.76L13.74 9l-3.57 3.12z"/>
</svg>
