<svg xmlns="http://www.w3.org/2000/svg" width="18" height="18" aria-label="ColorPicker icon" viewBox="0 0 18 18">
	<path fill-rule="evenodd" d="M15.5 1c.83 0 1.5.67 1.5 1.5v13c0 .83-.67 1.5-1.5 1.5h-13A1.5 1.5 0 0 1 1 15.5v-13C1 1.68 1.67 1 2.5 1h13zm0 1h-13a.5.5 0 0 0-.5.5v13c0 .27.23.5.5.5h13a.5.5 0 0 0 .5-.5v-13a.5.5 0 0 0-.5-.5zm-3 2c.83 0 1.5.67 1.5 1.5v7c0 .83-.67 1.5-1.5 1.5h-7A1.5 1.5 0 0 1 4 12.5v-7C4 4.67 4.67 4 5.5 4h7zm0 1h-7a.5.5 0 0 0-.5.5v7c0 .28.22.5.5.5h7a.5.5 0 0 0 .5-.5v-7a.5.5 0 0 0-.5-.5z"/>
</svg>
