<svg xmlns="http://www.w3.org/2000/svg" width="24" height="24" aria-label="DealsBox24 icon" viewBox="0 0 24 24">
	<path fill-rule="evenodd" d="M11.6 4l9 2a.57.57 0 0 1 .06.02.5.5 0 0 1 .27.2l1.99 3a.5.5 0 0 1-.24.74l-1.68.63v6.4a.5.5 0 0 1-.24.43l-.08.04-9 3.5a.5.5 0 0 1-.07.03h-.03a.42.42 0 0 1-.14 0h-.02a.5.5 0 0 1-.1-.02h.04-.03l-9-3.47a.5.5 0 0 1-.33-.47v-6.51L.34 9.97a.5.5 0 0 1-.26-.76l1.98-2.97a.55.55 0 0 1 .2-.2A.47.47 0 0 1 2.4 6l-.07.02a.5.5 0 0 1 .05-.01h.02l9-2.01h.22zM3 10.85v5.84l8 3.08v-8.63l-1.08 1.63a.5.5 0 0 1-.58.2L3 10.85zm9-.15v9.07l8-3.12v-5.69l-5.32 2a.5.5 0 0 1-.46-.05l-.07-.06L12 10.7zm8.3-3.61L12.43 9.7l2.2 2.2 7.1-2.67-1.43-2.16zm-17.6 0L1.28 9.22 9.3 11.9l1.42-2.14L2.7 7.09zM11.5 5L4.37 6.6l7.13 2.37 7.13-2.37L11.5 5z"/>
</svg>
