<svg xmlns="http://www.w3.org/2000/svg" width="18" height="18" aria-label="DropCap icon" viewBox="0 0 18 18">
	<path fill-rule="evenodd" d="M16.5 16a.5.5 0 1 1 0 1h-15a.5.5 0 1 1 0-1zm0-3a.5.5 0 1 1 0 1h-15a.5.5 0 1 1 0-1zm0-3a.5.5 0 1 1 0 1h-7a.5.5 0 1 1 0-1zM4.03 1.34a.5.5 0 0 1 .95 0l2.98 9a.5.5 0 1 1-.95.3L6.13 8H2.88l-.89 2.65a.5.5 0 0 1-.54.33l-.09-.02a.5.5 0 0 1-.31-.63zM16.5 7a.5.5 0 1 1 0 1h-7a.5.5 0 0 1 0-1zm-12-3.92L3.2 7h2.6L4.5 3.08zm12 .92a.5.5 0 1 1 0 1h-7a.5.5 0 0 1 0-1zm0-3a.5.5 0 1 1 0 1h-7a.5.5 0 0 1 0-1z"/>
</svg>
