<svg xmlns="http://www.w3.org/2000/svg" width="18" height="18" aria-label="Editor icon" viewBox="0 0 18 18">
	<path fill-rule="evenodd" d="M5.49 3h.04a.5.5 0 0 1 .28.12l.05.05.1.16 3.98 10.92a.5.5 0 0 1-.94.34l-1.34-3.68a.5.5 0 0 1-.18.04H3.49a.5.5 0 0 1-.18-.04L1.97 14.6a.5.5 0 0 1-.94-.34L5.02 3.33A.5.5 0 0 1 5.4 3l-.09.02A.5.5 0 0 1 5.48 3zm0 1.95l-1.83 5H7.3l-1.83-5zM17 8.98v5.46a.5.5 0 0 1-1 0v-.23c-.68.54-1.39.79-2.38.79-1.53 0-2.5-.67-2.85-1.8-.5-1.6.06-3.46 2.08-3.84 1.36-.25 2.4-.04 3.15.51v-.89c0-1.6-.67-2.32-2.04-2.18a5 5 0 0 0-1.52.36c-.32.14-.5.27-.57.33a.5.5 0 0 1-.7 0 .5.5 0 0 1-.01-.7c.15-.15.44-.35.88-.54.5-.22 1.1-.37 1.82-.44 2-.2 3.14 1 3.14 3.17zm-3.96 1.36c-1.3.24-1.67 1.45-1.32 2.57.22.7.8 1.1 1.9 1.1 1.01 0 1.6-.33 2.38-1.16v-1.43l-.01-.04a1.62 1.62 0 0 0-.35-.5c-.51-.54-1.33-.78-2.6-.54z"/>
</svg>
