<svg xmlns="http://www.w3.org/2000/svg" width="18" height="18" aria-label="EmbedThumb icon" viewBox="0 0 18 18">
	<path fill-rule="evenodd" d="M12.2 1L18 6.6v8.9c0 .83-.68 1.5-1.5 1.5h-15a1.5 1.5 0 0 1-1.45-1.14.5.5 0 0 1-.05-.27V2.51C0 1.68.67 1 1.5 1h10.7zM4.1 9.46l-3.06 6.23a.5.5 0 0 0 .46.31h11.89l-4.22-4.37-1.25 1.89a.5.5 0 0 1-.82.02l-3-4.08zM11 2H1.5a.5.5 0 0 0-.5.5v11l2.56-5.22a.5.5 0 0 1 .85-.08l3.07 4.17 1.2-1.81a.5.5 0 0 1 .77-.07L14.78 16h1.72a.5.5 0 0 0 .5-.5V8h-4.5c-.84 0-1.5-.7-1.5-1.54V2zM7.5 4a2.5 2.5 0 1 1 0 5 2.5 2.5 0 0 1 0-5zm0 1a1.5 1.5 0 1 0 0 3 1.5 1.5 0 0 0 0-3zm9.48 2L12 2.2v4.26c0 .3.22.54.5.54h4.48z"/>
</svg>
