<svg xmlns="http://www.w3.org/2000/svg" width="18" height="18" aria-label="Expand icon" viewBox="0 0 18 18">
	<path fill-rule="evenodd" d="M16.5 1c.83 0 1.5.67 1.5 1.5v13c0 .82-.68 1.5-1.5 1.5h-15A1.5 1.5 0 0 1 0 15.5v-13C0 1.69.68 1 1.5 1h15zm0 1h-15a.5.5 0 0 0-.5.5v13c0 .27.22.5.5.5h15a.5.5 0 0 0 .5-.5v-13a.5.5 0 0 0-.5-.5zM5.65 10.15c.2-.2.5-.2.7 0L9 12.79l2.65-2.64a.5.5 0 0 1 .7.7l-3 3a.5.5 0 0 1-.7 0l-3-3a.5.5 0 0 1 0-.7zm3.7-6l3 3a.5.5 0 0 1-.7.7L9 5.21 6.35 7.85a.5.5 0 1 1-.7-.7l3-3c.2-.2.5-.2.7 0z"/>
</svg>
