<svg xmlns="http://www.w3.org/2000/svg" width="18" height="18" aria-label="ExpandBackground icon" viewBox="0 0 18 18">
	<path fill-rule="evenodd" d="M15.5 1c.83 0 1.5.67 1.5 1.5v13c0 .83-.67 1.5-1.5 1.5h-13A1.5 1.5 0 0 1 1 15.5v-13C1 1.68 1.67 1 2.5 1h13zm0 1h-13a.5.5 0 0 0-.5.5v13c0 .27.23.5.5.5h13a.5.5 0 0 0 .5-.5v-13a.5.5 0 0 0-.5-.5zm-2 5c.28 0 .5.22.5.5v6a.5.5 0 0 1-.08.27.5.5 0 0 1-.07.08l.05-.05a.5.5 0 0 1-.03.04l-.02.01a.5.5 0 0 1-.25.14.5.5 0 0 1-.1.01h.07a.5.5 0 0 1-.05 0H7.5a.5.5 0 1 1 0-1h4.8L7.14 7.85a.5.5 0 0 1-.06-.63l.06-.07c.2-.2.5-.2.7 0L13 12.29V7.5a.5.5 0 0 1 .41-.5z"/>
</svg>
