<svg xmlns="http://www.w3.org/2000/svg" width="18" height="18" aria-label="ExternalLinkError icon" viewBox="0 0 18 18">
	<path fill-rule="evenodd" d="M6 3a.5.5 0 0 1 0 1H3.5C2.67 4 2 4.67 2 5.5v9c0 .83.67 1.5 1.5 1.5h9c.83 0 1.5-.67 1.5-1.5V11a.5.5 0 1 1 1 0v3.5a2.5 2.5 0 0 1-2.5 2.5h-9A2.5 2.5 0 0 1 1 14.5v-9A2.5 2.5 0 0 1 3.5 3zm11.1-1.4L13.7 5l3.4 3.4c.18.17.2.44.06.63l-.06.07a.5.5 0 0 1-.7 0L13 5.7 9.6 9.1c-.47.47-1.17-.23-.7-.7L12.3 5 8.9 1.6a.5.5 0 0 1-.06-.63L8.9.9c.2-.2.5-.2.7 0L13 4.3 16.4.9c.47-.47 1.17.23.7.7z"/>
</svg>
