<svg xmlns="http://www.w3.org/2000/svg" width="18" height="18" aria-label="ExternalLink icon" viewBox="0 0 18 18">
	<path fill-rule="evenodd" d="M6 3a.5.5 0 0 1 0 1H3.5C2.67 4 2 4.67 2 5.5v9c0 .83.67 1.5 1.5 1.5h9c.83 0 1.5-.67 1.5-1.5V11a.5.5 0 1 1 1 0v3.5a2.5 2.5 0 0 1-2.5 2.5h-9A2.5 2.5 0 0 1 1 14.5v-9A2.5 2.5 0 0 1 3.5 3H6zm10.51-2h.06l.04.01.04.01.04.02a.5.5 0 0 1 .15.1l.03.02.01.02h.01l-.03-.02.03.03.03.04a.52.52 0 0 1 .08.27v6a.5.5 0 1 1-1 0V2.7l-8.15 8.15a.5.5 0 0 1-.7-.7L15.29 2H10.5a.5.5 0 1 1 0-1h6.01z"/>
</svg>
