<svg xmlns="http://www.w3.org/2000/svg" width="18" height="18" aria-label="Flag icon" viewBox="0 0 18 18">
	<path fill-rule="evenodd" d="M2.5 1c.28 0 .5.22.5.5v.6c1.5-.28 2.84-.13 5.41.4l.18.03c3.21.65 4.76.67 6.7-.25a.5.5 0 0 1 .71.45v8a.5.5 0 0 1-.12.33c-1.1 1.25-2.46 1.2-6.73.32l-1.14-.23c-2.33-.44-3.86-.5-5.01-.08v5.43a.5.5 0 1 1-1 0v-15c0-.28.22-.5.5-.5zM3 3.12v6.9c1.3-.38 2.9-.28 5.2.15l1.15.23c3.58.73 4.9.82 5.65.13V3.5c-1.88.72-3.58.64-6.6.02l-.19-.04c-2.55-.52-3.8-.64-5.21-.35z"/>
</svg>
