<svg xmlns="http://www.w3.org/2000/svg" width="18" height="18" aria-label="Flask icon" viewBox="0 0 18 18">
	<path fill-rule="evenodd" d="M11 2.7V7c0 .19.4.88 1.37 2.36l1.9 2.85C15.57 14.2 16 14.97 16 15.5c0 .67-.28 1.14-.82 1.35-.28.11-.53.15-1.04.15H4.04c-.64 0-.91-.02-1.23-.15-.53-.21-.81-.68-.81-1.35 0-.5.4-1.25 1.56-3.03l1.8-2.71.67-1.01A7.4 7.4 0 0 0 7 7V2.7l-.85-.85A.5.5 0 0 1 6.5 1h5a.5.5 0 0 1 .35.85l-.85.86zM7.7 2l.15.15c.1.09.15.22.15.35v4.55c-.02.44-.31 1-1.36 2.6l-1.91 2.87-.56.86C3.37 14.62 3 15.28 3 15.5c0 .28.05.37.18.42.14.06.32.08.71.08H14.2l.24-.01a1 1 0 0 0 .37-.07c.14-.05.19-.14.19-.42 0-.24-.5-1.1-1.59-2.76l-1.8-2.71c-1.25-1.88-1.58-2.5-1.6-2.97L10 2.5a.5.5 0 0 1 .15-.35l.14-.15H7.71z"/>
</svg>
