<svg xmlns="http://www.w3.org/2000/svg" width="18" height="18" aria-label="FolderVideo icon" viewBox="0 0 18 18">
	<path fill-rule="evenodd" d="M7.09 2c.4 0 .78.16 1.06.44l1.41 1.41c.1.1.22.15.35.15h6.59c.83 0 1.5.67 1.5 1.5v9c0 .83-.67 1.5-1.5 1.5h-15A1.5 1.5 0 0 1 0 14.5V4.98c0-.39.15-.76.42-1.04l1.42-1.48c.29-.3.68-.46 1.09-.46zm9.41 3H1v9.5c0 .28.22.5.5.5h15a.5.5 0 0 0 .5-.5v-9a.5.5 0 0 0-.5-.5zM6 7.6c0-.94.8-1.41 1.61-.94l4.45 2.6c.61.36.62 1.11 0 1.47l-4.45 2.6c-.81.48-1.61.01-1.61-.93zm1-.13v4.93c0 .11-.01.14.01.13l.1-.06L11.34 10 7.1 7.53C7 7.48 7 7.45 7 7.48zM7.1 3H2.93a.5.5 0 0 0-.36.15L1.75 4h6.54l-.85-.85A.5.5 0 0 0 7.16 3H7.1z"/>
</svg>
