<svg xmlns="http://www.w3.org/2000/svg" width="18" height="18" aria-label="Fullscreen icon" viewBox="0 0 18 18">
	<path fill-rule="evenodd" d="M1.5 8a.5.5 0 0 0 .5-.5V2.7l5.15 5.15a.5.5 0 1 0 .7-.7L2.71 2H7.5a.5.5 0 0 0 0-1H1.48a.5.5 0 0 0-.05 0h.07a.5.5 0 0 0-.35.15h-.02a.5.5 0 0 0-.03.05l.05-.05A.5.5 0 0 0 1 1.5v6c0 .28.22.5.5.5zm15 2a.5.5 0 0 0-.5.5v4.8l-5.15-5.15a.5.5 0 0 0-.7.7L15.29 16H10.5a.5.5 0 1 0 0 1h6.02a.5.5 0 0 0 .05 0h-.07a.5.5 0 0 0 .35-.15h.02a.5.5 0 0 0 .03-.05l-.05.05a.5.5 0 0 0 .15-.35v-6a.5.5 0 0 0-.5-.5z"/>
</svg>
