<svg xmlns="http://www.w3.org/2000/svg" width="18" height="18" aria-label="FullBleedWidget icon" viewBox="0 0 18 18">
	<path fill-rule="evenodd" d="M9.5 16a.5.5 0 1 1 0 1h-4a.5.5 0 1 1 0-1zm3-2a.5.5 0 1 1 0 1h-7a.5.5 0 1 1 0-1zm0-2a.5.5 0 1 1 0 1h-7a.5.5 0 1 1 0-1zm4-11c.83 0 1.5.67 1.5 1.5v6c0 .83-.68 1.5-1.5 1.5h-15A1.5 1.5 0 0 1 0 8.5v-6C0 1.67.68 1 1.5 1h15zm0 1h-15a.5.5 0 0 0-.5.5v6c0 .27.23.5.5.5h15a.5.5 0 0 0 .5-.5v-6a.5.5 0 0 0-.5-.5zM4.25 3.04a.5.5 0 0 1 .7.7L3.7 5h10.58l-1.25-1.25a.5.5 0 0 1 .71-.7l2.11 2.1c.2.2.2.51 0 .7l-2.1 2.12a.5.5 0 0 1-.72-.7L14.3 6H3.7l1.26 1.26c.17.18.2.45.06.64l-.06.07a.5.5 0 0 1-.7 0L2.13 5.85a.5.5 0 0 1 0-.7z"/>
</svg>
