<svg xmlns="http://www.w3.org/2000/svg" width="18" height="18" aria-label="Gear icon" viewBox="0 0 18 18">
	<path fill-rule="evenodd" d="M16.67 10.61c.34.26.42.71.22 1.09l-1.54 2.6a.87.87 0 0 1-1.08.37L12.59 14c-.3.21-.61.39-.93.53l-.25 1.73a.85.85 0 0 1-.86.73h-3.1a.85.85 0 0 1-.85-.72l-.26-1.74a6.15 6.15 0 0 1-.93-.53l-1.69.66a.88.88 0 0 1-1.06-.37L1.11 11.7a.84.84 0 0 1 .22-1.08l1.42-1.08a5.44 5.44 0 0 1 0-1.06L1.33 7.4a.83.83 0 0 1-.21-1.09l1.54-2.6a.87.87 0 0 1 1.08-.37L5.4 4c.3-.21.62-.39.93-.53l.26-1.73A.85.85 0 0 1 7.46 1h3.09c.43 0 .8.31.86.72l.25 1.74c.33.14.64.32.94.53l1.68-.66c.4-.15.86 0 1.06.37l1.55 2.61c.2.37.12.82-.22 1.08l-1.42 1.08a5.34 5.34 0 0 1 0 1.06l1.42 1.08zm-2.45-.67l.04-.27a5.12 5.12 0 0 0 0-1.34l-.04-.27.22-.16L16 6.72l-1.46-2.44-2.1.81-.21-.16a5.2 5.2 0 0 0-1.2-.67l-.25-.1-.04-.27L10.46 2H7.54l-.32 2.16-.25.1c-.4.16-.8.38-1.2.67l-.22.16-.25-.1-1.84-.71L2 6.72l1.78 1.34-.04.27a5.23 5.23 0 0 0 0 1.34l.04.27-.22.16L2 11.28l1.46 2.44 2.1-.81.21.16c.38.28.78.5 1.2.67l.25.1.04.27.28 1.89h2.92l.32-2.16.25-.1c.4-.16.8-.38 1.2-.67l.22-.16.25.1 1.84.71L16 11.28l-1.78-1.34zM9 11a2 2 0 1 0 0-4 2 2 0 0 0 0 4zm0 1a3 3 0 1 1 0-6 3 3 0 0 1 0 6z"/>
</svg>
