<svg xmlns="http://www.w3.org/2000/svg" width="18" height="18" aria-label="Globe icon" viewBox="0 0 18 18">
	<path fill-rule="evenodd" d="M9 1a8 8 0 1 1 0 16A8 8 0 0 1 9 1zM6.11 13.13l-.1.02c.42.66.98 1.3 1.7 2.02l.79.77V12.9c-.89.02-1.67.09-2.39.22zm3.4-.23l-.01 3.04.78-.77A11.2 11.2 0 0 0 12 13.12a15.7 15.7 0 0 0-2.5-.22zM5 13.4l-.12.03c-.34.11-.66.24-.97.38a7 7 0 0 0 2.85 1.83A11.04 11.04 0 0 1 5 13.4zm8.03-.04l-.07.13a11.2 11.2 0 0 1-1.72 2.15 6.99 6.99 0 0 0 2.89-1.86c-.35-.17-.72-.3-1.1-.42zM4 9.4H2A6.96 6.96 0 0 0 3.26 13l-.2.1a8.7 8.7 0 0 1 1.5-.62A8.86 8.86 0 0 1 4 9.4zm11.98 0h-2a8.92 8.92 0 0 1-.53 3.04c.46.14.9.31 1.3.52A6.94 6.94 0 0 0 16 9.4zm-7.49 0H5c.04 1.12.2 2.01.54 2.82a16 16 0 0 1 2.96-.31V9.4zm4.5 0H9.5v2.5h.06c1.1.02 2.06.11 2.92.29.32-.8.48-1.69.51-2.79zM3.37 4.83l-.06.07a7.1 7.1 0 0 0-1.3 3.5h2c.04-1.21.24-2.19.64-3.08a7.9 7.9 0 0 1-1.28-.5zm2.27.74v.02c-.4.8-.59 1.69-.64 2.8h3.5V5.87c-1.06-.02-2-.12-2.85-.29zm6.72.03l-.16.03c-.9.16-1.91.24-3.08.24h.37V8.4h3.49a7.1 7.1 0 0 0-.62-2.8zm2.28-.74l-.28.13c-.32.14-.66.27-1.01.37.38.88.58 1.84.63 3.04h1.98a6.96 6.96 0 0 0-1.32-3.54zM9.5 2.14v2.73c.87-.02 1.64-.08 2.33-.19a11.9 11.9 0 0 0-1.47-1.7l-.86-.84zm-1 0l-.14.14-.72.7c-.6.6-1.07 1.13-1.45 1.67.7.12 1.45.19 2.3.21l.01-2.72zm2.61.18l.18.18c.66.68 1.18 1.3 1.59 1.96.38-.1.75-.24 1.1-.39a7 7 0 0 0-2.87-1.75zm-4.22 0l-.19.07a7 7 0 0 0-2.64 1.65c.34.15.7.28 1.08.38.44-.7 1.02-1.36 1.75-2.1z"/>
</svg>
