<svg xmlns="http://www.w3.org/2000/svg" width="18" height="18" aria-label="Hashmark icon" viewBox="0 0 18 18">
	<path fill-rule="evenodd" d="M14.53 0l.08.01a.5.5 0 0 1 .38.6L13.95 5h3.55a.5.5 0 0 1 .5.41v.09a.5.5 0 0 1-.5.5h-3.78l-1.41 6h5.19a.5.5 0 0 1 .5.41v.09a.5.5 0 0 1-.5.5h-5.43L11 17.61a.5.5 0 0 1-.52.39l-.08-.01a.5.5 0 0 1-.38-.6L11.05 13H5.06L4 17.61a.5.5 0 0 1-.52.39l-.08-.01a.5.5 0 0 1-.38-.6L4.05 13H.5a.5.5 0 0 1-.5-.41v-.09c0-.28.22-.5.5-.5h3.78l1.41-6H.5a.5.5 0 0 1-.5-.41V5.5c0-.28.22-.5.5-.5h5.43L7 .39A.5.5 0 0 1 7.53 0l.08.01a.5.5 0 0 1 .38.6L6.95 5h5.98L14 .39a.5.5 0 0 1 .52-.39zm-1.84 6H6.72L5.3 12h5.97l1.41-6z"/>
</svg>
