<svg xmlns="http://www.w3.org/2000/svg" width="18" height="18" aria-label="Image icon" viewBox="0 0 18 18">
	<path fill-rule="evenodd" d="M15.5 1A2.5 2.5 0 0 1 18 3.5v11a2.5 2.5 0 0 1-2.5 2.5h-13A2.5 2.5 0 0 1 0 14.5v-11A2.5 2.5 0 0 1 2.5 1h13zM5.36 8.97L1.5 15.61c.26.24.62.39 1.01.39h12.82l-3.68-4.07-2.2 2.4a.5.5 0 0 1-.79-.07l-3.3-5.29zM15.5 2h-13C1.67 2 1 2.67 1 3.5v10.96l3.92-6.71a.5.5 0 0 1 .8-.09l.05.08 3.38 5.43 2.12-2.32a.5.5 0 0 1 .74 0l4.4 4.85c.36-.27.59-.7.59-1.2v-11c0-.83-.67-1.5-1.5-1.5zM12 4a3 3 0 1 1 0 6 3 3 0 0 1 0-6zm0 1a2 2 0 1 0 0 4 2 2 0 0 0 0-4z"/>
</svg>
