<svg xmlns="http://www.w3.org/2000/svg" width="18" height="18" aria-label="Inbox icon" viewBox="0 0 18 18">
	<path fill-rule="evenodd" d="M13.5 2h.02a.5.5 0 0 1 .06 0h-.08a.5.5 0 0 1 .46.3l-.04-.07.03.04.01.03 3 7a.51.51 0 0 1 .04.19v6.01a.5.5 0 0 1-.41.5H1.5a.5.5 0 0 1-.5-.5v-6a.5.5 0 0 1 0-.07v.07a.5.5 0 0 1 .04-.19l3-7 .01-.04a.5.5 0 0 1 .03-.04l-.04.07a.5.5 0 0 1 .44-.3h9.02zm-7.96 8H2v5h14v-5h-3.54a3.5 3.5 0 0 1-6.92 0zM2.26 9H6c.28 0 .5.22.5.5a2.5 2.5 0 1 0 5 0c0-.28.22-.5.5-.5h3.74l-2.57-6H4.83L2.26 9z"/>
</svg>
