<svg xmlns="http://www.w3.org/2000/svg" width="18" height="18" aria-label="Information icon" viewBox="0 0 18 18">
	<path fill-rule="evenodd" d="M9 17A8 8 0 1 1 9 1a8 8 0 0 1 0 16zm0-1A7 7 0 1 0 9 2a7 7 0 0 0 0 14zm1.2-3a1 1 0 0 1-1 1c-.54 0-1-.46-1-1a1 1 0 0 1 1-1 1 1 0 0 1 1 1zm-.55-2.9a.5.5 0 1 1-.62.8 1.38 1.38 0 0 1-.52-1.06c0-.62.3-1.05.91-1.6l.35-.3c.67-.57.92-.95.92-1.53 0-.81-.7-1.41-1.85-1.41-.81 0-1.49.29-1.97.82a.5.5 0 1 1-.74-.68A3.58 3.58 0 0 1 8.84 4c1.66 0 2.85 1 2.85 2.4 0 .95-.4 1.55-1.26 2.3l-.35.3c-.42.37-.57.59-.57.84 0 .09.06.2.14.27z"/>
</svg>
