<svg xmlns="http://www.w3.org/2000/svg" width="18" height="18" aria-label="Key icon" viewBox="0 0 18 18">
	<path fill-rule="evenodd" d="M6.75 1a5.5 5.5 0 0 1 5.15 7.58l4.73 4.34c.25.25.37.53.37.88v1.95A1.2 1.2 0 0 1 15.75 17h-1.19c-.34.01-.68-.13-.89-.37l-.67-.67V15h-2v-2H9.4l-.47-1.26c-.66.4-1.22.55-2.18.55A5.53 5.53 0 0 1 1 6.75 5.72 5.72 0 0 1 6.75 1zm0 1A4.72 4.72 0 0 0 2 6.75c0 2.6 2.05 4.54 4.75 4.54.82 0 1.2-.12 1.76-.46l.35-.22.08-.04.5-.3.66 1.73H12v2h2v1.54l.4.4c.03.04.08.06.15.06h1.2c.17 0 .25-.08.25-.25V13.8c0-.08-.01-.1-.06-.16l-5.21-4.78.12-.32A4.5 4.5 0 0 0 6.75 2zM6 4a2 2 0 1 1 0 4 2 2 0 0 1 0-4zm0 1a1 1 0 1 0 0 2 1 1 0 0 0 0-2z"/>
</svg>
