<svg xmlns="http://www.w3.org/2000/svg" width="18" height="18" aria-label="Linkedin icon" viewBox="0 0 18 18">
	<path fill-rule="evenodd" d="M15.81 1c.66 0 1.19.52 1.19 1.15v13.7c0 .63-.53 1.15-1.18 1.15H2.18C1.53 17 1 16.48 1 15.84V2.15C1 1.52 1.53 1 2.18 1zM5.78 7.13h-2.4v7.49h2.39v-7.5zm6.02-.32a2.5 2.5 0 0 0-2.25 1.23h-.03v-.91H7.13v7.49H9.5v-3.77c0-.99.29-1.96 1.52-1.96 1.22 0 1.2 1.14 1.2 2.03v3.7h2.39v-4.17c0-2.06-.42-3.64-2.83-3.64zM4.56 3.2a1.37 1.37 0 1 0 0 2.75 1.37 1.37 0 0 0 0-2.75z"/>
</svg>
