<svg xmlns="http://www.w3.org/2000/svg" width="18" height="18" aria-label="Link icon" viewBox="0 0 18 18">
	<path fill-rule="evenodd" d="M11.06 7.75a.5.5 0 1 1-.7.7l-.85-.83a1.86 1.86 0 0 0-2.63 0l-4 4a1.86 1.86 0 0 0 0 2.64l1.33 1.33c.72.73 1.91.72 2.64 0l1.8-1.8a.5.5 0 1 1 .7.7l-1.8 1.8a2.87 2.87 0 0 1-4.05 0l-1.33-1.32a2.86 2.86 0 0 1 0-4.05l4-4.01a2.86 2.86 0 0 1 4.05 0l.84.84zm5.17-4.41a2.86 2.86 0 0 1 0 4.05l-4 4.01a2.86 2.86 0 0 1-4.05 0l-.84-.84a.5.5 0 1 1 .7-.71l.85.84c.73.73 1.9.73 2.63 0l4-4c.73-.73.73-1.91 0-2.64l-1.33-1.33a1.87 1.87 0 0 0-2.64 0l-1.8 1.8a.5.5 0 1 1-.7-.7l1.8-1.8a2.87 2.87 0 0 1 4.05 0l1.33 1.32z"/>
</svg>
