<svg xmlns="http://www.w3.org/2000/svg" width="18" height="18" aria-label="Login icon" viewBox="0 0 18 18">
	<path fill-rule="evenodd" d="M9.5 2A2.5 2.5 0 0 0 7 4.5v2a.5.5 0 1 0 1 0v-2C8 3.67 8.67 3 9.5 3h5c.83 0 1.5.67 1.5 1.5v10c0 .83-.67 1.5-1.5 1.5h-5A1.5 1.5 0 0 1 8 14.5v-2a.5.5 0 1 0-1 0v2A2.5 2.5 0 0 0 9.5 17h5a2.5 2.5 0 0 0 2.5-2.5v-10A2.5 2.5 0 0 0 14.5 2h-5zm1.38 3.67a.5.5 0 1 0-.76.66L12.42 9H1.5a.5.5 0 0 0-.5.41v.09c0 .28.22.5.5.5h10.91l-2.29 2.67a.5.5 0 0 0 0 .65l.05.06a.5.5 0 0 0 .71-.05l3-3.5a.5.5 0 0 0 0-.65l.04.05a.5.5 0 0 0-.04-.05z"/>
</svg>
