<svg xmlns="http://www.w3.org/2000/svg" width="18" height="18" aria-label="Logout icon" viewBox="0 0 18 18">
	<path fill-rule="evenodd" d="M8.5 2A2.5 2.5 0 0 1 11 4.5v2a.5.5 0 1 1-1 0v-2C10 3.67 9.33 3 8.5 3h-5C2.67 3 2 3.67 2 4.5v10c0 .83.67 1.5 1.5 1.5h5c.83 0 1.5-.67 1.5-1.5v-2a.5.5 0 1 1 1 0v2A2.5 2.5 0 0 1 8.5 17h-5A2.5 2.5 0 0 1 1 14.5v-10A2.5 2.5 0 0 1 3.5 2h5zm5.38 3.67l3 3.5.04.06-.04-.06a.5.5 0 0 1 0 .65l-3 3.5a.5.5 0 0 1-.76-.65l2.3-2.67H4.5a.5.5 0 0 1 0-1h10.91l-2.29-2.67a.5.5 0 1 1 .76-.66z"/>
</svg>
