<svg xmlns="http://www.w3.org/2000/svg" width="18" height="18" aria-label="MomJeans icon" viewBox="0 0 18 18">
	<path fill-rule="evenodd" d="M14.5 0a.5.5 0 0 1 .5.42l1 6.53 1 10.5a.5.5 0 0 1-.5.55h-3a.5.5 0 0 1-.45-.29L9.18 9.5h-.36l-3.87 8.21a.5.5 0 0 1-.45.29h-3a.5.5 0 0 1-.5-.55L2 6.92l1-6.5A.5.5 0 0 1 3.5 0h11zm-7 1H5.94L5.5 4.56a.5.5 0 0 1-.3.4l-.08.03-1.88.46L3 7.05 2.05 17h2.13l3.87-8.21a.5.5 0 0 1 .35-.28l-.82-1.23A.5.5 0 0 1 7.5 7V1zm4.56 0H10.5v6a.5.5 0 0 1-.04.2l-.04.08-.83 1.23a.5.5 0 0 1 .36.28L13.82 17h2.13l-.94-9.92-.25-1.63L12.88 5a.5.5 0 0 1-.38-.43L12.06 1zM9.5 1h-1v5.85l.5.75.5-.75V1zM4.93 1h-1L3.4 4.38l1.14-.28.38-3.1zm9.14 0h-1l.38 3.1 1.14.28L14.07 1z"/>
</svg>
