<svg xmlns="http://www.w3.org/2000/svg" width="18" height="18" aria-label="OrderOldest icon" viewBox="0 0 18 18">
	<path fill-rule="evenodd" d="M12.5 15a5.5 5.5 0 1 1 0-11 5.5 5.5 0 0 1 0 11zm0-1a4.5 4.5 0 1 0 0-9 4.5 4.5 0 0 0 0 9zm-9.18 1.88l-.03.03a.55.55 0 0 1-.18.08A.5.5 0 0 1 3 16h-.07H3a.5.5 0 0 1-.32-.11l-.06-.07-2.5-3a.5.5 0 1 1 .76-.64l1.62 1.94V3.5a.5.5 0 1 1 1 0v10.62l1.62-1.94a.5.5 0 0 1 .76.64l-2.5 3-.04.05h-.01v.01zM12.5 6c.28 0 .5.22.5.5v2.7l1.72.85a.5.5 0 0 1-.44.9l-2-1A.5.5 0 0 1 12 9.5v-3c0-.28.22-.5.5-.5z"/>
</svg>
