<svg xmlns="http://www.w3.org/2000/svg" width="18" height="18" aria-label="OrderNewest icon" viewBox="0 0 18 18">
	<path fill-rule="evenodd" d="M3.03 3h.04-.01l.05.01h.03l.02.02a.56.56 0 0 1 .13.06l.03.03.02.01.04.05 2.5 3a.5.5 0 1 1-.76.64L3.5 4.88V15.6a.5.5 0 0 1-.5.4h-.09a.5.5 0 0 1-.41-.5V4.88L.88 6.82a.5.5 0 1 1-.76-.64l2.5-3 .06-.06a.41.41 0 0 1 .08-.06.45.45 0 0 1 .13-.05.5.5 0 0 1 .08 0h.06zm9.47 1a5.5 5.5 0 1 1 0 11 5.5 5.5 0 0 1 0-11zm0 1a4.5 4.5 0 1 0 0 9 4.5 4.5 0 0 0 0-9zM12 6c.28 0 .5.22.5.5v2.7l1.72.85a.5.5 0 0 1-.44.9l-2-1a.5.5 0 0 1-.28-.45v-3c0-.28.22-.5.5-.5z"/>
</svg>
