<svg xmlns="http://www.w3.org/2000/svg" width="18" height="18" aria-label="OrderedList icon" viewBox="0 0 18 18">
	<path fill-rule="evenodd" d="M2.5 12c.86 0 1.43.46 1.43 1.31 0 .56-.37 1-.82 1.1.44.08.89.51.89 1.17C4 16.42 3.41 17 2.5 17c-.7 0-1.23-.34-1.5-.78l.53-.61c.22.32.57.53.93.53.46 0 .67-.27.67-.65 0-.45-.28-.6-.7-.6h-.4v-.87h.37c.4 0 .67-.18.67-.56 0-.4-.26-.6-.64-.6-.34 0-.65.18-.88.48l-.5-.56c.32-.49.82-.78 1.45-.78zm14 2a.5.5 0 1 1 0 1h-10a.5.5 0 1 1 0-1h10zM2.51 6C3.37 6 4 6.57 4 7.5c0 .75-.47 1.27-1.58 2.5H4v1H1v-1c1.49-1.5 2.1-1.93 2.1-2.5a.6.6 0 0 0-.61-.62c-.4 0-.7.2-.95.55L1 6.81c.36-.53.89-.81 1.51-.81zM16.5 8a.5.5 0 1 1 0 1h-10a.5.5 0 0 1 0-1h10zM3 .33V5H2V1.54l-.65.73-.6-.67L2 .33h1zM16.5 2a.5.5 0 1 1 0 1h-10a.5.5 0 0 1 0-1h10z"/>
</svg>
