<svg xmlns="http://www.w3.org/2000/svg" width="18" height="18" aria-label="OrderPopular icon" viewBox="0 0 18 18">
	<path fill-rule="evenodd" d="M3.82 15.88l-.03.03a.55.55 0 0 1-.18.08.5.5 0 0 1-.11.01h-.07.07a.5.5 0 0 1-.32-.11l-.06-.07-2.5-3a.5.5 0 1 1 .76-.64L3 14.12V3.5a.5.5 0 0 1 1 0v10.62l1.62-1.94a.5.5 0 0 1 .76.64l-2.5 3-.04.05h-.01v.01zm9.15-12.04l1.15 3.43 3.62.03a.5.5 0 0 1 .29.9l-2.9 2.15 1.08 3.45a.5.5 0 0 1-.77.56l-2.94-2.1-2.94 2.1a.5.5 0 0 1-.77-.56l1.09-3.45-2.9-2.15a.5.5 0 0 1 .28-.9l3.62-.03 1.15-3.43a.5.5 0 0 1 .94 0zm-.47 1.73l-.79 2.35a.5.5 0 0 1-.47.34l-2.47.03 1.99 1.47a.5.5 0 0 1 .18.55l-.75 2.37 2.02-1.44a.5.5 0 0 1 .58 0l2.02 1.44-.75-2.37a.5.5 0 0 1 .18-.55l2-1.47-2.48-.03a.5.5 0 0 1-.47-.34l-.79-2.35z"/>
</svg>
