<svg xmlns="http://www.w3.org/2000/svg" width="18" height="18" aria-label="OverlayLight icon" viewBox="0 0 18 18">
	<path fill-rule="evenodd" d="M12.5 1c.83 0 1.5.67 1.5 1.5V5h2a1 1 0 0 1 1 1v10a1 1 0 0 1-1 1H6a1 1 0 0 1-1-1v-2H2.5A1.5 1.5 0 0 1 1 12.5v-10C1 1.67 1.67 1 2.5 1h10zm0 1h-10a.5.5 0 0 0-.5.5v10c0 .28.22.5.5.5h10a.5.5 0 0 0 .5-.5v-10a.5.5 0 0 0-.5-.5zm-5 1.79h.05a.5.5 0 0 1 .11.03l-.08-.02a.5.5 0 0 1 .07.01h.01a.51.51 0 0 1 .16.1l.06.06c.04.04.07.1.09.15l-.01-.03v.03h.01l2.22 6.35a.5.5 0 0 1-.94.33L8.62 9H6.38l-.63 1.8a.5.5 0 0 1-.94-.33l2.22-6.35a.51.51 0 0 1 .08-.15l.07-.07a.5.5 0 0 1 .15-.08l-.06.02a.5.5 0 0 1 .23-.05zm0 2.01L6.73 8h1.54L7.5 5.8z"/>
</svg>
