<svg xmlns="http://www.w3.org/2000/svg" width="18" height="18" aria-label="OverlayDark icon" viewBox="0 0 18 18">
	<path fill-rule="evenodd" d="M12.5 1c.83 0 1.5.67 1.5 1.5V4h1.5c.78 0 1.42.6 1.5 1.36V15.5c0 .78-.6 1.42-1.36 1.5H5.5A1.5 1.5 0 0 1 4 15.64V14H2.5A1.5 1.5 0 0 1 1 12.5v-10C1 1.67 1.67 1 2.5 1h10zm3 4H14v7.5c0 .83-.67 1.5-1.5 1.5H5v1.5c0 .25.18.45.41.5H15.5a.5.5 0 0 0 .5-.41V5.5a.5.5 0 0 0-.41-.5h-.09zM7.52 3.79H7.5a.5.5 0 0 0-.15.02h-.02a.5.5 0 0 0-.06.03h.01l-.03.02a.55.55 0 0 0-.03.02l-.04.02-.07.07a.5.5 0 0 0-.07.12v.02h-.01v.01L4.8 10.47a.5.5 0 0 0 .94.33L6.38 9h2.23l.64 1.8a.5.5 0 0 0 .94-.33L7.97 4.12V4.1l-.02-.04a.5.5 0 0 0-.07-.1l-.06-.07-.04-.02a.56.56 0 0 0-.11-.06h-.02l-.03-.02h-.04.01l-.04-.01h-.03zM7.5 5.8L8.27 8H6.73l.77-2.2z"/>
</svg>
