<svg xmlns="http://www.w3.org/2000/svg" width="18" height="18" aria-label="Pagebreak icon" viewBox="0 0 18 18">
	<path fill-rule="evenodd" d="M3.6 9.5c0 .28-.27.5-.6.5H.6c-.33 0-.6-.22-.6-.5S.27 9 .6 9H3c.33 0 .6.22.6.5zm12.4 8a.5.5 0 1 1-1 0v-3c0-.83-.67-1.5-1.5-1.5h-9c-.83 0-1.5.67-1.5 1.5v3a.5.5 0 1 1-1 0v-3A2.5 2.5 0 0 1 4.5 12h9a2.5 2.5 0 0 1 2.5 2.5v3zm0-13A2.5 2.5 0 0 1 13.5 7h-9A2.5 2.5 0 0 1 2 4.5v-3a.5.5 0 1 1 1 0v3C3 5.33 3.67 6 4.5 6h9c.83 0 1.5-.67 1.5-1.5v-3a.5.5 0 0 1 1 0zm-7.6 5c0 .28-.27.5-.6.5H5.4c-.33 0-.6-.22-.6-.5s.27-.5.6-.5h2.4c.33 0 .6.22.6.5zm4.8 0c0 .28-.27.5-.6.5h-2.4c-.33 0-.6-.22-.6-.5s.27-.5.6-.5h2.4c.33 0 .6.22.6.5zm4.8 0c0 .28-.27.5-.6.5H15c-.33 0-.6-.22-.6-.5s.27-.5.6-.5h2.4c.33 0 .6.22.6.5z"/>
</svg>
