<svg xmlns="http://www.w3.org/2000/svg" width="18" height="18" aria-label="Quotable icon" viewBox="0 0 18 18">
	<path fill-rule="evenodd" d="M11.5 15a.5.5 0 1 1 0 1h-4a.5.5 0 1 1 0-1zm-9-4a2.5 2.5 0 1 1 0 5 2.5 2.5 0 0 1 0-5zm0 1a1.5 1.5 0 1 0 0 3 1.5 1.5 0 0 0 0-3zm15 1a.5.5 0 1 1 0 1h-10a.5.5 0 1 1 0-1zm0-2a.5.5 0 1 1 0 1h-10a.5.5 0 1 1 0-1zm-6-5a.5.5 0 1 1 0 1h-4a.5.5 0 0 1 0-1zm-9-4a2.5 2.5 0 1 1 0 5 2.5 2.5 0 0 1 0-5zm0 1a1.5 1.5 0 1 0 0 3 1.5 1.5 0 0 0 0-3zm15 1a.5.5 0 1 1 0 1h-10a.5.5 0 0 1 0-1zm0-2a.5.5 0 1 1 0 1h-10a.5.5 0 0 1 0-1z"/>
</svg>
