<svg xmlns="http://www.w3.org/2000/svg" width="18" height="18" aria-label="Quote icon" viewBox="0 0 18 18">
	<path fill-rule="evenodd" d="M1.66 13.44l.08.55c0 .01 0 0 0 0h.08c3.65-.4 6.05-3.33 5.64-6.8-.4-2.2-2-3.44-3.9-3.15A3.17 3.17 0 0 0 1.05 7.7c.1 1.28 1 1.95 2.72 2.18.28.04.48.3.43.58-.16.89-1.7 2.13-2.56 2.4l-.04.01.07.56zM.05 7.82a4.16 4.16 0 0 1 3.36-4.77c2.46-.37 4.55 1.24 5.04 3.99.48 4.06-2.33 7.48-6.5 7.95-.37.05-.72-.07-.96-.33a.98.98 0 0 1-.24-.5l-.08-.58a58.8 58.8 0 0 1-.08-.6 1 1 0 0 1 .08-.5c.12-.26.34-.46.64-.57.4-.12 1.18-.69 1.6-1.16C1.2 10.36.18 9.41.06 7.82zm11.11 5.62l.08.55c0 .01 0 0 0 0h.08c3.65-.4 6.05-3.33 5.64-6.8-.4-2.2-2-3.44-3.9-3.15a3.17 3.17 0 0 0-2.52 3.67c.1 1.28 1 1.95 2.72 2.18.28.04.48.3.43.58-.16.89-1.7 2.13-2.56 2.4l-.04.01.07.56zM9.55 7.82a4.16 4.16 0 0 1 3.36-4.77c2.46-.37 4.55 1.24 5.04 3.99.48 4.06-2.33 7.48-6.5 7.95-.37.05-.72-.07-.96-.33a.98.98 0 0 1-.24-.5l-.08-.58a58.8 58.8 0 0 1-.08-.6 1 1 0 0 1 .08-.5c.12-.26.34-.46.64-.57.4-.12 1.18-.69 1.6-1.16-1.71-.39-2.74-1.34-2.86-2.93z"/>
</svg>
