<svg xmlns="http://www.w3.org/2000/svg" width="18" height="18" aria-label="Review icon" viewBox="0 0 18 18">
	<path fill-rule="evenodd" d="M9 1a8 8 0 1 1 0 16A8 8 0 0 1 9 1zm0 1a7 7 0 1 0 0 14A7 7 0 0 0 9 2zM7.5 4.79h.05a.5.5 0 0 1 .11.03l-.08-.02a.5.5 0 0 1 .07.01h.01a.51.51 0 0 1 .16.1l.06.06c.04.04.07.1.09.15l-.01-.03v.03h.01l2.22 6.35a.5.5 0 0 1-.94.33L8.62 10H6.38l-.63 1.8a.5.5 0 0 1-.94-.33l2.22-6.35a.51.51 0 0 1 .08-.15l.07-.07a.5.5 0 0 1 .15-.08l-.06.02a.5.5 0 0 1 .23-.05zm5 2.21c.28 0 .5.22.5.5V8h.5a.5.5 0 0 1 .5.41v.09a.5.5 0 0 1-.5.5H13v.5a.5.5 0 0 1-.41.5h-.09a.5.5 0 0 1-.5-.5V9h-.5a.5.5 0 0 1-.5-.41V8.5c0-.28.22-.5.5-.5h.5v-.5a.5.5 0 0 1 .41-.5zm-5-.2L6.73 9h1.54L7.5 6.8z"/>
</svg>
