<svg xmlns="http://www.w3.org/2000/svg" width="18" height="18" aria-label="Settings icon" viewBox="0 0 18 18">
	<path fill-rule="evenodd" d="M3.5 1c.28 0 .5.22.5.5v1.55a2.5 2.5 0 0 1 0 4.9v8.55a.5.5 0 1 1-1 0V7.95a2.5 2.5 0 0 1 0-4.9V1.5c0-.28.22-.5.5-.5zm5 0c.28 0 .5.22.5.5v7.55a2.5 2.5 0 0 1 0 4.9v2.55a.5.5 0 1 1-1 0v-2.55a2.5 2.5 0 0 1 0-4.9V1.5c0-.28.22-.5.5-.5zm5 0c.28 0 .5.22.5.5v1.55a2.5 2.5 0 0 1 0 4.9v8.55a.5.5 0 1 1-1 0V7.95a2.5 2.5 0 0 1 0-4.9V1.5c0-.28.22-.5.5-.5zm-5 9a1.5 1.5 0 1 0 0 3 1.5 1.5 0 0 0 0-3zm-5-6a1.5 1.5 0 1 0 0 3 1.5 1.5 0 0 0 0-3zm10 0a1.5 1.5 0 1 0 0 3 1.5 1.5 0 0 0 0-3z"/>
</svg>
