<svg xmlns="http://www.w3.org/2000/svg" width="18" height="18" aria-label="Share icon" viewBox="0 0 18 18">
	<path fill-rule="evenodd" d="M12.5 8a.5.5 0 1 1 0-1h2A2.5 2.5 0 0 1 17 9.5v5a2.5 2.5 0 0 1-2.5 2.5h-10A2.5 2.5 0 0 1 2 14.5v-5A2.5 2.5 0 0 1 4.5 7h2a.5.5 0 0 1 0 1h-2C3.67 8 3 8.67 3 9.5v5c0 .83.67 1.5 1.5 1.5h10c.83 0 1.5-.67 1.5-1.5v-5c0-.83-.67-1.5-1.5-1.5h-2zm-3 5a.5.5 0 0 0 .5-.5V2.52l3.7 2.87c.19.16.46.14.63-.02l.06-.06a.5.5 0 0 0-.08-.7L9.82 1.1H9.8a.5.5 0 0 0-.3-.1h-.03a.5.5 0 0 0-.04 0h.07a.5.5 0 0 0-.3.1l.06-.04a.5.5 0 0 0-.05.04h-.02v.01h-.01l-4.49 3.5a.5.5 0 0 0 .62.78L9 2.52v9.98c0 .28.22.5.5.5z"/>
</svg>
