<svg xmlns="http://www.w3.org/2000/svg" width="18" height="18" aria-label="Slideshow icon" viewBox="0 0 18 18">
	<path fill-rule="evenodd" d="M12.5 4A2.5 2.5 0 0 1 15 6.5v8a2.5 2.5 0 0 1-2.5 2.5h-10A2.5 2.5 0 0 1 0 14.5v-8A2.5 2.5 0 0 1 2.5 4h10zM4.7 9.92l-3.4 5.41a.5.5 0 0 1-.03.04c.27.38.72.63 1.23.63h9.98c.35 0 .68-.12.93-.32l-3.36-3.44-1.83 1.86a.5.5 0 0 1-.77-.07L4.71 9.92zM12.49 5H2.51A1.5 1.5 0 0 0 1 6.5v7.44l3.27-5.2a.5.5 0 0 1 .78-.1l.06.08 2.84 4.24 1.76-1.79c.2-.2.52-.2.71 0l3.55 3.64c.02-.1.03-.21.03-.32V6.51C14 5.68 13.32 5 12.5 5zm3-4A2.5 2.5 0 0 1 18 3.5v8c0 1.27-1.01 2.5-2 2.5v-1c.39 0 1-.75 1-1.5v-8c0-.82-.68-1.5-1.5-1.5h-10C4.66 2 4 2.48 4 3H3c0-1.14 1.15-2 2.5-2zM10 6a2 2 0 1 1 0 4 2 2 0 0 1 0-4zm0 1a1 1 0 1 0 0 2 1 1 0 0 0 0-2z"/>
</svg>
