<svg xmlns="http://www.w3.org/2000/svg" width="18" height="18" aria-label="Sort-alphabetically icon" viewBox="0 0 18 18">
	<path fill-rule="evenodd" d="M6.52 1h.03a.5.5 0 0 1 .1.03h.02a.5.5 0 0 1 .04.02l-.05-.02a.5.5 0 0 1 .31.31l5 15a.5.5 0 1 1-.94.32l-1.25-3.74a.5.5 0 0 1-.28.08h-6a.5.5 0 0 1-.28-.08l-1.25 3.74a.5.5 0 0 1-.94-.32l5-15v-.01a.5.5 0 0 1 .02-.04l-.02.05a.5.5 0 0 1 .09-.16v-.01l.05-.05a.5.5 0 0 1 .17-.1h.03A.5.5 0 0 1 6.42 1l-.08.02A.5.5 0 0 1 6.5 1h.02zM6.5 3.08L3.53 12h5.94L6.5 3.08zm10 6.92a.5.5 0 1 1 0 1h-4a.5.5 0 1 1 0-1h4zm0-4a.5.5 0 1 1 0 1h-5a.5.5 0 1 1 0-1h5zm0-4a.5.5 0 1 1 0 1h-6a.5.5 0 1 1 0-1h6z"/>
</svg>
