<svg xmlns="http://www.w3.org/2000/svg" width="18" height="18" aria-label="Strikethrough icon" viewBox="0 0 18 18">
	<path fill-rule="evenodd" d="M8.57 18c-1.88 0-3.4-.65-4.45-1.9a.5.5 0 0 1 .76-.65A4.59 4.59 0 0 0 8.57 17c2.2 0 3.86-1.43 3.86-3.57 0-1.51-.69-2.49-2.13-3.39l-1.8-.98L8.4 9H1.5a.5.5 0 1 1 0-1h5.19c-1.56-1.06-2.2-2.13-2.2-3.9C4.5 1.74 6.1 0 8.87 0a5.5 5.5 0 0 1 4.33 2.15.5.5 0 0 1-.8.61A4.5 4.5 0 0 0 8.87 1C6.66 1 5.5 2.26 5.5 4.1c0 1.77.8 2.65 3.14 3.9h7.86a.5.5 0 0 1 0 1h-6.02l.33.18c1.73 1.08 2.62 2.35 2.62 4.25 0 2.72-2.13 4.57-4.86 4.57z"/>
</svg>
