<svg xmlns="http://www.w3.org/2000/svg" width="18" height="18" aria-label="TileBackground icon" viewBox="0 0 18 18">
	<path fill-rule="evenodd" d="M13 10.5a.5.5 0 0 1-.5.5H11v1.5a.5.5 0 1 1-1 0v-2c0-.28.22-.5.5-.5h2c.28 0 .5.22.5.5zm3.5 2.5a.5.5 0 0 1-.5-.5V11h-1.5a.5.5 0 1 1 0-1h2c.28 0 .5.22.5.5v2a.5.5 0 0 1-.5.5zm-6 1c.28 0 .5.22.5.5V16h1.5a.5.5 0 1 1 0 1h-2a.5.5 0 0 1-.5-.5v-2c0-.28.22-.5.5-.5zm6 0a.5.5 0 0 0-.5.5V16h-1.5a.5.5 0 1 0 0 1h2a.5.5 0 0 0 .5-.5v-2a.5.5 0 0 0-.5-.5zM4 10.5a.5.5 0 0 1-.5.5H2v1.5a.5.5 0 1 1-1 0v-2c0-.28.22-.5.5-.5h2c.28 0 .5.22.5.5zM7.5 13a.5.5 0 0 1-.5-.5V11H5.5a.5.5 0 1 1 0-1h2c.28 0 .5.22.5.5v2a.5.5 0 0 1-.5.5zm-6 1c.28 0 .5.22.5.5V16h1.5a.5.5 0 1 1 0 1h-2a.5.5 0 0 1-.5-.5v-2c0-.28.22-.5.5-.5zm6 0a.5.5 0 0 0-.5.5V16H5.5a.5.5 0 1 0 0 1h2a.5.5 0 0 0 .5-.5v-2a.5.5 0 0 0-.5-.5zM13 1.5a.5.5 0 0 1-.5.5H11v1.5a.5.5 0 1 1-1 0v-2c0-.28.22-.5.5-.5h2c.28 0 .5.22.5.5zM16.5 4a.5.5 0 0 1-.5-.5V2h-1.5a.5.5 0 1 1 0-1h2c.28 0 .5.22.5.5v2a.5.5 0 0 1-.5.5zm-6 1c.28 0 .5.22.5.5V7h1.5a.5.5 0 1 1 0 1h-2a.5.5 0 0 1-.5-.5v-2c0-.28.22-.5.5-.5zm6 0a.5.5 0 0 0-.5.5V7h-1.5a.5.5 0 1 0 0 1h2a.5.5 0 0 0 .5-.5v-2a.5.5 0 0 0-.5-.5zM2 2v5h5V2H2zM1 2a1 1 0 0 1 1-1h5a1 1 0 0 1 1 1v5a1 1 0 0 1-1 1H2a1 1 0 0 1-1-1V2z"/>
</svg>
