<svg xmlns="http://www.w3.org/2000/svg" width="18" height="18" aria-label="Trashcan icon" viewBox="0 0 18 18">
	<path fill-rule="evenodd" d="M6 8.5a.5.5 0 0 1 1 0v5a.5.5 0 1 1-1 0v-5zm5 0a.5.5 0 1 1 1 0v5a.5.5 0 1 1-1 0v-5zm-2.5 0a.5.5 0 0 1 1 0v5a.5.5 0 1 1-1 0v-5zM4 6v8.5c0 .83.67 1.5 1.5 1.5h7c.83 0 1.5-.68 1.5-1.5V6H4zm8-2.5c0-.83-.67-1.5-1.5-1.5h-3C6.68 2 6 2.67 6 3.5V5H5V3.5A2.5 2.5 0 0 1 7.5 1h3A2.5 2.5 0 0 1 13 3.5V5h3.5a.5.5 0 1 1 0 1H15v8.5a2.5 2.5 0 0 1-2.5 2.5h-7A2.5 2.5 0 0 1 3 14.5V6H1.5a.5.5 0 0 1 0-1H12V3.5z"/>
</svg>
