<svg xmlns="http://www.w3.org/2000/svg" width="18" height="18" aria-label="Write icon" viewBox="0 0 18 18">
	<path fill-rule="evenodd" d="M14.7 1.39l1.91 1.92c.52.51.52 1.35 0 1.87l-9.77 9.8c-.1.1-.32.2-2.02 1.02l-.03.02a567.4 567.4 0 0 1-1.92.9c-.16.08-.31.09-.76.08a17.86 17.86 0 0 1-.57-.02.5.5 0 0 1-.47-.41 4.45 4.45 0 0 1-.07-.7c0-.28.02-.5.11-.7a546.56 546.56 0 0 1 .91-1.92l.02-.03c.81-1.71.92-1.93 1.02-2.03l9.77-9.8a1.32 1.32 0 0 1 1.87 0zM16.5 8c.27 0 .5.22.5.5v8a.5.5 0 0 1-.5.5h-8a.5.5 0 1 1 0-1H16V8.5c0-.28.22-.5.5-.5zm-2.96-5.9l-9.78 9.8c.06-.06-.15.36-.2.47l-.62 1.28-.01.03a569.36 569.36 0 0 0-.91 1.91A2.8 2.8 0 0 0 2 16h.12c.14.01.38 0 .31.03a542.86 542.86 0 0 0 1.92-.9l.03-.02 1.27-.62c.11-.05.52-.26.47-.2l9.78-9.8a.33.33 0 0 0 0-.47L13.99 2.1a.32.32 0 0 0-.45 0zM9.5 1a.5.5 0 0 1 0 1H2v7.5a.5.5 0 0 1-1 0v-8c0-.28.22-.5.5-.5h8z"/>
</svg>
